<?xml version="1.0" encoding="iso-8859-1"?>
<!-- Generator: Adobe Illustrator 28.3.0, SVG Export Plug-In . SVG Version: 6.00 Build 0)  -->
<svg version="1.2" baseProfile="tiny" xmlns="http://www.w3.org/2000/svg" xmlns:xlink="http://www.w3.org/1999/xlink" x="0px"
	 y="0px" viewBox="0 0 600 600" overflow="visible" xml:space="preserve">
<g id="bg" display="none">
</g>
<g id="scans" display="none">
</g>
<g id="icons">
	<path d="M561.785,92.294c-7.482,3.69-14.845,9.028-23,10.883c-4.294,0.977-7.064,2.378-8.759,4.331
		c-9.763,4.977-25.89,13.747-34.186,17.877c-3.993-5.324-7.142-9.523-10.229-13.639c-7.68,5.945-14.18,12.072-21.668,16.546
		c-16.017,9.572-32.609,18.175-48.837,27.402c-8.974,5.103-17.479,11.055-26.585,15.89c-6.633,3.522-13.959,5.714-20.867,8.75
		c-3.809,1.674-7.606,5.725-11.015,5.327c-3.784-0.442-8.535-3.977-10.399-7.477c-7.291-13.689-22.323-15.838-33.678-23.105
		c-10.858-6.949-20.782-28.396-14.021-39.587c6.63-10.975,4.271-21.698,0.477-32.121c-2.094-5.754-6.515-10.235-14.909-7.591
		c-7.308,2.302-15.37,2.208-23.193,3.184c-8.417,22.272-10.864,24.55-4.611,52.221c0.821,3.636,1.566,8.135,0.14,11.21
		c-1.614,3.479-5.482,7.898-8.78,8.268c-14.891,1.672-26.036,9.362-36.01,19.592c-7.533,7.726-15.298,15.248-22.484,23.286
		c-8.451,9.454-16.969,18.947-24.382,29.201c-7.307,10.107-6.011,16.049,3.253,25.653c4.479,4.643,9.17,9.086,13.508,13.853
		c1.166,1.281,1.646,3.369,2,5.174c2.132,10.844-1.47,14.568-13.09,20.944c-5.543,3.042-12.64,11.066-11.954,15.808
		c1.02,7.039,7.247,14.522,13.254,19.309c6.247,4.977,12.503-0.24,17.196-5.472c6.925-7.719,19.498-9.587,20.941-22.968
		c0.786,0.362,1.571,0.724,2.357,1.085c0.613,1.851,2.03,3.854,1.711,5.527c-2.56,13.42-2.401,28.567-8.958,39.729
		c-9.54,16.24-11.847,31.47-11.882,50.14c-0.06,31.343-5.688,62.722-9.897,93.961c-0.69,5.123-5.195,10.868-9.582,14.079
		c-5.984,4.38-13.6,6.493-20.389,9.838c-1.438,0.708-2.853,2.401-3.246,3.91c-0.209,0.804,1.833,3.192,2.783,3.15
		c10.996-0.486,22.405,4.361,33-3.059c2.062-1.444,6.792-0.662,9.494,0.689c8.434,4.218,16.899,0.52,17.263-8.542
		c0.789-19.644,1.939-38.677,10.188-57.523c7.797-17.814,10.937-37.665,16.135-56.618c0.998-3.637,1.024-8.125,3.244-10.739
		c8.668-10.209,18.038-19.822,27.889-30.459c4.289,3.843,7.62,5.861,9.607,8.791c5.95,8.772,12.439,17.421,16.752,27.003
		c6.391,14.2,16.141,27.13,15.604,44.239c-0.271,8.626,1.308,18.528,5.54,25.83c9.415,16.243,9.926,33.564,8.935,50.973
		c-0.522,9.178,2.249,11.716,10.277,10.696c10.137-1.288,19.395,0.606,28.017,6.236c1.664,1.087,4.404,1.203,6.475,0.824
		c2.833-0.519,5.502-1.94,8.241-2.974c-1.512-3.224-2.217-8.302-4.667-9.368c-14.882-6.473-17.083-20.523-17.98-33.138
		c-2.048-28.816-1.585-57.805-2.491-86.712c-0.142-4.533-1.625-9.205-3.352-13.461c-2.25-5.545-6.797-10.472-7.856-16.133
		c-4.204-22.476-7.317-45.154-11.079-67.716c-1.591-9.541-0.384-18.045,6.861-25.869c1.407,1.753,2.763,2.794,3.239,4.146
		c2.489,7.056,7.077,10.458,14.626,8.637c7.138-1.722,9.7-7.277,9.464-13.739c-0.451-12.358-1.938-24.677-2.413-37.035
		c-0.375-9.756-1.504-19.972,0.898-29.146c1.252-4.782,9.175-8.132,14.496-11.472c13.182-8.276,26.705-16.009,39.892-24.278
		c9.759-6.119,19.491-12.354,28.719-19.229c12.318-9.177,24.437-17.422,41.142-12.238c2.954,0.917,7.257-1.092,10.457-2.704
		c5.855-2.95,11.5-6.394,16.945-10.057c3.24-2.18,10.849-5.526,14.189-8.182c0.308-0.174,0.624-0.34,0.935-0.511
		c2.443-0.819,3.833-1.613,4.499-2.358c4.646-2.311,9.357-4.38,13.292-6.343C561.811,98.67,562.605,98.192,561.785,92.294z
		 M226.961,252.771c-1.119,3.761-5.398,7.739-9.183,9.132c-2.418,0.89-6.9-2.252-9.755-4.484
		c-4.384-3.428-8.497-7.341-12.127-11.563c-6.167-7.172-4.729-17.032,2.354-23.345c4.851-4.323,9.418-9.06,13.531-14.088
		c4.86-5.942,9.984-6.048,12.2,1.256c2.531,8.346,3.171,17.265,4.634,25.936c-0.421,0.059-0.841,0.118-1.262,0.177
		C227.353,241.49,228.518,247.536,226.961,252.771z"/>
</g>
<g id="text">
</g>
<g id="guides">
</g>
<g id="scratch" display="none">
</g>
</svg>
