<?xml version="1.0" encoding="iso-8859-1"?>
<!-- Generator: Adobe Illustrator 28.3.0, SVG Export Plug-In . SVG Version: 6.00 Build 0)  -->
<svg version="1.2" baseProfile="tiny" xmlns="http://www.w3.org/2000/svg" xmlns:xlink="http://www.w3.org/1999/xlink" x="0px"
	 y="0px" viewBox="0 0 600 600" overflow="visible" xml:space="preserve">
<g id="bg" display="none">
</g>
<g id="scans" display="none">
</g>
<g id="icons">
	<path d="M536.581,350.229c-20.738-19.5-46.31-35.806-64.56-57.091c-2.559-10.54-7.196-20.164-14.189-28.401
		c-28.078-34.162-57.91-17.634-68.671-39.501c-7.397-0.149-2.877-12.478-10.918-9.992c-6.834,2.988-38.866,35.117-18.465,35.574
		c-6.016,5.35-12.529,10.14-16.942,17.06c-5.249,6.603-42.33,4.634-53.492,7.186v-36.237H87.69v75.905c0,1.53,0,4.632,0,6.164
		h12.541c4.201,80.631,132.54,90.407,144.843,0h44.271v-33.334c73.731,13.476,17.793,2.506,50.464,61.988
		c31.149,53.957,117.575,40.049,132.334-19.817c16.858,12.073,32.995,25.13,49.542,37.654c1.293,1.005,2.168,1.264,3.357-0.053
		C526.892,363.434,541.822,353.493,536.581,350.229z M122.539,335.784c-3.548,2.784-5.144-8.288-6.655-14.889h33.519
		C140.452,325.866,131.474,330.784,122.539,335.784z M136.947,358.092c-1.593-3.01-14.607-11.924-10.392-14.282
		c10.984-5.588,21.259-12.525,32.541-17.372c-6.038,10.708-12.364,20.441-18.503,30.992
		C139.463,359.343,138.426,359.63,136.947,358.092z M166.718,367.188c-0.021,2.332-0.888,3.186-3.032,2.554
		c-2.875-1.807-18.668-3.176-15.861-7.482c6.766-10.117,11.931-21.717,19.435-31.069
		C167.394,343.486,166.836,355.017,166.718,367.188z M193.147,366.381c-5.94,1.182-11.313,3.478-17.439,3.791
		c0.244-12.788,0.482-25.292,0.722-37.797c0.318-0.05,0.638-0.099,0.957-0.149c5.733,10.204,11.256,20.525,16.995,30.724
		C195.42,364.788,195.434,365.832,193.147,366.381z M216.874,348.79c-3.418,1.864-11.757,15.5-14.743,9.584
		c-5.675-10.846-11.789-21.009-17.377-31.957c11.033,6.07,20.609,12.273,31.355,18.5C218.082,346.07,218.51,347.184,216.874,348.79z
		 M228.532,321.64c-1.767,2.929-3.031,18.947-7.384,16.212c-9.089-5.936-18.912-10.818-27.801-16.956h35.421
		C228.785,321.124,228.726,321.368,228.532,321.64z M366.826,266.109c9.385-8.12,9.286-4.835,18.595,1.247
		c-2.88,2.23-5.046,4.123-8.365,3.629C373.562,270.54,364.996,271.915,366.826,266.109z M344.965,299.399
		c13.033,3.758,25.115,7.241,37.196,10.724c-0.036,0.323-0.073,0.645-0.11,0.968c-11.445,2.893-22.922,5.659-34.366,8.56
		C342.44,321.89,345.95,303.519,344.965,299.399z M355.823,344.929c-0.759-3.32-11.02-15.3-6.338-16.486
		c12.057-2.553,23.778-6.591,35.931-8.351c-8.606,8.779-17.237,16.542-25.899,25.142
		C357.93,346.788,356.854,346.797,355.823,344.929z M378.633,363.106c-2.307-2.489-17.207-7.902-13.381-11.335
		c9.156-8.019,17.148-17.886,26.818-24.976c-3.054,11.911-6.579,22.904-9.846,34.629
		C381.599,363.671,380.541,364.272,378.633,363.106z M407.959,367.49c-6.043-0.397-11.827,0.429-17.824-0.855
		c3.548-12.288,7.017-24.304,10.485-36.32c0.322,0.035,0.643,0.069,0.965,0.104c2.895,11.34,5.556,22.74,8.458,34.077
		C410.568,366.54,410.311,367.552,407.959,367.49z M435.434,356.644c-3.786,0.915-15.37,11.926-16.722,5.438
		c-2.673-11.945-5.946-23.345-8.507-35.367c9.084,8.72,16.727,17.192,25.494,25.989C437.305,354.329,437.43,355.517,435.434,356.644
		z M453.725,333.44c-2.467,2.372-7.836,17.516-11.332,13.746c-8.202-9.159-17.672-17.253-25.179-26.904
		C421.45,322.542,458.718,329.351,453.725,333.44z M436.971,316.554c-1.885-0.525-2.069-1.301-0.926-2.787
		c1.919-1.807,2.985-6.66,6.271-5.587c5.329,4.659,13.201,6.776,15.77,13.808C450.557,321.288,444.248,318.225,436.971,316.554z"/>
</g>
<g id="text">
</g>
<g id="guides">
</g>
<g id="scratch" display="none">
</g>
</svg>
