<?xml version="1.0" encoding="iso-8859-1"?>
<!-- Generator: Adobe Illustrator 28.3.0, SVG Export Plug-In . SVG Version: 6.00 Build 0)  -->
<svg version="1.2" baseProfile="tiny" xmlns="http://www.w3.org/2000/svg" xmlns:xlink="http://www.w3.org/1999/xlink" x="0px"
	 y="0px" viewBox="0 0 600 600" overflow="visible" xml:space="preserve">
<g id="bg" display="none">
</g>
<g id="scans" display="none">
</g>
<g id="icons">
	<path d="M300.618,525.231c-3.16,0-6.319,0-9.479,0c-8.08-1.848-15.68-3.471-22.602-8.34c-3.217-2.263-5.005-3.039-4.404-6.81
		c0.685-4.296,2.371-8.61,3.51-12.821c4.803-17.76,10.306-35.771,13.455-53.91c-14.775,4.496-29.771,9.413-45.008,12.061
		c-15.523,2.697-31.483,1.985-47.18,2.123c-3.117,0.027-7.538,1.031-9.999-1.146c-2.575-2.278-4.767-6.969-6.475-9.916
		c-3.554-6.134-6.329-12.719-8.188-19.561c-4.051-14.908-2.66-29.767-0.805-44.873c-14.031-3.791-27.745-8.149-40.652-14.95
		c-6.643-3.5-12.854-7.599-18.977-11.929c-5.867-4.149-11.787-9.537-18.331-12.503c0-0.412,0-0.824,0-1.236
		c1.723-0.474,3.253-8.669,3.809-10.365c1.329-4.051,2.664-8.112,4.337-12.036c2.857-6.7,6.613-12.987,11.026-18.774
		c9.479-12.431,21.737-22.487,31.969-34.26c-5.995-13.765-12.07-27.488-16.001-42.021c-4.154-15.359-6.418-31.266-9.615-46.845
		c17.203-8.998,36.235-15.236,55.638-16.719c9.896-0.756,19.769,0.004,29.66,0.45c5.025,0.227,10.051,0.441,15.076,0.683
		c5.209,0.251,6.355,0.219,9.235-4.282c10.229-15.986,20.556-31.669,34.867-44.354c15.242-13.51,32.021-25.526,48.016-38.127
		c0.137,0,0.275,0,0.412,0c13.373,11.221,28.235,19.905,39.57,33.456c10.867,12.992,17.752,28.506,25.008,43.667
		c18.501,0,36.952-2.496,55.406-0.024c9.081,1.217,17.949,3.455,26.673,6.223c8.074,2.562,17.868,4.896,25.142,9.284
		c0.884,16.138,1.532,31.991-1.226,48.007c-1.319,7.657-3.243,15.211-5.323,22.691c-1.015,3.651-3.164,8.033-3.431,11.797
		c-0.212,2.987,1.494,4.208,3.451,6.426c9.748,11.048,19.6,22.141,27.268,34.78c7.865,12.965,12.01,27.12,18.064,40.863
		c0,0.687,0,1.374,0,2.061c-2.614,2.205-4.656,6.381-6.855,9.062c-2.485,3.03-5.134,5.915-7.942,8.648
		c-5.522,5.375-11.624,10.132-18.208,14.139c-13.319,8.105-27.803,12.212-42.958,15.25c3.728,26.39,2.729,52.33-5.88,77.681
		c-17.002,2.974-35.641,4.598-52.695,1.38c-17.23-3.251-32.838-11.654-48.354-19.447c0.987,18.306,0.135,36.52-1.998,54.718
		c-0.849,7.239,0.334,18.136-6.514,22.176C315.972,521.82,308.535,523.276,300.618,525.231z"/>
</g>
<g id="text">
</g>
<g id="guides">
</g>
<g id="scratch" display="none">
</g>
</svg>
