<?xml version="1.0" encoding="iso-8859-1"?>
<!-- Generator: Adobe Illustrator 28.3.0, SVG Export Plug-In . SVG Version: 6.00 Build 0)  -->
<svg version="1.2" baseProfile="tiny" xmlns="http://www.w3.org/2000/svg" xmlns:xlink="http://www.w3.org/1999/xlink" x="0px"
	 y="0px" viewBox="0 0 600 600" overflow="visible" xml:space="preserve">
<g id="bg" display="none">
</g>
<g id="scans" display="none">
</g>
<g id="icons">
	<path d="M525,360.585c-0.916,14.206-12.09,34.335-13.007,48.541c-0.045-0.078-0.09-0.156-0.135-0.234l-0.258,0.447h-51.574
		l0.3-0.519l-80.24-138.979l-160.48,0l-80.24,138.979l0.3,0.52H88.094l-0.06-0.105c-0.009,0.015-0.018,0.031-0.027,0.046
		c-0.002-0.036-0.007-0.073-0.009-0.109l-0.203-0.352l0.151-0.261c-1.233-14.16-12.044-33.85-12.945-47.818
		c12.547-6.204,35.005-6.686,47.884-12.699l0.595-1.03c-1.233-14.16-12.044-33.85-12.945-47.818
		c12.547-6.204,35.005-6.686,47.884-12.699l0.595-1.03c-1.233-14.16-12.044-33.85-12.945-47.818
		c12.761-6.31,35.78-6.697,48.541-13.007c-0.104,0.179-0.207,0.359-0.311,0.538h0.209c11.365-8.46,22.73-26.94,34.095-34.516
		c11.365,7.577,22.73,26.056,34.095,34.516h2.879c11.365-8.46,22.73-26.94,34.095-34.516c11.365,7.577,22.73,26.056,34.095,34.516
		h2.879c11.365-8.46,22.73-26.94,34.095-34.516c11.365,7.577,22.73,26.056,34.095,34.516h0.954c-0.133-0.231-0.267-0.462-0.4-0.693
		c12.761,6.31,35.78,6.697,48.541,13.007c-0.914,14.165-12.023,34.216-12.996,48.415l0.104,0.179
		c12.783,6.257,35.703,6.662,48.427,12.953c-0.914,14.165-12.023,34.216-12.996,48.415l0.104,0.179
		C489.357,353.889,512.276,354.294,525,360.585z"/>
</g>
<g id="text">
</g>
<g id="guides">
</g>
<g id="scratch" display="none">
</g>
</svg>
