<?xml version="1.0" encoding="iso-8859-1"?>
<!-- Generator: Adobe Illustrator 28.3.0, SVG Export Plug-In . SVG Version: 6.00 Build 0)  -->
<svg version="1.2" baseProfile="tiny" xmlns="http://www.w3.org/2000/svg" xmlns:xlink="http://www.w3.org/1999/xlink" x="0px"
	 y="0px" viewBox="0 0 600 600" overflow="visible" xml:space="preserve">
<g id="bg" display="none">
</g>
<g id="scans" display="none">
</g>
<g id="icons">
	<g>
		<path stroke="#000000" stroke-width="4" stroke-miterlimit="8" d="M125.869,278.075c14.701,13.269,29.402,26.537,44.103,39.806
			c99.181,0,198.363,0,297.544,0c-14.701-13.269-29.402-26.537-44.103-39.806C324.232,278.075,225.05,278.075,125.869,278.075z"/>
		<path stroke="#000000" stroke-width="4" stroke-miterlimit="8" d="M75,225c14.701,13.269,29.402,26.537,44.103,39.806
			c99.181,0,198.363,0,297.544,0c-14.701-13.269-29.402-26.537-44.103-39.806C273.363,225,174.181,225,75,225z"/>
		<path d="M183.353,332.512c14.701,13.269,29.402,26.537,44.103,39.806c99.181,0,198.363,0,297.544,0
			c-14.701-13.269-29.402-26.537-44.103-39.806C381.716,332.512,282.535,332.512,183.353,332.512z"/>
	</g>
</g>
<g id="text">
</g>
<g id="guides">
</g>
<g id="scratch" display="none">
</g>
</svg>
