<?xml version="1.0" encoding="iso-8859-1"?>
<!-- Generator: Adobe Illustrator 28.3.0, SVG Export Plug-In . SVG Version: 6.00 Build 0)  -->
<svg version="1.2" baseProfile="tiny" xmlns="http://www.w3.org/2000/svg" xmlns:xlink="http://www.w3.org/1999/xlink" x="0px"
	 y="0px" viewBox="0 0 600 600" overflow="visible" xml:space="preserve">
<g id="bg" display="none">
</g>
<g id="scans" display="none">
</g>
<g id="icons">
	<g>
		<path fill="#FFFFFF" d="M117.48,26.474c121.655,0,243.31,0,365.041,0c0,173.613,0,347.246,0,521.032
			c-121.63,0-243.335,0-365.041,0C117.48,373.86,117.48,200.177,117.48,26.474z M249.189,317.016
			c-1.05-19.749-4.297-38.785-10.174-57.404c-1.185-3.752-5.621-6.023-9.828-4.98c-4.297,1.066-3.957,4.363-3.515,7.623
			c0.213,1.57,0.397,3.193,0.949,4.659c5.332,14.167,6.478,29.155,8.108,43.96c0.754,6.852,0.143,14.213-1.615,20.877
			c-1.601,6.074-2.054,11.603-0.601,17.624c0.894,3.703,1.429,7.683,1.102,11.449c-0.562,6.464-1.485,12.97-3.075,19.251
			c-1.606,6.342,0.854,10.094,5.98,13.085c5.102,2.977,7.539,1.861,7.779-4.219c0.243-6.166-0.174-12.356-0.054-18.531
			c0.193-9.865,0.173-19.762,1.035-29.576C245.981,332.842,247.842,324.951,249.189,317.016z M373.563,163.136
			c-0.283,11.41,1.393,22.863-2.853,34.095c-1.133,2.997-0.031,7.403,1.304,10.643c2.167,5.259,5.948,5.508,9.873,1.318
			c4.069-4.344,4.417-9.641,4.435-15.299c0.099-29.957-1.999-60.148,8.818-89.069c1.169-3.125,1.121-6.365-2.677-8.109
			c-3.899-1.791-6.534,0.476-7.666,3.487c-4.006,10.66-8.811,21.265-10.851,32.344C372.125,142.431,373.563,152.916,373.563,163.136
			z M372.332,105.204c-2.206-2.489-3.895-6.076-6.174-6.501c-2.367-0.442-5.843,1.634-7.829,3.615
			c-1.689,1.685-2.104,4.759-2.814,7.294c-2.084,7.442-4.309,14.861-5.971,22.401c-2.443,11.083-4.682,22.223-6.555,33.414
			c-1.297,7.747-1.863,15.619-2.671,23.444c-0.123,1.189,0.126,2.445,0.365,3.637c0.694,3.463,1.205,6.997,2.308,10.332
			c0.744,2.249,2.368,4.206,3.599,6.294c1.625-2.156,3.37-4.237,4.812-6.51c0.506-0.798,0.287-2.066,0.369-3.122
			c0.58-7.491,0.427-15.128,1.894-22.44c2.352-11.723,5.723-23.245,8.76-34.826C365.592,130.153,368.876,118.1,372.332,105.204z
			 M221.591,94.265c2.37,7.327,4.361,14.261,6.917,20.98c0.948,2.493,3.893,4.242,4.783,6.739
			c5.432,15.24,10.471,30.62,15.807,45.896c0.912,2.612,2.157,5.46,4.12,7.232c1.393,1.257,4.826,1.917,6.359,1.064
			c6.202-3.452,6.938-11.321,2.757-16.894c-2.681-3.573-4.903-7.73-6.326-11.963c-4.41-13.12-7.951-26.541-12.635-39.556
			c-2.049-5.694-5.548-11.101-9.41-15.797c-1.651-2.007-5.898-2.33-9-2.44C223.928,89.489,222.786,92.498,221.591,94.265z
			 M298.508,179.775c-2.647-12.571-4.739-25.292-8.09-37.672c-3.626-13.4-8.285-26.532-12.889-39.642
			c-0.594-1.69-3.652-3.643-5.396-3.491c-1.836,0.16-4.022,2.409-5.004,4.294c-0.757,1.452-0.153,3.819,0.307,5.664
			c2,8.028,4.258,15.991,6.259,24.019c4.076,16.354,8.156,32.709,11.986,49.122c1.032,4.421,3.274,6.59,7.704,6.049
			C298.546,187.488,297.684,183.437,298.508,179.775z M389.68,479.953c0.653-0.083,1.307-0.166,1.96-0.25
			c-0.99-8.359-1.205-16.913-3.237-25.011c-1.393-5.551-2.745-10.691-2.121-16.511c0.29-2.703-1.388-5.829-2.779-8.442
			c-1.381-2.596-3.935-4.583-5.228-7.205c-1.856-3.765-4.555-5.107-8.519-4.704c-4.053,0.413-4.695,3.37-4.664,6.493
			c0.104,10.664,2.803,20.777,6.928,30.544c1.762,4.173,4.186,8.163,5.298,12.496c3.31,12.899,5.991,25.958,9.295,38.858
			c0.379,1.48,3.144,2.348,4.803,3.5c0.622-1.79,1.942-3.66,1.748-5.356C392.226,496.202,390.88,488.086,389.68,479.953z
			 M305.891,451.81c-0.458-0.17-0.915-0.34-1.373-0.51c0-2.12,0.24-4.273-0.05-6.352c-0.588-4.211-5.247-6.414-7.622-3.41
			c-2.4,3.037-3.881,6.903-5.281,10.589c-0.85,2.239-0.417,4.951-1.194,7.235c-2.763,8.12-5.587,16.232-8.783,24.188
			c-3.997,9.948-8.657,19.636-12.452,29.655c-1.286,3.396-1.644,7.649-0.843,11.148c0.522,2.281,3.647,4.645,6.113,5.49
			c1.079,0.369,4.261-2.637,5.064-4.672c5.813-14.722,11.362-29.551,16.773-44.426c2.035-5.594,3.379-11.437,5.23-17.103
			C302.778,459.643,304.407,455.75,305.891,451.81z M342.957,360.604c0-9.875,0.063-19.75-0.04-29.623
			c-0.029-2.792-0.002-5.8-1.016-8.296c-0.791-1.945-3.043-4.347-4.854-4.535c-1.893-0.197-4.904,1.53-5.871,3.276
			c-1.545,2.789-2.533,6.3-2.49,9.489c0.271,20.096,0.777,40.191,1.521,60.275c0.112,3.017,1.449,6.215,2.978,8.897
			c1.933,3.391,5.438,4.089,7.756,0.79c1.878-2.673,3.212-6.364,3.212-9.604C344.15,381.052,343.41,370.831,342.957,360.604z
			 M413.794,191.066c-0.301-0.076-0.601-0.152-0.902-0.227c0.112-1.936,0.742-4.035,0.198-5.765
			c-0.61-1.941-2.281-3.549-3.491-5.301c-1.599,1.178-4.111,2.04-4.647,3.586c-3.34,9.647-6.947,19.295-9.093,29.239
			c-2.375,11.004-3.564,22.296-4.707,33.52c-0.582,5.719-0.615,11.697,0.483,17.287c0.462,2.352,4.489,4.004,6.895,5.974
			c1.805-2.311,4.596-4.392,5.201-6.983c1.108-4.745,0.823-9.801,1.299-14.71c1.226-12.626,2.521-25.246,3.874-37.859
			c0.166-1.551,0.887-3.037,1.283-4.571C411.408,200.53,412.595,195.796,413.794,191.066z M442.468,86.983
			c0.08-1.229,0.575-2.632,0.151-3.652c-0.825-1.985-2.078-5.255-3.308-5.326c-3.311-0.191-7.81-2.217-9.734,2.624
			c-1.546,3.888-2.53,7.995-3.895,11.959c-2.797,8.123-6.002,16.121-8.436,24.349c-2.276,7.694-4.219,15.556-5.31,23.482
			c-0.29,2.107,2.642,6.044,4.882,6.796c3.541,1.189,4.366-2.54,5.554-5.464c4.157-10.229,8.588-20.352,13.17-30.399
			C439.099,103.553,442.587,95.795,442.468,86.983z M231.083,206.505c-1.24-6.012-2.754-12.535-3.905-19.122
			c-1.632-9.339-4.787-18.171-10.666-25.49c-1.676-2.087-6.62-2.295-9.895-1.913c-1.032,0.12-1.915,4.946-2.087,7.668
			c-0.097,1.521,1.503,3.102,2.167,4.727c1.926,4.717,4.365,9.329,5.511,14.237c2.245,9.61,3.777,19.387,5.548,29.106
			c0.574,3.151,1.858,5.253,5.532,5.04c3.512-0.203,6.317-1.192,6.849-5.176C230.507,212.798,230.725,209.992,231.083,206.505z
			 M283.789,308.956c0.305-0.099,0.61-0.199,0.915-0.298c-1.714-7.234-3.023-14.607-5.422-21.606
			c-0.605-1.765-4.827-3.465-7.15-3.19c-3.441,0.408-3.837,3.711-3.564,7.099c0.623,7.712,1.103,15.461,1.076,23.193
			c-0.022,6.146-1.068,12.282-1.288,18.435c-0.104,2.916,0.292,5.971,1.112,8.772c1.255,4.29,4.671,6.236,8.981,5.765
			c4.277-0.468,5.139-4.283,5.232-7.543C283.972,329.381,283.789,319.166,283.789,308.956z M207.439,126.252
			c-1.511-5.47-2.185-10.298-4.148-14.527c-4.37-9.416-9.134-18.675-14.257-27.703c-2.17-3.825-5.476-7.078-8.629-10.227
			c-0.973-0.972-3.584-1.494-4.649-0.867c-1.174,0.69-2.168,3.049-1.951,4.486c0.624,4.121,1.295,8.427,3.038,12.15
			c4.399,9.398,9.355,18.537,14.169,27.737c2.157,4.122,4.251,8.321,6.892,12.126c1.1,1.585,4.677,3.524,5.188,3.078
			C205.036,130.809,206.189,128.205,207.439,126.252z M407.332,336.355c0.636-0.085,1.271-0.17,1.907-0.254
			c-0.294-5.787-0.127-11.656-1.13-17.318c-0.357-2.015-3.556-3.527-5.457-5.268c-1.8,2.048-3.885,3.922-5.28,6.217
			c-0.704,1.158-0.077,3.083-0.188,4.651c-0.607,8.568-2.07,17.173-1.65,25.688c0.377,7.65,2.735,15.213,4.36,22.784
			c0.737,3.434,3.243,5.286,6.594,4.658c1.858-0.348,4.689-1.997,4.906-3.397c0.661-4.271,0.749-8.769,0.18-13.063
			C410.479,352.778,408.781,344.583,407.332,336.355z M209.179,460.821c0.306,3.168,0.057,5.648,0.895,7.678
			c0.666,1.613,2.54,3.616,4.09,3.817c6.1,0.793,12.745-5.404,13.723-11.666c0.646-4.134,1.094-8.781,3.297-12.088
			c4.498-6.751,4.506-14.375,5.925-21.737c0.725-3.759-1.857-6.024-5.143-5.848c-2.548,0.137-6.335,1.433-7.27,3.342
			c-5.178,10.562-9.679,21.457-14.334,32.271C209.679,458.179,209.416,459.95,209.179,460.821z M342.775,474.663
			c-0.588,0.143-1.175,0.287-1.763,0.43c0.712,3.743,1.081,7.603,2.303,11.172c0.498,1.454,2.872,3.161,4.346,3.119
			c1.326-0.038,3.139-2.082,3.79-3.638c5.836-13.944,1.428-27.701-1.183-41.445c-0.299-1.576-1.633-3.196-2.916-4.297
			c-3.198-2.745-7.928-1.673-8.272,2.337c-0.581,6.767-0.23,13.68,0.431,20.462C339.902,466.825,341.641,470.714,342.775,474.663z
			 M359.927,364.756c0.631,7.894,0.936,13.348,1.537,18.77c0.602,5.432,5.515,7.313,10.082,4.013
			c5.13-3.706,6.233-7.435,5.081-13.818c-1.371-7.593-2.226-15.28-3.295-22.927c-0.195-1.394,0.071-3.049-0.6-4.138
			c-1.298-2.106-3.111-3.895-4.711-5.816c-1.605,1.657-4.181,3.083-4.642,5.014C361.712,352.827,360.755,359.97,359.927,364.756z
			 M328.667,263.647c0.922,2.741,2.067,7.967,4.494,12.508c1.057,1.977,4.747,2.547,7.242,3.756
			c1.132-2.398,3.177-4.771,3.241-7.197c0.298-11.277,0.021-22.569,0.007-33.856c-0.006-4.54-2.681-6.798-7.163-5.95
			c-4.208,0.796-5.849,3.798-6.191,7.577C329.676,247.346,329.312,254.231,328.667,263.647z M426.297,454.581
			c0.297-0.128,0.593-0.255,0.889-0.383c-1.904-4.642-4.135-9.183-5.626-13.954c-1.667-5.331-2.673-10.87-3.946-16.323
			c-0.732-3.137-2.178-6.309-5.721-5.498c-1.733,0.396-2.967,3.575-4.115,5.666c-0.549,1-0.476,2.397-0.505,3.619
			c-0.301,12.494-2.641,25.663,10.516,33.932c1.518,0.954,3.76,1.954,5.198,1.488c1.309-0.425,2.209-2.725,2.86-4.369
			C426.345,457.505,426.172,455.984,426.297,454.581z M281.826,406.718c0.306-1.684,0.943-3.779,1.016-5.892
			c0.145-4.231-0.085-8.473-0.037-12.71c0.057-5.115,0.637-10.265,0.165-15.323c-0.176-1.888-2.697-5.032-4.118-5.015
			c-2.799,0.033-7.377,1.226-8.048,3.084c-2.776,7.693-4.676,15.757-6.15,23.822c-0.32,1.75,2,4.793,3.894,5.967
			C272.289,402.97,276.583,404.4,281.826,406.718z M274.711,437.017c0-4.238,0.339-7.812-0.134-11.275
			c-0.262-1.917-1.984-5.23-2.87-5.173c-2.941,0.192-7.805,0.981-8.356,2.692c-2.787,8.651-5.091,17.582-6.267,26.584
			c-0.771,5.902,2.106,7.779,8.53,8.075c5.207,0.24,7.718-1.699,8.402-7.337C274.589,445.866,274.526,441.071,274.711,437.017z
			 M261.565,234.793c-1.157,6.264-2.401,12.689,2.846,17.497c1.665,1.526,4.45,3.182,6.279,2.777
			c1.665-0.369,3.655-3.337,3.907-5.358c1.54-12.378-0.271-24.265-7.29-34.833c-1.07-1.611-3.963-2.012-6.012-2.972
			c-0.781,2.294-2.348,4.645-2.187,6.871C259.497,224.145,260.694,229.457,261.565,234.793z M199.415,513.946
			c1.497,2.345,2.675,6.331,5.257,7.734c3.88,2.108,8.417-1.132,10.638-6.233c0.421-0.968,0.823-1.959,1.085-2.978
			c1.316-5.111,2.647-10.219,3.849-15.357c1.187-5.078-1.862-7.609-6.032-9.027c-4.142-1.408-7.65,0.083-8.978,4.171
			C203.079,498.896,201.574,505.746,199.415,513.946z M372.932,284c-0.434-0.159-0.867-0.318-1.301-0.477
			c-0.667-7.861-1.176-15.742-2.139-23.566c-0.181-1.474-2.115-3.764-3.337-3.829c-1.68-0.089-3.89,1.213-5.073,2.601
			c-1.427,1.673-2.016,4.062-2.97,6.14c-3.594,7.821-2.546,16.314,3.57,22.315c1.77,1.737,5.252,2.588,7.795,2.329
			C370.801,289.377,371.791,285.943,372.932,284z M420.325,506.51c0.617,2.542,1.055,6.462,2.553,9.923
			c1.482,3.424,4.923,7.344,8.438,5.137c3.932-2.469,6.406-7.329,9.239-11.343c0.206-0.292-1.823-2.164-2.814-3.3
			c-1.227-1.407-3.156-2.638-3.556-4.249c-1.289-5.197-4.963-6.89-9.451-6.348C419.351,496.98,421.097,501.792,420.325,506.51z
			 M259.086,487.755c-0.961-6.131-3.986-8.246-8.136-8.899c-4.221-0.664-8.731,0.348-9.1,4.928
			c-0.404,5.016,0.553,10.461,2.273,15.231c1.415,3.924,6.028,4.335,8.568,0.861C255.606,495.891,257.389,491.078,259.086,487.755z"
			/>
		<path d="M249.189,317.016c-1.347,7.936-3.208,15.826-3.91,23.819c-0.862,9.814-0.842,19.711-1.035,29.576
			c-0.121,6.175,0.297,12.364,0.054,18.531c-0.24,6.08-2.677,7.196-7.779,4.219c-5.126-2.991-7.586-6.743-5.98-13.085
			c1.59-6.281,2.513-12.787,3.075-19.251c0.327-3.767-0.208-7.746-1.102-11.449c-1.453-6.021-1-11.55,0.601-17.624
			c1.757-6.665,2.369-14.025,1.615-20.877c-1.63-14.805-2.776-29.793-8.108-43.96c-0.552-1.466-0.736-3.089-0.949-4.659
			c-0.442-3.26-0.782-6.557,3.515-7.623c4.207-1.043,8.643,1.227,9.828,4.98C244.892,278.23,248.14,297.266,249.189,317.016z"/>
		<path d="M373.563,163.136c0-10.22-1.438-20.705,0.383-30.589c2.04-11.079,6.846-21.684,10.851-32.344
			c1.132-3.012,3.767-5.278,7.666-3.487c3.798,1.744,3.846,4.984,2.677,8.109c-10.817,28.92-8.719,59.112-8.818,89.069
			c-0.019,5.658-0.366,10.955-4.435,15.299c-3.925,4.19-7.707,3.941-9.873-1.318c-1.335-3.24-2.437-7.646-1.304-10.643
			C374.956,185.999,373.28,174.546,373.563,163.136z"/>
		<path d="M372.332,105.204c-3.456,12.896-6.739,24.949-9.908,37.032c-3.037,11.581-6.408,23.103-8.76,34.826
			c-1.467,7.312-1.313,14.949-1.894,22.44c-0.082,1.056,0.138,2.324-0.369,3.122c-1.442,2.273-3.186,4.354-4.812,6.51
			c-1.231-2.088-2.855-4.045-3.599-6.294c-1.103-3.334-1.614-6.869-2.308-10.332c-0.239-1.192-0.488-2.448-0.365-3.637
			c0.807-7.825,1.374-15.697,2.671-23.444c1.873-11.191,4.112-22.331,6.555-33.414c1.662-7.54,3.887-14.959,5.971-22.401
			c0.71-2.535,1.125-5.609,2.814-7.294c1.987-1.982,5.462-4.057,7.829-3.615C368.437,99.128,370.125,102.715,372.332,105.204z"/>
		<path d="M221.591,94.265c1.194-1.767,2.336-4.775,3.37-4.739c3.102,0.11,7.349,0.432,9,2.44c3.863,4.696,7.361,10.103,9.41,15.797
			c4.684,13.014,8.225,26.436,12.635,39.556c1.423,4.233,3.645,8.39,6.326,11.963c4.181,5.573,3.445,13.442-2.757,16.894
			c-1.532,0.853-4.966,0.193-6.359-1.064c-1.963-1.772-3.208-4.621-4.12-7.232c-5.336-15.275-10.375-30.655-15.807-45.896
			c-0.89-2.497-3.834-4.246-4.783-6.739C225.952,108.526,223.961,101.592,221.591,94.265z"/>
		<path d="M298.508,179.775c-0.824,3.662,0.039,7.713-5.122,8.343c-4.431,0.541-6.673-1.628-7.704-6.049
			c-3.83-16.413-7.911-32.768-11.986-49.122c-2.001-8.028-4.258-15.991-6.259-24.019c-0.46-1.845-1.063-4.212-0.307-5.664
			c0.982-1.884,3.168-4.134,5.004-4.294c1.744-0.152,4.803,1.801,5.396,3.491c4.604,13.11,9.262,26.242,12.889,39.642
			C293.769,154.483,295.861,167.204,298.508,179.775z"/>
		<path d="M389.68,479.953c1.201,8.133,2.546,16.249,3.483,24.413c0.195,1.696-1.126,3.566-1.748,5.356
			c-1.659-1.152-4.424-2.02-4.803-3.5c-3.304-12.9-5.986-25.96-9.295-38.858c-1.112-4.333-3.536-8.323-5.298-12.496
			c-4.125-9.766-6.824-19.88-6.928-30.544c-0.03-3.123,0.611-6.08,4.664-6.493c3.964-0.404,6.663,0.938,8.519,4.704
			c1.293,2.622,3.847,4.61,5.228,7.205c1.39,2.613,3.068,5.738,2.779,8.442c-0.624,5.82,0.728,10.96,2.121,16.511
			c2.032,8.098,2.247,16.651,3.237,25.011C390.987,479.786,390.333,479.869,389.68,479.953z"/>
		<path d="M305.891,451.81c-1.484,3.94-3.113,7.833-4.419,11.831c-1.851,5.667-3.195,11.509-5.23,17.103
			c-5.411,14.876-10.96,29.705-16.773,44.426c-0.804,2.035-3.985,5.042-5.064,4.672c-2.466-0.844-5.591-3.208-6.113-5.49
			c-0.801-3.499-0.443-7.753,0.843-11.148c3.795-10.019,8.455-19.707,12.452-29.655c3.196-7.956,6.02-16.068,8.783-24.188
			c0.777-2.284,0.344-4.996,1.194-7.235c1.4-3.687,2.881-7.553,5.281-10.589c2.374-3.004,7.033-0.801,7.622,3.41
			c0.29,2.079,0.05,4.232,0.05,6.352C304.976,451.47,305.434,451.64,305.891,451.81z"/>
		<path d="M342.956,360.607c0.453,10.224,1.194,20.445,1.194,30.666c0,3.24-1.334,6.93-3.212,9.604
			c-2.317,3.299-5.823,2.601-7.756-0.79c-1.529-2.682-2.866-5.88-2.978-8.897c-0.743-20.084-1.249-40.179-1.521-60.275
			c-0.043-3.189,0.945-6.7,2.49-9.489c0.968-1.747,3.978-3.473,5.871-3.276c1.812,0.188,4.064,2.59,4.854,4.535
			c1.015,2.496,0.987,5.504,1.016,8.296C343.02,340.854,342.957,350.729,342.956,360.607z"/>
		<path d="M413.794,191.066c-1.2,4.73-2.386,9.464-3.606,14.189c-0.396,1.534-1.116,3.02-1.283,4.571
			c-1.352,12.613-2.648,25.233-3.874,37.859c-0.477,4.909-0.191,9.965-1.299,14.71c-0.605,2.591-3.396,4.672-5.201,6.983
			c-2.406-1.97-6.433-3.622-6.895-5.974c-1.098-5.59-1.066-11.568-0.483-17.287c1.143-11.224,2.332-22.516,4.707-33.52
			c2.146-9.944,5.753-19.591,9.093-29.239c0.535-1.546,3.048-2.408,4.647-3.586c1.209,1.753,2.881,3.36,3.491,5.301
			c0.544,1.73-0.086,3.829-0.198,5.765C413.193,190.914,413.494,190.99,413.794,191.066z"/>
		<path d="M442.468,86.983c0.119,8.812-3.369,16.57-6.926,24.37c-4.582,10.047-9.013,20.17-13.17,30.399
			c-1.188,2.923-2.013,6.653-5.554,5.464c-2.24-0.752-5.172-4.689-4.882-6.796c1.091-7.926,3.035-15.789,5.31-23.482
			c2.434-8.228,5.639-16.226,8.436-24.349c1.365-3.965,2.349-8.072,3.895-11.959c1.924-4.84,6.423-2.815,9.734-2.624
			c1.23,0.071,2.484,3.341,3.308,5.326C443.043,84.352,442.548,85.754,442.468,86.983z"/>
		<path d="M231.083,206.505c-0.358,3.487-0.576,6.293-0.948,9.078c-0.532,3.984-3.336,4.972-6.849,5.176
			c-3.674,0.213-4.958-1.89-5.532-5.04c-1.771-9.718-3.303-19.496-5.548-29.106c-1.147-4.908-3.585-9.52-5.511-14.237
			c-0.663-1.625-2.263-3.206-2.167-4.727c0.173-2.722,1.055-7.548,2.087-7.668c3.276-0.382,8.219-0.174,9.895,1.913
			c5.88,7.319,9.034,16.151,10.666,25.49C228.328,193.97,229.842,200.493,231.083,206.505z"/>
		<path d="M283.789,308.956c0,10.21,0.184,20.426-0.107,30.628c-0.093,3.26-0.954,7.076-5.232,7.543
			c-4.31,0.471-7.726-1.475-8.981-5.765c-0.82-2.802-1.217-5.856-1.112-8.772c0.22-6.154,1.266-12.289,1.288-18.435
			c0.027-7.732-0.454-15.481-1.076-23.193c-0.274-3.388,0.122-6.692,3.564-7.099c2.323-0.275,6.545,1.425,7.15,3.19
			c2.399,6.999,3.709,14.372,5.422,21.606C284.399,308.757,284.094,308.857,283.789,308.956z"/>
		<path d="M207.439,126.252c-1.25,1.953-2.403,4.557-4.347,6.254c-0.511,0.446-4.087-1.493-5.188-3.078
			c-2.641-3.805-4.735-8.003-6.892-12.126c-4.814-9.201-9.77-18.339-14.169-27.737c-1.742-3.723-2.414-8.028-3.038-12.15
			c-0.217-1.437,0.777-3.796,1.951-4.486c1.065-0.626,3.676-0.105,4.649,0.867c3.153,3.15,6.459,6.403,8.629,10.227
			c5.123,9.028,9.886,18.287,14.257,27.703C205.254,115.954,205.927,120.782,207.439,126.252z"/>
		<path d="M407.332,336.355c1.448,8.228,3.147,16.423,4.242,24.697c0.568,4.294,0.481,8.792-0.18,13.063
			c-0.217,1.4-3.048,3.049-4.906,3.397c-3.35,0.628-5.856-1.223-6.594-4.658c-1.625-7.571-3.983-15.135-4.36-22.784
			c-0.42-8.514,1.043-17.119,1.65-25.688c0.111-1.568-0.516-3.493,0.188-4.651c1.394-2.294,3.48-4.169,5.28-6.217
			c1.901,1.742,5.1,3.253,5.457,5.268c1.003,5.661,0.836,11.53,1.13,17.318C408.604,336.185,407.968,336.27,407.332,336.355z"/>
		<path d="M209.179,460.821c0.237-0.872,0.5-2.642,1.184-4.231c4.654-10.815,9.156-21.71,14.334-32.271
			c0.936-1.909,4.722-3.205,7.27-3.342c3.286-0.176,5.868,2.089,5.143,5.848c-1.419,7.361-1.427,14.986-5.925,21.737
			c-2.203,3.307-2.651,7.954-3.297,12.088c-0.978,6.262-7.623,12.459-13.723,11.666c-1.549-0.201-3.424-2.204-4.09-3.817
			C209.236,466.469,209.485,463.99,209.179,460.821z"/>
		<path d="M342.775,474.663c-1.133-3.949-2.873-7.838-3.265-11.859c-0.661-6.783-1.012-13.696-0.431-20.462
			c0.344-4.01,5.074-5.082,8.272-2.337c1.282,1.101,2.616,2.721,2.916,4.297c2.612,13.744,7.019,27.502,1.183,41.445
			c-0.651,1.556-2.464,3.599-3.79,3.638c-1.473,0.043-3.848-1.665-4.346-3.119c-1.222-3.568-1.591-7.429-2.303-11.172
			C341.599,474.95,342.187,474.806,342.775,474.663z"/>
		<path d="M359.927,364.756c0.828-4.786,1.784-11.929,3.452-18.902c0.462-1.931,3.037-3.356,4.642-5.014
			c1.6,1.921,3.413,3.709,4.711,5.816c0.671,1.089,0.405,2.744,0.6,4.138c1.069,7.647,1.924,15.334,3.295,22.927
			c1.152,6.383,0.049,10.112-5.081,13.818c-4.568,3.3-9.481,1.419-10.082-4.013C360.864,378.104,360.558,372.65,359.927,364.756z"/>
		<path d="M328.667,263.647c0.645-9.417,1.009-16.302,1.629-23.163c0.342-3.779,1.983-6.781,6.191-7.577
			c4.482-0.848,7.158,1.41,7.163,5.95c0.014,11.287,0.291,22.579-0.007,33.856c-0.064,2.426-2.109,4.8-3.241,7.197
			c-2.494-1.209-6.184-1.778-7.242-3.756C330.734,271.615,329.589,266.388,328.667,263.647z"/>
		<path d="M426.297,454.581c-0.125,1.403,0.047,2.923-0.45,4.179c-0.651,1.644-1.551,3.944-2.86,4.369
			c-1.437,0.466-3.679-0.534-5.198-1.488c-13.157-8.269-10.818-21.438-10.516-33.932c0.029-1.222-0.044-2.619,0.505-3.619
			c1.148-2.091,2.382-5.27,4.115-5.666c3.543-0.811,4.989,2.361,5.721,5.498c1.273,5.453,2.28,10.991,3.946,16.323
			c1.491,4.771,3.722,9.312,5.626,13.954C426.89,454.326,426.594,454.454,426.297,454.581z"/>
		<path d="M281.826,406.718c-5.242-2.318-9.536-3.748-13.279-6.068c-1.893-1.174-4.213-4.216-3.894-5.967
			c1.474-8.065,3.374-16.129,6.15-23.822c0.67-1.858,5.249-3.05,8.048-3.084c1.421-0.017,3.942,3.127,4.118,5.015
			c0.472,5.058-0.108,10.208-0.165,15.323c-0.047,4.236,0.183,8.479,0.037,12.71C282.769,402.939,282.132,405.034,281.826,406.718z"
			/>
		<path d="M274.711,437.017c-0.186,4.053-0.122,8.849-0.695,13.567c-0.684,5.638-3.195,7.577-8.402,7.337
			c-6.424-0.296-9.301-2.173-8.53-8.075c1.176-9.002,3.48-17.933,6.267-26.584c0.551-1.712,5.415-2.501,8.356-2.692
			c0.886-0.058,2.608,3.256,2.87,5.173C275.05,429.205,274.711,432.779,274.711,437.017z"/>
		<path d="M261.565,234.793c-0.871-5.336-2.068-10.648-2.458-16.018c-0.161-2.226,1.406-4.577,2.187-6.871
			c2.05,0.96,4.942,1.361,6.012,2.972c7.019,10.568,8.83,22.455,7.29,34.833c-0.251,2.021-2.241,4.989-3.907,5.358
			c-1.829,0.405-4.614-1.251-6.279-2.777C259.164,247.482,260.409,241.057,261.565,234.793z"/>
		<path d="M199.415,513.946c2.158-8.2,3.663-15.05,5.818-21.689c1.327-4.089,4.836-5.58,8.978-4.171
			c4.17,1.418,7.219,3.949,6.032,9.027c-1.201,5.138-2.533,10.246-3.849,15.357c-0.262,1.019-0.664,2.01-1.085,2.978
			c-2.221,5.101-6.757,8.341-10.638,6.233C202.09,520.277,200.912,516.291,199.415,513.946z"/>
		<path d="M372.932,284c-1.141,1.943-2.131,5.377-3.456,5.512c-2.543,0.259-6.024-0.592-7.795-2.329
			c-6.116-6.001-7.163-14.493-3.57-22.315c0.955-2.078,1.543-4.466,2.97-6.14c1.184-1.388,3.393-2.689,5.073-2.601
			c1.222,0.064,3.156,2.354,3.337,3.829c0.963,7.825,1.472,15.705,2.139,23.566C372.065,283.682,372.498,283.841,372.932,284z"/>
		<path d="M420.325,506.51c0.772-4.718-0.974-9.53,4.408-10.18c4.488-0.542,8.162,1.151,9.451,6.348
			c0.4,1.611,2.329,2.843,3.556,4.249c0.991,1.136,3.02,3.008,2.814,3.3c-2.833,4.014-5.306,8.874-9.239,11.343
			c-3.515,2.207-6.955-1.714-8.438-5.137C421.38,512.972,420.942,509.052,420.325,506.51z"/>
		<path d="M259.086,487.755c-1.697,3.323-3.48,8.136-6.395,12.121c-2.54,3.474-7.153,3.063-8.568-0.861
			c-1.72-4.769-2.677-10.214-2.273-15.231c0.369-4.581,4.879-5.592,9.1-4.928C255.101,479.509,258.126,481.624,259.086,487.755z"/>
	</g>
</g>
<g id="text">
</g>
<g id="guides">
</g>
<g id="scratch" display="none">
</g>
</svg>
