<?xml version="1.0" encoding="iso-8859-1"?>
<!-- Generator: Adobe Illustrator 28.3.0, SVG Export Plug-In . SVG Version: 6.00 Build 0)  -->
<svg version="1.2" baseProfile="tiny" xmlns="http://www.w3.org/2000/svg" xmlns:xlink="http://www.w3.org/1999/xlink" x="0px"
	 y="0px" viewBox="0 0 600 600" overflow="visible" xml:space="preserve">
<g id="bg" display="none">
</g>
<g id="scans" display="none">
</g>
<g id="icons">
	<path d="M388.581,522.408c-8.512,4.634-28.223,2.004-37.213,0.16c-13.318-2.732-8.475-12.646-9.031-24.878
		c-0.576-12.667-4.243-25.005-6.563-37.405c-2.439-13.038-8.946-20.689-14.834-32.265c-4.588-9.02-6.381-25.296-18.077-14.57
		c-4.139,3.797-7.127,12.121-10.741,16.642c-4.486,5.611-9.862,10.354-14.563,15.751c-8.616,9.892-15.614,20.719-19.304,33.4
		c-2.135,7.335-2.33,11.926-0.68,19.182c1.179,5.187,8.094,13.458,0.61,16.156c-4.041,1.457-28.54-11.487-30.291-15.084
		c-3.287-6.754,9.413-29.25,11.893-36.935c8.167-25.3,22.725-47.202,32.614-72.147c11.566-29.177,11.212-59.98,8.55-90.584
		c-1.233-14.179-4.051-29.036-1.282-43.167c3.941-20.109,3.937-26.138-8.015-43.323c-17.604-25.312-36.724-50.043-55.798-74.217
		c-5.585-7.078-10.158-14.335-18.664-17.339c-7.338-2.592-14.186-0.483-20.754-5.366C166.989,109.391,152.895,86.588,150,75
		c14.767,3.938,17.877,27.258,31.102,34.232c9.71,5.121,4.714-1.57,12.514-2.805c7.695-1.218,8.911,3.187,15.013,11.469
		c11.707,15.891,24.322,30.988,36.961,46.144c9.552,11.454,29.151,45.559,44.606,48.424c1.56-19.064,3.81-46.669,29.576-38.38
		c13.302,4.279,16.607,10.969,15.994,24.01c-0.2,4.266-0.306,10.07-1.775,14.154c-1.938,5.391-8.2,9.049-9.724,14.045
		c-4.915,16.113,17.658,40.153,27.275,50.042c6.683,6.872,6.602,13.093,11.732,21.862c5.688,9.722,12.389,14.239,21.565,20.486
		c6.637,4.519,19.187,10.043,19.443,19.338c0.279,10.14-9.115,13.406-17.112,15.407c-7.062,1.767-13.603,2.513-20.844,1.566
		c-4.439-0.581-10.647-5.52-15.11-2.685c-6.604,4.194-1.695,26.46-0.37,34.368c2.077,12.394,8.151,23.529,10.548,35.848
		c2.779,14.287,4.384,29.983,6.008,44.505c1.235,11.045-2.036,21.814,0.844,32.406C371.457,511.24,378.499,516.451,388.581,522.408z
		 M335.797,306.273c5.359,6.628,17.067,10.432,13.239-2.91C345.021,289.367,338.129,299.008,335.797,306.273z"/>
</g>
<g id="text">
</g>
<g id="guides">
</g>
<g id="scratch" display="none">
</g>
</svg>
