<?xml version="1.0" encoding="iso-8859-1"?>
<!-- Generator: Adobe Illustrator 28.3.0, SVG Export Plug-In . SVG Version: 6.00 Build 0)  -->
<svg version="1.2" baseProfile="tiny" xmlns="http://www.w3.org/2000/svg" xmlns:xlink="http://www.w3.org/1999/xlink" x="0px"
	 y="0px" viewBox="0 0 600 600" overflow="visible" xml:space="preserve">
<g id="bg" display="none">
</g>
<g id="scans" display="none">
</g>
<g id="icons">
	<g>
		<path d="M246.39,75c19.531,4.868,16.151,27.809,18.681,43.264c5.708,16.076,96.303,15.39,115.011,14.775
			c11.225,3.332,84.883-27.182,79.473-14.918c-9.229,28.7-7.356,59.402-9.14,89.148c-2.055,62.354,30.388,117.941,45.034,176.997
			c-0.313,0.25-0.626,0.501-0.939,0.751c-61.011-36.277-101.62-41.464-169.702-23.881c-25.387,0.699-39.948-3.019-38.579-31.967
			c-10.286-52.912-88.289,11.913-107.126,30.76c17.187,50.61,34.573,101.582,51.763,152.256c1.946,4.506,0.549,11.399-4.741,12.063
			c-3.987,0.622-6.033-1.582-7.19-4.989C170.88,378.537,123.709,237.346,75,96.931c0-1.354,0-2.708,0-4.061
			c2.938-6.607,10.794-8.386,13.207-0.291c22.169,7.183,78.124,12.647,99.991,3.948C207.434,89.501,225.248,75.411,246.39,75z
			 M92.899,106.505c28.246,83.042,56.397,165.806,84.548,248.57c0.541-0.083,1.081-0.165,1.622-0.248
			c-2.338-45.576-1.809-92.836-23.929-134.174C135.833,181.491,123.615,138.856,92.899,106.505z"/>
	</g>
</g>
<g id="text">
</g>
<g id="guides">
</g>
<g id="scratch" display="none">
</g>
</svg>
