<?xml version="1.0" encoding="iso-8859-1"?>
<!-- Generator: Adobe Illustrator 28.3.0, SVG Export Plug-In . SVG Version: 6.00 Build 0)  -->
<svg version="1.2" baseProfile="tiny" xmlns="http://www.w3.org/2000/svg" xmlns:xlink="http://www.w3.org/1999/xlink" x="0px"
	 y="0px" viewBox="0 0 600 600" overflow="visible" xml:space="preserve">
<g id="bg" display="none">
</g>
<g id="scans" display="none">
</g>
<g id="icons">
	<path d="M133.207,525c-0.912-2.871-1.724-5.427-1.75-5.511c5.818-4.217,9.874-8.073,14.676-10.366
		c4.358-2.081,9.864-1.648,11.315-8.052c0.906-4.001,3.752-7.704,4.07-11.673c1.773-22.126,3.287-44.28,4.389-66.449
		c0.678-13.642,0.323-27.213-0.802-40.965c-0.868-10.62,7.936-21.752,11.03-33.042c4.377-15.971,7.499-32.289,11.002-48.492
		c0.28-1.297-0.642-2.853-1.51-6.282c-3.462,4.451-5.778,7.635-8.306,10.641c-6.454,7.673-12.368,15.984-19.813,22.551
		c-3.141,2.771-11.455,4.155-14.139,2.031c-5.395-4.269-10.629-10.903-12.121-17.43c-2.234-9.77,3.767-17.082,13.286-20.684
		c5.937-2.247,11.378-4.791,11.945-12.21c0.546-7.145-4.126-10.298-9.144-14.459c-17.05-14.136-24.159-25.075-5.905-46.241
		c7.699-8.927,14.305-18.789,21.738-27.958c2.094-2.582,5.453-4.106,8.052-6.325c1.639-1.399,3.274-2.996,4.348-4.833
		c7.962-13.616,19.302-23.248,34.898-25.791c17.025-2.776,23.079-12.358,15.515-28.47c-7.577-16.141-1.977-30.737,4.936-44.914
		c1.238-2.54,7.322-3.281,11.305-3.792c6.3-0.809,12.99-2.004,19.015-0.711c8.74,1.876,8.138,11.046,10.257,17.64
		c1.737,5.406,3.525,11.234,3.202,16.753c-0.418,7.131-2.065,14.479-4.725,21.117c-3.485,8.697,0.533,14.785,6.282,19.134
		c6.806,5.148,15.276,8.035,22.558,12.639c5.519,3.49,11.039,7.502,15.273,12.393c10.12,11.692,14.081,12.097,27.305,3.604
		c9.511-6.109,20.145-10.442,29.926-16.169c12.002-7.027,23.542-14.839,35.453-22.026c17.227-10.395,34.609-20.534,51.767-30.688
		c12.387,12.277,12.387,12.277,8.389,24.019c-3.224-0.189-6.818,0.259-9.989-0.697c-14.994-4.521-24.255,5.705-34.841,12.865
		c-13.379,9.049-27.009,17.729-40.41,26.747c-9.882,6.65-19.567,13.591-29.346,20.394c-1.058,0.736-2.091,1.555-3.248,2.097
		c-15.497,7.264-19.418,18.342-14.152,35.316c4.268,13.757,7.675,28.054,3.444,42.503c-1.109,3.788-4.581,9.296-7.432,9.595
		c-4.202,0.442-9.101-2.618-13.16-5.081c-2.484-1.508-3.951-4.689-6.347-7.717c-7.112,7.134-7.9,14.902-6.527,22.937
		c4.167,24.401,8.556,48.765,13.086,73.101c0.561,3.016,1.74,6.736,3.94,8.483c8.517,6.761,8.345,15.758,8.105,25.187
		c-0.169,6.642,0.408,13.316,0.881,19.959c0.548,7.703,1.371,15.386,2.032,23.082c1.345,15.657,0.837,31.779,4.651,46.808
		c2.415,9.52,11.296,17.381,17.178,26.053c1.63,2.402,2.906,5.044,4.344,7.576c-2.669,0.249-5.421,1.036-7.991,0.64
		c-6.433-0.99-12.737-2.885-19.184-3.705c-4.701-0.598-9.612,0.417-14.304-0.214c-2.802-0.377-7.456-2.247-7.697-3.953
		c-1.801-12.715-2.829-25.548-3.762-38.369c-0.144-1.973,1.445-4.071-0.093-4.61c-3.366-4.675-8.256-8.904-9.781-14.117
		c-3.218-10.998-4.761-22.496-6.828-33.819c-1.752-9.594-1.979-19.01-9.054-27.597c-7.55-9.164-11.658-21.08-18.179-31.209
		c-3.138-4.874-8.215-8.585-12.77-12.398c-0.986-0.825-4.318-0.54-5.187,0.448c-9.074,10.314-18.646,19.877-25.564,32.356
		c-10.937,19.728-14.336,40.964-18.724,62.346c-1.557,7.585-6.805,14.373-9.988,21.69c-0.956,2.196-0.843,4.949-0.851,7.448
		c-0.031,9.642,0.296,19.289,0.092,28.925c-0.203,9.549-5.915,13.061-15.577,10.038c-0.887-0.278-1.92-0.547-2.786-0.36
		C158.856,519.329,146.824,522,133.207,525z M197.254,239.97c0.46-0.103,0.92-0.205,1.381-0.308
		c-1.988-7.979-3.378-16.174-6.168-23.861c-1.94-5.346-5.948-7.248-11.034-1.985c-4.876,5.046-10.52,9.341-15.58,14.222
		c-7.591,7.322-6.337,20.437,2.215,26.404c3.128,2.183,7.031,4.12,8.805,7.193c3.424,5.931,7.655,4.236,12.326,2.954
		c5.257-1.442,8.25-4.468,8.084-10.218C197.144,249.574,197.254,244.771,197.254,239.97z"/>
</g>
<g id="text">
</g>
<g id="guides">
</g>
<g id="scratch" display="none">
</g>
</svg>
