<?xml version="1.0" encoding="iso-8859-1"?>
<!-- Generator: Adobe Illustrator 28.3.0, SVG Export Plug-In . SVG Version: 6.00 Build 0)  -->
<svg version="1.2" baseProfile="tiny" xmlns="http://www.w3.org/2000/svg" xmlns:xlink="http://www.w3.org/1999/xlink" x="0px"
	 y="0px" viewBox="0 0 600 600" overflow="visible" xml:space="preserve">
<g id="bg" display="none">
</g>
<g id="scans" display="none">
</g>
<g id="icons">
	<g>
		<path id="path5091-3" d="M138.22,268.19h40.12l13.012-39.035l13.012,39.035l39.035,1.084l-31.445,24.939l10.843,40.12
			l-32.529-23.855l-32.529,22.771l11.927-39.035L138.22,268.19z"/>
		<image width="552" height="534" id="path5093-4" xlink:href="6EF8E6F0.png"  transform="matrix(0.24 0 0 0.24 240 216)">
		</image>
		<path id="path3076" d="M365.926,268.19h40.12l13.012-39.035l13.012,39.035l39.035,1.084l-31.445,24.939l10.843,40.12
			l-32.529-23.855l-32.529,22.771l11.927-39.035L365.926,268.19z"/>
		<path id="path3846" d="M236.893,150c-1.084,0-2.169,0-3.253,1.084C95.932,194.457,56.897,275.78,81.836,350.598
			c24.939,73.733,116.022,98.673,217.947,56.384c101.925,42.288,193.008,17.349,217.947-56.384
			c24.939-74.818-14.096-156.141-151.804-199.514c-1.084,0-2.169,0-3.253-1.084c110.6,43.373,155.057,124.696,132.286,188.671
			c-21.686,60.722-87.829,79.155-171.321,55.3c11.927-8.674,20.602-19.518,29.276-33.614c-15.18,9.759-22.771,13.012-41.204,20.602
			c-4.337,2.169-8.674,3.253-13.012,4.337c-4.337-1.084-8.674-3.253-11.927-4.337c-18.433-7.59-26.024-10.843-41.204-20.602
			c8.674,14.096,17.349,24.939,29.276,33.614c-82.408,23.855-148.551,5.422-170.237-55.3C82.92,274.696,126.293,192.288,236.893,150
			L236.893,150z"/>
	</g>
</g>
<g id="text">
</g>
<g id="guides">
</g>
<g id="scratch" display="none">
</g>
</svg>
