<?xml version="1.0" encoding="iso-8859-1"?>
<!-- Generator: Adobe Illustrator 28.3.0, SVG Export Plug-In . SVG Version: 6.00 Build 0)  -->
<svg version="1.2" baseProfile="tiny" xmlns="http://www.w3.org/2000/svg" xmlns:xlink="http://www.w3.org/1999/xlink" x="0px"
	 y="0px" viewBox="0 0 600 600" overflow="visible" xml:space="preserve">
<g id="bg" display="none">
</g>
<g id="scans" display="none">
</g>
<g id="icons">
	<g>
		<polygon fill="#231F20" points="112.627,301.28 112.933,301.28 113.112,301.533 113.468,301.28 484.94,301.28 484.94,300.446 
			486.076,301.277 520.602,254.115 504.71,242.478 476.608,280.866 122.588,280.866 94.657,241.607 78.612,253.039 112.627,300.851 
					"/>
		<polygon fill="#231F20" points="484.94,367.751 484.94,366.897 113.476,366.897 113.112,366.637 112.928,366.897 112.627,366.897 
			112.627,367.32 78.612,415.132 94.657,426.564 122.583,387.311 476.597,387.311 504.71,425.692 520.602,414.056 486.076,366.919 
					"/>
		<g>
			<path fill="#231F20" d="M335.44,272.318l59.13-23.673l-24.611,57.248l59.29,23.673l-59.29,23.673l24.611,57.248l-59.13-23.673
				l-24.451,57.248l-24.451-57.248l-59.129,23.673l24.45-57.248l-59.129-23.673l59.129-23.673l-24.45-57.248l58.97,23.673
				l24.61-57.248L335.44,272.318z"/>
		</g>
	</g>
</g>
<g id="text">
</g>
<g id="guides">
</g>
<g id="scratch" display="none">
</g>
</svg>
