<?xml version="1.0" encoding="iso-8859-1"?>
<!-- Generator: Adobe Illustrator 28.3.0, SVG Export Plug-In . SVG Version: 6.00 Build 0)  -->
<svg version="1.2" baseProfile="tiny" xmlns="http://www.w3.org/2000/svg" xmlns:xlink="http://www.w3.org/1999/xlink" x="0px"
	 y="0px" viewBox="0 0 600 600" overflow="visible" xml:space="preserve">
<g id="bg" display="none">
	<rect x="-2325" y="-75" display="inline" fill="#CCCCCC" width="3750" height="1500"/>
</g>
<g id="scans" display="none">
</g>
<g id="icons">
	<path id="cav" d="M474.489,261.596c37.095,20.686,75.715,8.611,29.067-27.754c-12.962-14.922-22.287-29.47-40.462-38.611
		c-5.202-5.066-9.025,4.487-13.542,6.468c-25.688,6.254-65.365,50.129-83.556,15.685c-12.138-11.787-12.912-31.701-21.058-46.22
		c-2.736-14.201,8.183-29.576,3.208-44.275c-2.092-12.261-19.563-21.472-28.333-8.157c-11.951,13.489,1.144,36.813-20.228,46.156
		c-26.425,16.716-20.319,54.206-28.406,77.346c-40.595,41.401-106.74,15.024-146.105,52.281
		c-22.254,11.044-69.053,68.013-32.041,81.327c15.88-5.624,33.98-14.914,40.023-31.529c5.581-0.214,3.957-9.67,10.771-8.443
		c0.324,0.058,1.095-1.133,1.295-1.849c3.989-5.349,15.675-17.107,22.109-14.891c2.019,1.513,3.175,3.778-0.5,5.225
		c-0.408,6.604,0.117,14.555-0.434,21.602c0.165,13.308-11.567,24.052-24.092,25.396c-26.369,3.879-22.548,30.543-38.461,45.911
		c-7.652,7.222-14.893,14.875-24.792,19.366c-12.801,14.366,8.873,16.796,17.417,7.282c26.615-35.362,50.483-53.013,99.2-48.867
		c8.182-1.796,26.086-7.24,27.607,5.351c-3.735,36.028,45.243,45.104,45.581,82.219c2.272,7.132,16.673,6.173,16.177-1.619
		c-4.951-17.983-19.42-34.018-33.864-45.759c-5.196-47.474,21.298-46.078,58.972-39.571c33.126-4.733,56.885,13.426,84.472,26.932
		c48.479,4.309,37.18,41.199-1.349,51.453c-12.695,5.393-0.165,19.985,8.011,10.607c13.052-12.322,29.308-19.505,43.057-32.511
		c8.304-7.045,4.965-23.842,20.747-20.092c25.077,3.273,28.244,31.782,39.328,48.128c0.407,15.36,25.339,4.445,11.994-6.078
		c-16.606-19.904-25.939-47.23-46.594-63.257c-9.516-5.443-24.527-5.134-26.399-18.906
		C458.687,363.987,435.836,262.615,474.489,261.596z"/>
</g>
<g id="text">
</g>
<g id="guides">
</g>
<g id="scratch" display="none">
</g>
</svg>
