<?xml version="1.0" encoding="iso-8859-1"?>
<!-- Generator: Adobe Illustrator 28.3.0, SVG Export Plug-In . SVG Version: 6.00 Build 0)  -->
<svg version="1.2" baseProfile="tiny" xmlns="http://www.w3.org/2000/svg" xmlns:xlink="http://www.w3.org/1999/xlink" x="0px"
	 y="0px" viewBox="0 0 600 600" overflow="visible" xml:space="preserve">
<g id="bg" display="none">
</g>
<g id="scans" display="none">
</g>
<g id="icons">
	<path d="M506.165,359.986c11.016,60.08-10.499,111.661-43.231,159.858c-7.116,10.466-43.781,4.166-52.097-11.416
		c-7.783-14.583-16.833-10.483-25.899-7.001c-22.315,8.567-39.248,20.75-68.996,7.034c-18.932-8.733-52.797-7.8-79.413-2.316
		c-22.416,4.616-45.098-3.65-67.963,5.45c-8.666,3.45-24.615-5.667-34.781-12.667C94.32,471.763,80.12,417.25,99.569,373.435
		c20.082-45.264,21.016-45.631,55.43-7.582c9.666,10.683,16.666,23.732,25.349,35.348c2.267,3.017,6.849,7.1,9.416,6.516
		c5.05-1.15,2.717-6.983,2.817-10.85c0.267-9.816,0.083-19.649,0.083-29.465c-2.617-51.198,16.749-91.779,56.147-124.811
		c16.616-13.933,34.981-27.915,43.214-49.964c0.967-2.583,5.283-6.016,7.5-5.65c5.966,0.983,6.166,6.616,6.233,11.616
		c0.267,18.949,0.367,37.898,0.8,56.847c0.117,4.666-1.15,10.65,4.733,12.782c7.6,2.767,9.3-4.216,12.016-8.749
		c10.033-16.816,13.683-35.248,11.4-54.464c-3.833-32.298,4.267-62.53,14.499-92.512c0.6-1.8,1.783-3.383,2.7-5.067
		c0.117,2.033,0.666,4.133,0.316,6.066c-9.916,55.53,18.999,94.778,53.897,132.393c15.683,16.9,25.649,38.198,34.632,59.531
		c1.633,3.866,2.217,9.033,7.45,8.699c6.616-0.416,6.616-6.383,6.666-11.15c0.333-28.565-5.566-55.197-21.432-79.762
		c-26.748-41.398-41.914-85.463-24.148-134.977c1.816-5.05,5.733-13.216,8.716-13.233c7.6-0.05,4.366,8.35,5.6,13.083
		c4.883,18.749,13.866,36.565,26.882,49.331c51.048,50.081,39.698,105.062,19.232,163.392c-5.883,16.799-30.482,24.998-21.099,48.18
		c1.967,4.85-0.433,11.616,6.433,14.149c7.316,2.717,11.866-1.749,16.183-6.649c1.383-1.567,3.2-2.8,4.433-4.466
		c7.316-9.9,14.516-19.866,21.765-29.815c2.933,12.582,6.4,25.066,8.733,37.764V359.986z M160.2,298.873
		c-1.783-3.533-3.967-6.9-5.283-10.6c-20.599-57.88-10.216-140.043,70.513-160.658c14.982-3.833,30.115-11.749,36.215-28.899
		c0.6-1.7,3.633-4.266,3.733-4.183c6.599,5.25-2.067,11.749-1.684,12.182c6.333,31.932,14.683,58.564-5.7,83.462
		c-8.916,10.883-18.099,21.182-29.132,29.266c-25.682,18.815-48.398,39.864-62.197,69.196c-1.717,3.617-4.283,6.816-6.45,10.216
		L160.2,298.873z M378.122,383.769c9.666-2.351,3.233-11.667,5.45-17.9c-1.65-7.682-0.483-16.265-6.266-23.115
		c-8.366,8.616-3.383,20.199-6.566,30.081c-1.683,5.267-0.55,12.867,7.4,10.934H378.122z"/>
</g>
<g id="text">
</g>
<g id="guides">
</g>
<g id="scratch" display="none">
</g>
</svg>
