<?xml version="1.0" encoding="iso-8859-1"?>
<!-- Generator: Adobe Illustrator 28.3.0, SVG Export Plug-In . SVG Version: 6.00 Build 0)  -->
<svg version="1.2" baseProfile="tiny" xmlns="http://www.w3.org/2000/svg" xmlns:xlink="http://www.w3.org/1999/xlink" x="0px"
	 y="0px" viewBox="0 0 600 600" overflow="visible" xml:space="preserve">
<g id="bg" display="none">
</g>
<g id="scans" display="none">
</g>
<g id="icons">
	<g>
		<polygon points="231.885,288.217 194.714,288.217 182.7,246.934 170.686,288.217 133.497,288.217 163.588,312.55 151.777,353.057 
			182.7,328.03 213.66,353.066 201.794,312.55 		"/>
		<polygon points="349.089,288.217 311.919,288.217 299.904,246.934 287.89,288.217 250.701,288.217 280.792,312.55 
			268.981,353.057 299.904,328.03 330.864,353.066 318.998,312.55 		"/>
		<polygon points="466.293,288.217 429.123,288.217 417.108,246.934 405.094,288.217 367.905,288.217 397.996,312.55 
			386.185,353.057 417.108,328.03 448.068,353.066 436.202,312.55 		"/>
	</g>
</g>
<g id="text">
</g>
<g id="guides">
</g>
<g id="scratch" display="none">
</g>
</svg>
