<?xml version="1.0" encoding="iso-8859-1"?>
<!-- Generator: Adobe Illustrator 28.3.0, SVG Export Plug-In . SVG Version: 6.00 Build 0)  -->
<svg version="1.2" baseProfile="tiny" xmlns="http://www.w3.org/2000/svg" xmlns:xlink="http://www.w3.org/1999/xlink" x="0px"
	 y="0px" viewBox="0 0 600 600" overflow="visible" xml:space="preserve">
<g id="bg" display="none">
	<rect x="-1575" y="-75" display="inline" fill="#CCCCCC" width="3750" height="1500"/>
</g>
<g id="scans" display="none">
</g>
<g id="icons">
	<path id="inf" d="M462.019,111.324c-30.477-8.152-67.717,2.596-99.325-1.025c-29.748-3.408-56.754,1.56-85.86,1.44
		c-17.159-22.326-42.318-58.487-66.373-19.439c-8.239,13.373-12.611,24.3-23.699,35.424c-11.208,11.245-20.211,20.262-23.454,36.442
		c-3.102,15.476,1.026,33.105-3.759,48.175c-5.04,15.871-19.502,18.911-26.235,33.287c-7.592,16.211,1.839,29.907,1.019,45.433
		c-0.504,9.531-6.728,16.377-6.76,26.249c-0.02,6.051,3.874,11.763,4.176,17.751c0.81,16.036-8.159,30.276-8.795,46.218
		c-0.641,16.061-0.438,32.974-0.687,49.263c-0.35,22.845-6.561,69.762,13.706,85.71c5.728,4.507,32.026,15.282,36.295,3.219
		c2.923-8.261-8.716-15.232-11.704-22.278c-9.22-21.737,0.304-56.736,6.861-78.343c6.424-21.169,19.472-54.284,45.091-37.438
		c22.709,14.932,30.032,48.526,39.744,71.893c5.03,12.102,6.884,19.084,20.324,21.071c6.244,0.923,33.122-3.312,34.951-9.569
		c3.514-12.025-13.832-13.043-20.892-18.979c-9.815-8.252-9.822-18.691-12.114-30.421c-11.198-57.318-31.602-117.394-30.391-176.091
		c0.201-9.747,0.92-33.144,9.53-38.471c9.376-5.801,27.327,4.497,38.175,0.52c20.409-7.482,28.146-35.379,41.23-50.152
		c19.71-22.255,64.143-17.442,91.577-18.386c9.521-0.327,43.83,3.496,50.836-4.59C485.67,116.485,470.644,113.631,462.019,111.324z"
		/>
</g>
<g id="text">
</g>
<g id="guides">
</g>
<g id="scratch" display="none">
</g>
</svg>
