<svg xmlns="http://www.w3.org/2000/svg" xml:space="preserve" baseProfile="tiny" overflow="visible" version="1.2" viewBox="0 0 600 600"><path fill="none" d="M0 0h600v600H0z"/><path d="M525 360.585c-.916 14.206-12.09 34.335-13.007 48.541l-.135-.234-.258.447h-51.574l.3-.519-80.24-138.979h-160.48l-80.24 138.979.3.52H88.094l-.06-.105-.027.046-.009-.109-.203-.352.151-.261c-1.233-14.16-12.044-33.85-12.945-47.818 12.547-6.204 35.005-6.686 47.884-12.699l.595-1.03c-1.233-14.16-12.044-33.85-12.945-47.818 12.547-6.204 35.005-6.686 47.884-12.699l.595-1.03c-1.233-14.16-12.044-33.85-12.945-47.818 12.761-6.31 35.78-6.697 48.541-13.007l-.311.538h.209c11.365-8.46 22.73-26.94 34.095-34.516 11.365 7.577 22.73 26.056 34.095 34.516h2.879c11.365-8.46 22.73-26.94 34.095-34.516 11.365 7.577 22.73 26.056 34.095 34.516h2.879c11.365-8.46 22.73-26.94 34.095-34.516 11.365 7.577 22.73 26.056 34.095 34.516h.954l-.4-.693c12.761 6.31 35.78 6.697 48.541 13.007-.914 14.165-12.023 34.216-12.996 48.415l.104.179c12.783 6.257 35.703 6.662 48.427 12.953-.914 14.165-12.023 34.216-12.996 48.415l.104.179c12.783 6.256 35.702 6.661 48.426 12.952z"/></svg>