<svg xmlns="http://www.w3.org/2000/svg" xml:space="preserve" baseProfile="tiny" overflow="visible" version="1.2" viewBox="0 0 600 600"><path fill="none" d="M0 0h600v600H0z"/><path d="M280.893 311.649c-3.741 1.845-7.423 4.514-11.5 5.442-2.147.489-3.532 1.189-4.38 2.165-4.882 2.488-12.945 6.874-17.093 8.938l-5.114-6.82c-3.84 2.973-7.09 6.036-10.834 8.273-8.008 4.786-16.305 9.087-24.418 13.701-4.487 2.551-8.74 5.527-13.293 7.945-3.316 1.761-6.98 2.857-10.433 4.375-1.904.837-3.803 2.862-5.507 2.663-1.892-.221-4.267-1.988-5.2-3.739-3.646-6.845-11.162-7.919-16.839-11.552-5.429-3.474-10.391-14.198-7.01-19.793 3.315-5.488 2.135-10.849.239-16.061-1.047-2.877-3.257-5.118-7.454-3.796-3.654 1.151-7.685 1.104-11.596 1.592-4.209 11.136-5.432 12.275-2.306 26.11.411 1.818.783 4.067.07 5.605-.807 1.739-2.741 3.949-4.39 4.134-7.446.836-13.018 4.681-18.005 9.796-3.767 3.863-7.649 7.624-11.242 11.643-4.225 4.727-8.485 9.473-12.191 14.6-3.653 5.054-3.005 8.025 1.627 12.827 2.239 2.321 4.585 4.543 6.754 6.927.583.64.823 1.685 1 2.587 1.066 5.422-.735 7.284-6.545 10.472-2.771 1.521-6.32 5.533-5.977 7.904.51 3.519 3.623 7.261 6.627 9.654 3.124 2.489 6.252-.12 8.598-2.736 3.463-3.86 9.749-4.794 10.47-11.484l1.179.543c.306.925 1.015 1.927.855 2.764-1.28 6.71-1.2 14.284-4.479 19.865-4.77 8.12-5.923 15.735-5.941 25.07-.03 15.671-2.844 31.361-4.949 46.981-.345 2.561-2.597 5.434-4.791 7.039-2.992 2.19-6.8 3.246-10.194 4.919-.719.354-1.426 1.201-1.623 1.955-.105.402.916 1.596 1.391 1.575 5.498-.243 11.203 2.181 16.5-1.529 1.031-.722 3.396-.331 4.747.345 4.217 2.109 8.449.26 8.632-4.271.395-9.822.97-19.338 5.094-28.761 3.898-8.907 5.468-18.833 8.067-28.309.499-1.818.512-4.063 1.622-5.369 4.334-5.104 9.019-9.911 13.945-15.229 2.144 1.921 3.81 2.93 4.804 4.395 2.975 4.386 6.22 8.711 8.376 13.502 3.195 7.1 8.071 13.565 7.802 22.119-.136 4.313.654 9.264 2.77 12.915 4.707 8.122 4.963 16.782 4.468 25.487-.261 4.589 1.125 5.858 5.138 5.348 5.068-.644 9.698.303 14.008 3.118.832.543 2.202.601 3.237.412 1.417-.259 2.751-.97 4.121-1.487-.756-1.612-1.108-4.151-2.333-4.684-7.441-3.237-8.542-10.262-8.99-16.569-1.024-14.408-.793-28.902-1.246-43.356-.071-2.266-.812-4.602-1.676-6.731-1.125-2.773-3.399-5.236-3.928-8.067-2.102-11.238-3.659-22.577-5.54-33.858-.795-4.771-.192-9.023 3.431-12.935.703.877 1.381 1.397 1.62 2.073 1.244 3.528 3.539 5.229 7.313 4.318 3.569-.861 4.85-3.639 4.732-6.87-.225-6.179-.969-12.339-1.207-18.517-.188-4.878-.752-9.986.449-14.573.626-2.391 4.587-4.066 7.248-5.736 6.591-4.138 13.353-8.005 19.946-12.139 4.879-3.06 9.745-6.177 14.36-9.615 6.159-4.588 12.218-8.711 20.571-6.119 1.477.458 3.629-.546 5.229-1.352 2.928-1.475 5.75-3.197 8.473-5.029 1.62-1.09 5.424-2.763 7.095-4.091.154-.087.312-.17.467-.255 1.222-.41 1.917-.806 2.25-1.179 2.323-1.156 4.678-2.19 6.646-3.172 6.266-3.124 6.662-3.363 6.253-6.313zM113.48 391.888c-.56 1.88-2.699 3.869-4.591 4.566-1.209.445-3.45-1.126-4.877-2.242a42.785 42.785 0 0 1-6.063-5.782c-3.083-3.586-2.365-8.516 1.177-11.673a62.54 62.54 0 0 0 6.766-7.044c2.43-2.971 4.992-3.024 6.1.628 1.266 4.173 1.586 8.633 2.317 12.968l-.631.089c-.002 2.849.581 5.872-.198 8.49z"/></svg>