<svg xmlns="http://www.w3.org/2000/svg" xml:space="preserve" baseProfile="tiny" overflow="visible" version="1.2" viewBox="0 0 600 600"><path fill="none" d="M4.428 0h600v600h-600z"/><path fill="none" d="M4.428 0h600v600h-600z"/><path d="M392.974 524.993c-1.655.141-2.865-1.901-4.503-1.579-1.202.98-2.699-.52-4.03-.634-1.985-.239-6.007-.885-1.73-2.262 2.646-.684.892-1.392-.744-1.538-6.137-.639-3.392-1.884.515-3.284 1.103-.486-.226-.606-.744-.679-4.294-.283 3.299-3.46 4.531-2.736.489.088.868.432 1.363.421.777-.001 3.693-.982 1.458-1.308-3.695-.206-.552-1.873 1.16-2.102 2.062-.401 4.089.24 6.139.425 2.617.394 5.472-.266 7.983.495.52 1.225 1.827 1.51 3.055 1.598 4.271.66 8.557 1.674 12.835 2.081.493-.342-.188-1.152.66-1.427 1.835-1.427 1.908-4.356 2.474-6.478-.282-.833-1.044-1.091-.358-2.046.648-3.607.355-5.724 4.002-7.643.917-5.474-2.366-2.872-4.688-5.376-.521-.633-.948-.638-1.74-.662-.907.041-3.038-.635-2.275-1.855 1.334-2.503-4.555.6-5.655-1.183-.562-.698.174-1.227.297-1.897.085-2.283-5.52.367-5.959-3.113-.646-.805-4.976-.228-4.7-1.64.279-.721.957-1.62.654-2.48-1.401-1.104-6.096.849-6.494-1.745.008-.729.236-1.4-.424-1.938-2.58-1.202-5.899.002-8.524-1.321-.598-.265-3.837-2.37-3.092-3.056.216-.199 1.154-.084 1.186-.446-2.87-.982-6.58-.047-9.247-2.117-.647-.422-1.99-1.11-.851-1.879 1.784-1.944.055-2.609-1.777-2.862-2.116-.24-8.852-3.479-7.947-5.786 1.309-.484 3.372-1.171 2.803-3.006-.238-.743-1.307-.662-2.024-.808-2.695-.405-11.063-2.916-5.314-5.675 3.239-1.651 1.984-1.96-.031-3.789-1.719-1.59-3.122-3.813-2.748-6.242.196-.825 2.376-.283 2.924-.224 1.234.133 2.469.247 3.706.351 12.079 1.088 24.212 1.618 36.315.584 6.999-.023 19.193-3.352 21.438 5.918.907 5.961-1.903 13.808 3.757 18.008 4.537 3.439 5.386-2.24 6.406-5.505.652-2.049.266-4.168.708-6.251.018-.41-.316-.832-.19-1.191 2.882-1.601 2.96-5.079 4.55-7.685 4.562-6.559 18.756-7.494 23.105-.477.623.908-.458 6.329-1.546 6.268.354-4.838-5.351-1.772-5.703 1.1-.267 1.428.204 2.765.733 4.053-.025.266-.076.089-.151.26-1.247 1.459 2.024 5.43 2.965 6.817 1.294 1.704 2.506 5.896 5.239 5.155.292-.232.283-.636.53-.894.802-.428 1.602-.921 2.023-1.793 6.09-9.244-9.106-26.524 12.859-23.947 12.495 1.339 25.019 1.856 37.585 1.646 3.442.392 11.989-.892 14.098 1.539.303 3.665-3.042 6.035-6.096 7.171-2.899 2.435 7.66 5.168-2.772 7.277-6.66.188 1.524 5.557-1.37 8.088-2.608.91-5.51.618-8.21.353-.477-.041-1.865-.357-2.135.141-.491 1.497 1.328 3.348.576 4.799-2.304 2.268-6.957.248-9.623.175-1.087.411.268 3.06.044 3.926-1.022 2.251-4.402-.081-6.055.613-.714 1.337 1.666 4.154-1.414 3.679-3.72.314-6.654-3.286-3.868 2.894.353 2.012-2.79.744-3.859.915-.962.27-.016 2.898-.512 3.795-.667 1.605-2.913.085-4.193.107-2.534-.785.247 5.158-3.76 2.733-5.498-3.63-3.105 2.69-4.861 3.301-1.359.186-2.481-2.13-3.763-1.408-1.113.839-.782 2.802-1.682 3.646-1.469.066-2.385-1.107-2.393 1.336-.322 3.287-1.811 3.37.458 6.428.783 2.341.814 4.927 1.974 7.119-.16.698-1.199.034-1.617.242-.815.405 1.135 3.294 1.819 3.484 1.49.415 3.184-1.076 4.402-1.68 2.404-1.394 5.175-.337 7.696-.869 2.793-1.77.724 2.041-.175 2.823-1.509 1.315-.19.862.779 1.487.199.275.527 1.449 1.078.756.446-.561-.476-1.088-.687-1.5-.328-1.971 1.826-3.824 3.423-4.701 3.336-1.307 7.258.541 10.644-.577 1.671-.605 3.387-.642 5.155-.697 1.21.203 6.901-1.091 6.093.935-.132.318-.737 1.521-.387 1.817 3.5-.294 7.015.551 10.406 1.307.473.548-2.693 2.78-3.117 3.216-1.146 1.342 2.501.728 3.16.814 1.296.041-.068.637-.448.94-1.066 1.065-2.011 2.302-3.507 2.799-.951.335-3.941.993-1.721 1.97 2.668 1.547-4.629.675-5.316 1.104-1.718.467-3.345 1.318-5.175 1.312-6.569.56-6.845-3.213-9.429-.15-2.792 1.864-6.328.342-9.114-.646-3.089 1.547-6.734.655-9.805-.572-5.696-3.615-4.097 1.097-8.033-1.674-.642.164-1.046.952-1.812.885-.717.02-.7-.58-1.251-.734-.568-.158-1.261.532-1.78.665-3.576.488-1.391-2.766-4.148-1.658-1.97.606-4.326.411-6.132 1.199-.137.263.151.392-.203.517-.25.088-.586-.307-.827-.323-.343-.022-.249.08-.485.303-.687.647-.993-.234-1.432-.743-.131-.152-.35-.454-.54-.238-.139.159.143.528.181.687.064.272.126.728-.301.666-.498.036-1.289-2.549-1.597-1.574.631 2.821-.814.824-1.381-.405-1.147-1.313.335 2.265-.839 1.334-.549-.436-.66-1.607-1.432-1.764-.948-.193-.333 1.014-.227 1.439.246.992-.485.461-.848-.009-.173-.223-.917-1.537-1.184-.971-.157.334.47.937.306 1.305-.447.72-.986-.645-1.564-.232-.227.193-.533.192-.829.138-.998.687-1.323 2.416-2.89.783-1.263-1.669-1.472 1.766-2.954.615-.67-.42-1.011-1.348-1.832-.817-1.111 1.187-2.84.648-3.489-.757-.334-.714-.221-.971-1.114-.85-4.696.67-9.386 1.41-14.07 2.137-2.142.948-4.454.156-6.723.867-.539.101-1.278.173-1.559.716-.263.507.042 1.182-.377 1.632-1.595-.301-3.024-1.535-4.678-1.891-1.53-.48-.357 1.401-1.466 1.89zm57.469-10.357c-1.386-.041-3.265.039-3.613 1.709-.172.292-.571.705-.593 1.052-.03.455.435.327.523.659.086.328-.451.454-.567.677-.211.404.688 1.662 1.026 1.322.203-.204.207-1.205.238-1.479.146-1.28-.182-2.776 1.544-2.885 1.215-.075 5.132-.901 1.442-1.055z"/></svg>