<svg xmlns="http://www.w3.org/2000/svg" xml:space="preserve" baseProfile="tiny" overflow="visible" version="1.2" viewBox="0 0 600 600"><path fill="#FFF" d="M117.48 26.474h365.041v521.032H117.48V26.474zm131.709 290.542c-1.05-19.749-4.297-38.785-10.174-57.404-1.185-3.752-5.621-6.023-9.828-4.98-4.297 1.066-3.957 4.363-3.515 7.623.213 1.57.397 3.193.949 4.659 5.332 14.167 6.478 29.155 8.108 43.96.754 6.852.143 14.213-1.615 20.877-1.601 6.074-2.054 11.603-.601 17.624.894 3.703 1.429 7.683 1.102 11.449-.562 6.464-1.485 12.97-3.075 19.251-1.606 6.342.854 10.094 5.98 13.085 5.102 2.977 7.539 1.861 7.779-4.219.243-6.166-.174-12.356-.054-18.531.193-9.865.173-19.762 1.035-29.576.701-7.992 2.562-15.883 3.909-23.818zm124.374-153.88c-.283 11.41 1.393 22.863-2.853 34.095-1.133 2.997-.031 7.403 1.304 10.643 2.167 5.259 5.948 5.508 9.873 1.318 4.069-4.344 4.417-9.641 4.435-15.299.099-29.957-1.999-60.148 8.818-89.069 1.169-3.125 1.121-6.365-2.677-8.109-3.899-1.791-6.534.476-7.666 3.487-4.006 10.66-8.811 21.265-10.851 32.344-1.821 9.885-.383 20.37-.383 30.59zm-1.231-57.932c-2.206-2.489-3.895-6.076-6.174-6.501-2.367-.442-5.843 1.634-7.829 3.615-1.689 1.685-2.104 4.759-2.814 7.294-2.084 7.442-4.309 14.861-5.971 22.401-2.443 11.083-4.682 22.223-6.555 33.414-1.297 7.747-1.863 15.619-2.671 23.444-.123 1.189.126 2.445.365 3.637.694 3.463 1.205 6.997 2.308 10.332.744 2.249 2.368 4.206 3.599 6.294 1.625-2.156 3.37-4.237 4.812-6.51.506-.798.287-2.066.369-3.122.58-7.491.427-15.128 1.894-22.44 2.352-11.723 5.723-23.245 8.76-34.826 3.167-12.083 6.451-24.136 9.907-37.032zM221.591 94.265c2.37 7.327 4.361 14.261 6.917 20.98.948 2.493 3.893 4.242 4.783 6.739 5.432 15.24 10.471 30.62 15.807 45.896.912 2.612 2.157 5.46 4.12 7.232 1.393 1.257 4.826 1.917 6.359 1.064 6.202-3.452 6.938-11.321 2.757-16.894-2.681-3.573-4.903-7.73-6.326-11.963-4.41-13.12-7.951-26.541-12.635-39.556-2.049-5.694-5.548-11.101-9.41-15.797-1.651-2.007-5.898-2.33-9-2.44-1.035-.037-2.177 2.972-3.372 4.739zm76.917 85.51c-2.647-12.571-4.739-25.292-8.09-37.672-3.626-13.4-8.285-26.532-12.889-39.642-.594-1.69-3.652-3.643-5.396-3.491-1.836.16-4.022 2.409-5.004 4.294-.757 1.452-.153 3.819.307 5.664 2 8.028 4.258 15.991 6.259 24.019 4.076 16.354 8.156 32.709 11.986 49.122 1.032 4.421 3.274 6.59 7.704 6.049 5.161-.63 4.299-4.681 5.123-8.343zm91.172 300.178 1.96-.25c-.99-8.359-1.205-16.913-3.237-25.011-1.393-5.551-2.745-10.691-2.121-16.511.29-2.703-1.388-5.829-2.779-8.442-1.381-2.596-3.935-4.583-5.228-7.205-1.856-3.765-4.555-5.107-8.519-4.704-4.053.413-4.695 3.37-4.664 6.493.104 10.664 2.803 20.777 6.928 30.544 1.762 4.173 4.186 8.163 5.298 12.496 3.31 12.899 5.991 25.958 9.295 38.858.379 1.48 3.144 2.348 4.803 3.5.622-1.79 1.942-3.66 1.748-5.356-.938-8.163-2.284-16.279-3.484-24.412zm-83.789-28.143-1.373-.51c0-2.12.24-4.273-.05-6.352-.588-4.211-5.247-6.414-7.622-3.41-2.4 3.037-3.881 6.903-5.281 10.589-.85 2.239-.417 4.951-1.194 7.235-2.763 8.12-5.587 16.232-8.783 24.188-3.997 9.948-8.657 19.636-12.452 29.655-1.286 3.396-1.644 7.649-.843 11.148.522 2.281 3.647 4.645 6.113 5.49 1.079.369 4.261-2.637 5.064-4.672 5.813-14.722 11.362-29.551 16.773-44.426 2.035-5.594 3.379-11.437 5.23-17.103 1.305-3.999 2.934-7.892 4.418-11.832zm37.066-91.206c0-9.875.063-19.75-.04-29.623-.029-2.792-.002-5.8-1.016-8.296-.791-1.945-3.043-4.347-4.854-4.535-1.893-.197-4.904 1.53-5.871 3.276-1.545 2.789-2.533 6.3-2.49 9.489.271 20.096.777 40.191 1.521 60.275.112 3.017 1.449 6.215 2.978 8.897 1.933 3.391 5.438 4.089 7.756.79 1.878-2.673 3.212-6.364 3.212-9.604-.003-10.221-.743-20.442-1.196-30.669zm70.837-169.538-.902-.227c.112-1.936.742-4.035.198-5.765-.61-1.941-2.281-3.549-3.491-5.301-1.599 1.178-4.111 2.04-4.647 3.586-3.34 9.647-6.947 19.295-9.093 29.239-2.375 11.004-3.564 22.296-4.707 33.52-.582 5.719-.615 11.697.483 17.287.462 2.352 4.489 4.004 6.895 5.974 1.805-2.311 4.596-4.392 5.201-6.983 1.108-4.745.823-9.801 1.299-14.71a3781.607 3781.607 0 0 1 3.874-37.859c.166-1.551.887-3.037 1.283-4.571 1.221-4.726 2.408-9.46 3.607-14.19zm28.674-104.083c.08-1.229.575-2.632.151-3.652-.825-1.985-2.078-5.255-3.308-5.326-3.311-.191-7.81-2.217-9.734 2.624-1.546 3.888-2.53 7.995-3.895 11.959-2.797 8.123-6.002 16.121-8.436 24.349-2.276 7.694-4.219 15.556-5.31 23.482-.29 2.107 2.642 6.044 4.882 6.796 3.541 1.189 4.366-2.54 5.554-5.464 4.157-10.229 8.588-20.352 13.17-30.399 3.557-7.799 7.045-15.557 6.926-24.369zM231.083 206.505c-1.24-6.012-2.754-12.535-3.905-19.122-1.632-9.339-4.787-18.171-10.666-25.49-1.676-2.087-6.62-2.295-9.895-1.913-1.032.12-1.915 4.946-2.087 7.668-.097 1.521 1.503 3.102 2.167 4.727 1.926 4.717 4.365 9.329 5.511 14.237 2.245 9.61 3.777 19.387 5.548 29.106.574 3.151 1.858 5.253 5.532 5.04 3.512-.203 6.317-1.192 6.849-5.176.37-2.784.588-5.59.946-9.077zm52.706 102.451.915-.298c-1.714-7.234-3.023-14.607-5.422-21.606-.605-1.765-4.827-3.465-7.15-3.19-3.441.408-3.837 3.711-3.564 7.099.623 7.712 1.103 15.461 1.076 23.193-.022 6.146-1.068 12.282-1.288 18.435a28.164 28.164 0 0 0 1.112 8.772c1.255 4.29 4.671 6.236 8.981 5.765 4.277-.468 5.139-4.283 5.232-7.543.291-10.202.108-20.417.108-30.627zm-76.35-182.704c-1.511-5.47-2.185-10.298-4.148-14.527a382.143 382.143 0 0 0-14.257-27.703c-2.17-3.825-5.476-7.078-8.629-10.227-.973-.972-3.584-1.494-4.649-.867-1.174.69-2.168 3.049-1.951 4.486.624 4.121 1.295 8.427 3.038 12.15 4.399 9.398 9.355 18.537 14.169 27.737 2.157 4.122 4.251 8.321 6.892 12.126 1.1 1.585 4.677 3.524 5.188 3.078 1.944-1.696 3.097-4.3 4.347-6.253zm199.893 210.103 1.907-.254c-.294-5.787-.127-11.656-1.13-17.318-.357-2.015-3.556-3.527-5.457-5.268-1.8 2.048-3.885 3.922-5.28 6.217-.704 1.158-.077 3.083-.188 4.651-.607 8.568-2.07 17.173-1.65 25.688.377 7.65 2.735 15.213 4.36 22.784.737 3.434 3.243 5.286 6.594 4.658 1.858-.348 4.689-1.997 4.906-3.397.661-4.271.749-8.769.18-13.063-1.095-8.275-2.793-16.47-4.242-24.698zM209.179 460.821c.306 3.168.057 5.648.895 7.678.666 1.613 2.54 3.616 4.09 3.817 6.1.793 12.745-5.404 13.723-11.666.646-4.134 1.094-8.781 3.297-12.088 4.498-6.751 4.506-14.375 5.925-21.737.725-3.759-1.857-6.024-5.143-5.848-2.548.137-6.335 1.433-7.27 3.342-5.178 10.562-9.679 21.457-14.334 32.271-.683 1.589-.946 3.36-1.183 4.231zm133.596 13.842-1.763.43c.712 3.743 1.081 7.603 2.303 11.172.498 1.454 2.872 3.161 4.346 3.119 1.326-.038 3.139-2.082 3.79-3.638 5.836-13.944 1.428-27.701-1.183-41.445-.299-1.576-1.633-3.196-2.916-4.297-3.198-2.745-7.928-1.673-8.272 2.337-.581 6.767-.23 13.68.431 20.462.391 4.022 2.13 7.911 3.264 11.86zm17.152-109.907c.631 7.894.936 13.348 1.537 18.77.602 5.432 5.515 7.313 10.082 4.013 5.13-3.706 6.233-7.435 5.081-13.818-1.371-7.593-2.226-15.28-3.295-22.927-.195-1.394.071-3.049-.6-4.138-1.298-2.106-3.111-3.895-4.711-5.816-1.605 1.657-4.181 3.083-4.642 5.014-1.667 6.973-2.624 14.116-3.452 18.902zm-31.26-101.109c.922 2.741 2.067 7.967 4.494 12.508 1.057 1.977 4.747 2.547 7.242 3.756 1.132-2.398 3.177-4.771 3.241-7.197.298-11.277.021-22.569.007-33.856-.006-4.54-2.681-6.798-7.163-5.95-4.208.796-5.849 3.798-6.191 7.577-.621 6.861-.985 13.746-1.63 23.162zm97.63 190.934.889-.383c-1.904-4.642-4.135-9.183-5.626-13.954-1.667-5.331-2.673-10.87-3.946-16.323-.732-3.137-2.178-6.309-5.721-5.498-1.733.396-2.967 3.575-4.115 5.666-.549 1-.476 2.397-.505 3.619-.301 12.494-2.641 25.663 10.516 33.932 1.518.954 3.76 1.954 5.198 1.488 1.309-.425 2.209-2.725 2.86-4.369.498-1.254.325-2.775.45-4.178zm-144.471-47.863c.306-1.684.943-3.779 1.016-5.892.145-4.231-.085-8.473-.037-12.71.057-5.115.637-10.265.165-15.323-.176-1.888-2.697-5.032-4.118-5.015-2.799.033-7.377 1.226-8.048 3.084-2.776 7.693-4.676 15.757-6.15 23.822-.32 1.75 2 4.793 3.894 5.967 3.741 2.319 8.035 3.749 13.278 6.067zm-7.115 30.299c0-4.238.339-7.812-.134-11.275-.262-1.917-1.984-5.23-2.87-5.173-2.941.192-7.805.981-8.356 2.692-2.787 8.651-5.091 17.582-6.267 26.584-.771 5.902 2.106 7.779 8.53 8.075 5.207.24 7.718-1.699 8.402-7.337.573-4.717.51-9.512.695-13.566zm-13.146-202.224c-1.157 6.264-2.401 12.689 2.846 17.497 1.665 1.526 4.45 3.182 6.279 2.777 1.665-.369 3.655-3.337 3.907-5.358 1.54-12.378-.271-24.265-7.29-34.833-1.07-1.611-3.963-2.012-6.012-2.972-.781 2.294-2.348 4.645-2.187 6.871.389 5.37 1.586 10.682 2.457 16.018zm-62.15 279.153c1.497 2.345 2.675 6.331 5.257 7.734 3.88 2.108 8.417-1.132 10.638-6.233.421-.968.823-1.959 1.085-2.978 1.316-5.111 2.647-10.219 3.849-15.357 1.187-5.078-1.862-7.609-6.032-9.027-4.142-1.408-7.65.083-8.978 4.171-2.155 6.64-3.66 13.49-5.819 21.69zM372.932 284l-1.301-.477c-.667-7.861-1.176-15.742-2.139-23.566-.181-1.474-2.115-3.764-3.337-3.829-1.68-.089-3.89 1.213-5.073 2.601-1.427 1.673-2.016 4.062-2.97 6.14-3.594 7.821-2.546 16.314 3.57 22.315 1.77 1.737 5.252 2.588 7.795 2.329 1.324-.136 2.314-3.57 3.455-5.513zm47.393 222.51c.617 2.542 1.055 6.462 2.553 9.923 1.482 3.424 4.923 7.344 8.438 5.137 3.932-2.469 6.406-7.329 9.239-11.343.206-.292-1.823-2.164-2.814-3.3-1.227-1.407-3.156-2.638-3.556-4.249-1.289-5.197-4.963-6.89-9.451-6.348-5.383.65-3.637 5.462-4.409 10.18zm-161.239-18.755c-.961-6.131-3.986-8.246-8.136-8.899-4.221-.664-8.731.348-9.1 4.928-.404 5.016.553 10.461 2.273 15.231 1.415 3.924 6.028 4.335 8.568.861 2.915-3.985 4.698-8.798 6.395-12.121z"/><path d="M249.189 317.016c-1.347 7.936-3.208 15.826-3.91 23.819-.862 9.814-.842 19.711-1.035 29.576-.121 6.175.297 12.364.054 18.531-.24 6.08-2.677 7.196-7.779 4.219-5.126-2.991-7.586-6.743-5.98-13.085 1.59-6.281 2.513-12.787 3.075-19.251.327-3.767-.208-7.746-1.102-11.449-1.453-6.021-1-11.55.601-17.624 1.757-6.665 2.369-14.025 1.615-20.877-1.63-14.805-2.776-29.793-8.108-43.96-.552-1.466-.736-3.089-.949-4.659-.442-3.26-.782-6.557 3.515-7.623 4.207-1.043 8.643 1.227 9.828 4.98 5.878 18.617 9.126 37.653 10.175 57.403zM373.563 163.136c0-10.22-1.438-20.705.383-30.589 2.04-11.079 6.846-21.684 10.851-32.344 1.132-3.012 3.767-5.278 7.666-3.487 3.798 1.744 3.846 4.984 2.677 8.109-10.817 28.92-8.719 59.112-8.818 89.069-.019 5.658-.366 10.955-4.435 15.299-3.925 4.19-7.707 3.941-9.873-1.318-1.335-3.24-2.437-7.646-1.304-10.643 4.246-11.233 2.57-22.686 2.853-34.096zM372.332 105.204c-3.456 12.896-6.739 24.949-9.908 37.032-3.037 11.581-6.408 23.103-8.76 34.826-1.467 7.312-1.313 14.949-1.894 22.44-.082 1.056.138 2.324-.369 3.122-1.442 2.273-3.186 4.354-4.812 6.51-1.231-2.088-2.855-4.045-3.599-6.294-1.103-3.334-1.614-6.869-2.308-10.332-.239-1.192-.488-2.448-.365-3.637.807-7.825 1.374-15.697 2.671-23.444 1.873-11.191 4.112-22.331 6.555-33.414 1.662-7.54 3.887-14.959 5.971-22.401.71-2.535 1.125-5.609 2.814-7.294 1.987-1.982 5.462-4.057 7.829-3.615 2.28.425 3.968 4.012 6.175 6.501zM221.591 94.265c1.194-1.767 2.336-4.775 3.37-4.739 3.102.11 7.349.432 9 2.44 3.863 4.696 7.361 10.103 9.41 15.797 4.684 13.014 8.225 26.436 12.635 39.556 1.423 4.233 3.645 8.39 6.326 11.963 4.181 5.573 3.445 13.442-2.757 16.894-1.532.853-4.966.193-6.359-1.064-1.963-1.772-3.208-4.621-4.12-7.232-5.336-15.275-10.375-30.655-15.807-45.896-.89-2.497-3.834-4.246-4.783-6.739-2.554-6.719-4.545-13.653-6.915-20.98zM298.508 179.775c-.824 3.662.039 7.713-5.122 8.343-4.431.541-6.673-1.628-7.704-6.049-3.83-16.413-7.911-32.768-11.986-49.122-2.001-8.028-4.258-15.991-6.259-24.019-.46-1.845-1.063-4.212-.307-5.664.982-1.884 3.168-4.134 5.004-4.294 1.744-.152 4.803 1.801 5.396 3.491 4.604 13.11 9.262 26.242 12.889 39.642 3.35 12.38 5.442 25.101 8.089 37.672zM389.68 479.953c1.201 8.133 2.546 16.249 3.483 24.413.195 1.696-1.126 3.566-1.748 5.356-1.659-1.152-4.424-2.02-4.803-3.5-3.304-12.9-5.986-25.96-9.295-38.858-1.112-4.333-3.536-8.323-5.298-12.496-4.125-9.766-6.824-19.88-6.928-30.544-.03-3.123.611-6.08 4.664-6.493 3.964-.404 6.663.938 8.519 4.704 1.293 2.622 3.847 4.61 5.228 7.205 1.39 2.613 3.068 5.738 2.779 8.442-.624 5.82.728 10.96 2.121 16.511 2.032 8.098 2.247 16.651 3.237 25.011l-1.959.249zM305.891 451.81c-1.484 3.94-3.113 7.833-4.419 11.831-1.851 5.667-3.195 11.509-5.23 17.103-5.411 14.876-10.96 29.705-16.773 44.426-.804 2.035-3.985 5.042-5.064 4.672-2.466-.844-5.591-3.208-6.113-5.49-.801-3.499-.443-7.753.843-11.148 3.795-10.019 8.455-19.707 12.452-29.655 3.196-7.956 6.02-16.068 8.783-24.188.777-2.284.344-4.996 1.194-7.235 1.4-3.687 2.881-7.553 5.281-10.589 2.374-3.004 7.033-.801 7.622 3.41.29 2.079.05 4.232.05 6.352l1.374.511zM342.956 360.607c.453 10.224 1.194 20.445 1.194 30.666 0 3.24-1.334 6.93-3.212 9.604-2.317 3.299-5.823 2.601-7.756-.79-1.529-2.682-2.866-5.88-2.978-8.897a2572.07 2572.07 0 0 1-1.521-60.275c-.043-3.189.945-6.7 2.49-9.489.968-1.747 3.978-3.473 5.871-3.276 1.812.188 4.064 2.59 4.854 4.535 1.015 2.496.987 5.504 1.016 8.296.106 9.873.043 19.748.042 29.626zM413.794 191.066c-1.2 4.73-2.386 9.464-3.606 14.189-.396 1.534-1.116 3.02-1.283 4.571a3811.306 3811.306 0 0 0-3.874 37.859c-.477 4.909-.191 9.965-1.299 14.71-.605 2.591-3.396 4.672-5.201 6.983-2.406-1.97-6.433-3.622-6.895-5.974-1.098-5.59-1.066-11.568-.483-17.287 1.143-11.224 2.332-22.516 4.707-33.52 2.146-9.944 5.753-19.591 9.093-29.239.535-1.546 3.048-2.408 4.647-3.586 1.209 1.753 2.881 3.36 3.491 5.301.544 1.73-.086 3.829-.198 5.765l.901.228zM442.468 86.983c.119 8.812-3.369 16.57-6.926 24.37-4.582 10.047-9.013 20.17-13.17 30.399-1.188 2.923-2.013 6.653-5.554 5.464-2.24-.752-5.172-4.689-4.882-6.796 1.091-7.926 3.035-15.789 5.31-23.482 2.434-8.228 5.639-16.226 8.436-24.349 1.365-3.965 2.349-8.072 3.895-11.959 1.924-4.84 6.423-2.815 9.734-2.624 1.23.071 2.484 3.341 3.308 5.326.424 1.02-.071 2.422-.151 3.651zM231.083 206.505c-.358 3.487-.576 6.293-.948 9.078-.532 3.984-3.336 4.972-6.849 5.176-3.674.213-4.958-1.89-5.532-5.04-1.771-9.718-3.303-19.496-5.548-29.106-1.147-4.908-3.585-9.52-5.511-14.237-.663-1.625-2.263-3.206-2.167-4.727.173-2.722 1.055-7.548 2.087-7.668 3.276-.382 8.219-.174 9.895 1.913 5.88 7.319 9.034 16.151 10.666 25.49 1.152 6.586 2.666 13.109 3.907 19.121zM283.789 308.956c0 10.21.184 20.426-.107 30.628-.093 3.26-.954 7.076-5.232 7.543-4.31.471-7.726-1.475-8.981-5.765-.82-2.802-1.217-5.856-1.112-8.772.22-6.154 1.266-12.289 1.288-18.435.027-7.732-.454-15.481-1.076-23.193-.274-3.388.122-6.692 3.564-7.099 2.323-.275 6.545 1.425 7.15 3.19 2.399 6.999 3.709 14.372 5.422 21.606-.306.098-.611.198-.916.297zM207.439 126.252c-1.25 1.953-2.403 4.557-4.347 6.254-.511.446-4.087-1.493-5.188-3.078-2.641-3.805-4.735-8.003-6.892-12.126-4.814-9.201-9.77-18.339-14.169-27.737-1.742-3.723-2.414-8.028-3.038-12.15-.217-1.437.777-3.796 1.951-4.486 1.065-.626 3.676-.105 4.649.867 3.153 3.15 6.459 6.403 8.629 10.227a382.544 382.544 0 0 1 14.257 27.703c1.963 4.228 2.636 9.056 4.148 14.526zM407.332 336.355c1.448 8.228 3.147 16.423 4.242 24.697.568 4.294.481 8.792-.18 13.063-.217 1.4-3.048 3.049-4.906 3.397-3.35.628-5.856-1.223-6.594-4.658-1.625-7.571-3.983-15.135-4.36-22.784-.42-8.514 1.043-17.119 1.65-25.688.111-1.568-.516-3.493.188-4.651 1.394-2.294 3.48-4.169 5.28-6.217 1.901 1.742 5.1 3.253 5.457 5.268 1.003 5.661.836 11.53 1.13 17.318l-1.907.255zM209.179 460.821c.237-.872.5-2.642 1.184-4.231 4.654-10.815 9.156-21.71 14.334-32.271.936-1.909 4.722-3.205 7.27-3.342 3.286-.176 5.868 2.089 5.143 5.848-1.419 7.361-1.427 14.986-5.925 21.737-2.203 3.307-2.651 7.954-3.297 12.088-.978 6.262-7.623 12.459-13.723 11.666-1.549-.201-3.424-2.204-4.09-3.817-.839-2.03-.59-4.509-.896-7.678zM342.775 474.663c-1.133-3.949-2.873-7.838-3.265-11.859-.661-6.783-1.012-13.696-.431-20.462.344-4.01 5.074-5.082 8.272-2.337 1.282 1.101 2.616 2.721 2.916 4.297 2.612 13.744 7.019 27.502 1.183 41.445-.651 1.556-2.464 3.599-3.79 3.638-1.473.043-3.848-1.665-4.346-3.119-1.222-3.568-1.591-7.429-2.303-11.172l1.764-.431zM359.927 364.756c.828-4.786 1.784-11.929 3.452-18.902.462-1.931 3.037-3.356 4.642-5.014 1.6 1.921 3.413 3.709 4.711 5.816.671 1.089.405 2.744.6 4.138 1.069 7.647 1.924 15.334 3.295 22.927 1.152 6.383.049 10.112-5.081 13.818-4.568 3.3-9.481 1.419-10.082-4.013-.6-5.422-.906-10.876-1.537-18.77zM328.667 263.647c.645-9.417 1.009-16.302 1.629-23.163.342-3.779 1.983-6.781 6.191-7.577 4.482-.848 7.158 1.41 7.163 5.95.014 11.287.291 22.579-.007 33.856-.064 2.426-2.109 4.8-3.241 7.197-2.494-1.209-6.184-1.778-7.242-3.756-2.426-4.539-3.571-9.766-4.493-12.507zM426.297 454.581c-.125 1.403.047 2.923-.45 4.179-.651 1.644-1.551 3.944-2.86 4.369-1.437.466-3.679-.534-5.198-1.488-13.157-8.269-10.818-21.438-10.516-33.932.029-1.222-.044-2.619.505-3.619 1.148-2.091 2.382-5.27 4.115-5.666 3.543-.811 4.989 2.361 5.721 5.498 1.273 5.453 2.28 10.991 3.946 16.323 1.491 4.771 3.722 9.312 5.626 13.954l-.889.382zM281.826 406.718c-5.242-2.318-9.536-3.748-13.279-6.068-1.893-1.174-4.213-4.216-3.894-5.967 1.474-8.065 3.374-16.129 6.15-23.822.67-1.858 5.249-3.05 8.048-3.084 1.421-.017 3.942 3.127 4.118 5.015.472 5.058-.108 10.208-.165 15.323-.047 4.236.183 8.479.037 12.71-.072 2.114-.709 4.209-1.015 5.893zM274.711 437.017c-.186 4.053-.122 8.849-.695 13.567-.684 5.638-3.195 7.577-8.402 7.337-6.424-.296-9.301-2.173-8.53-8.075 1.176-9.002 3.48-17.933 6.267-26.584.551-1.712 5.415-2.501 8.356-2.692.886-.058 2.608 3.256 2.87 5.173.473 3.462.134 7.036.134 11.274zM261.565 234.793c-.871-5.336-2.068-10.648-2.458-16.018-.161-2.226 1.406-4.577 2.187-6.871 2.05.96 4.942 1.361 6.012 2.972 7.019 10.568 8.83 22.455 7.29 34.833-.251 2.021-2.241 4.989-3.907 5.358-1.829.405-4.614-1.251-6.279-2.777-5.246-4.808-4.001-11.233-2.845-17.497zM199.415 513.946c2.158-8.2 3.663-15.05 5.818-21.689 1.327-4.089 4.836-5.58 8.978-4.171 4.17 1.418 7.219 3.949 6.032 9.027-1.201 5.138-2.533 10.246-3.849 15.357-.262 1.019-.664 2.01-1.085 2.978-2.221 5.101-6.757 8.341-10.638 6.233-2.581-1.404-3.759-5.39-5.256-7.735zM372.932 284c-1.141 1.943-2.131 5.377-3.456 5.512-2.543.259-6.024-.592-7.795-2.329-6.116-6.001-7.163-14.493-3.57-22.315.955-2.078 1.543-4.466 2.97-6.14 1.184-1.388 3.393-2.689 5.073-2.601 1.222.064 3.156 2.354 3.337 3.829.963 7.825 1.472 15.705 2.139 23.566l1.302.478zM420.325 506.51c.772-4.718-.974-9.53 4.408-10.18 4.488-.542 8.162 1.151 9.451 6.348.4 1.611 2.329 2.843 3.556 4.249.991 1.136 3.02 3.008 2.814 3.3-2.833 4.014-5.306 8.874-9.239 11.343-3.515 2.207-6.955-1.714-8.438-5.137-1.497-3.461-1.935-7.381-2.552-9.923zM259.086 487.755c-1.697 3.323-3.48 8.136-6.395 12.121-2.54 3.474-7.153 3.063-8.568-.861-1.72-4.769-2.677-10.214-2.273-15.231.369-4.581 4.879-5.592 9.1-4.928 4.151.653 7.176 2.768 8.136 8.899z"/></svg>