<?xml version="1.0" encoding="iso-8859-1"?>
<!-- Generator: Adobe Illustrator 28.3.0, SVG Export Plug-In . SVG Version: 6.00 Build 0)  -->
<svg version="1.2" baseProfile="tiny" xmlns="http://www.w3.org/2000/svg" xmlns:xlink="http://www.w3.org/1999/xlink" x="0px"
	 y="0px" viewBox="0 0 600 600" overflow="visible" xml:space="preserve">
<g id="bg" display="none">
	<rect x="-75" y="-75" display="inline" fill="#CCCCCC" width="3750" height="1500"/>
</g>
<g id="scans" display="none">
</g>
<g id="icons">
	<path id="art" d="M524.992,214.256c-2.61-7.573,4.277-40.139-6.91-37.662c-49.507,3.663-99.098,6.45-148.569,10.53
		c-4.239,0.434-7.603-0.19-11.16-2.407c-17.078-10.647-35.722-17.387-55.69-19.227c-75.277-11.16-101.282,50.882-134.497,36.748
		c-2.616-0.292-5.77-1.037-7.844,0.05c-10,9.401-20.016-12.816-27.45,0.923c-5.18,12.835-5.935,97.026,21.707,71.143
		c-1.029,14.905-3.446,29.713-0.312,44.617c0.828,4.684-0.434,8.284-3.449,11.746c-22.665,26.472-46.105,52.36-68.184,79.305
		c-1.662,2.162-1.331,6.124-1.142,9.213c4.84,2.246,15.379,2.161,20.503-0.047c125.695-84.807,31.417-25.15,154.305,12.002
		c111.361,31.097,207.894-99.564,149.731-198.103c38.03-5.882,76.377-9.521,114.579-14.402
		C523.629,218.337,525.127,217.544,524.992,214.256z M183.779,285.476c1.9-22.952,6.035-18.469,26.275-22.492
		c-0.922,6.697-1.338,12.019-6.379,15.673C198.462,282.605,188.891,295.551,183.779,285.476z M198.018,358.002
		c22.16-11.941,42.702-23.01,63.244-34.079c0.37,0.476,0.741,0.951,1.111,1.427c-11.418,18.696-23.045,37.266-34.451,55.971
		C223.872,391.101,204.674,362.184,198.018,358.002z M276.826,399.878c-0.085,4.122-1.5,5.531-5.292,4.392
		c-5.317-3.417-34.477-5.977-29.81-13.63c12.672-19.04,22.968-39.614,36.796-57.727
		C278.508,355.728,277.144,377.227,276.826,399.878z M338.497,243.24c13.115-0.742,26.3-8.156,38.837-2.168
		c-10.891,8.848-23.233,12.978-35.049,20.21c-3.181,1.753-4.434,0.962-4.848-2.492C337.635,253.901,332.747,246.084,338.497,243.24z
		 M325.378,398.754c-6.292-0.304-33.076,11.865-32.46,2.347c1.727-22.521-0.487-45.98,3.129-67.937
		c11.416,19.758,21.016,38.911,31.909,58.699C330.045,395.653,329.422,397.823,325.378,398.754z M369.954,366.488
		c-8.529,7.322-15.126,15.927-24.744,22.011c-11.252-20.899-22.254-41.336-33.257-61.772c0.471-0.371,0.942-0.743,1.413-1.114
		c18.563,11.277,36.892,22.937,55.463,34.2C372.181,361.841,373.153,363.517,369.954,366.488z M392.3,316.434
		c-3.831,6.129-4.894,35.77-15.109,28.923c-19.054-12.368-38.196-23.233-57.203-35.846c23.367-0.234,44.501,1.075,67.549,1.356
		C391.775,310.936,393.483,312.348,392.3,316.434z M389.247,294.856c-22.767-1.496-45.832,0.069-68.318-2.979
		c8.552-2.501,66.806-41.864,65.495-29.961C386.231,268.264,398.777,295.315,389.247,294.856z"/>
</g>
<g id="text">
</g>
<g id="guides">
</g>
<g id="scratch" display="none">
</g>
</svg>
