<?xml version="1.0" encoding="iso-8859-1"?>
<!-- Generator: Adobe Illustrator 28.3.0, SVG Export Plug-In . SVG Version: 6.00 Build 0)  -->
<svg version="1.2" baseProfile="tiny" xmlns="http://www.w3.org/2000/svg" xmlns:xlink="http://www.w3.org/1999/xlink" x="0px"
	 y="0px" viewBox="0 0 600 600" overflow="visible" xml:space="preserve">
<g id="bg" display="none">
</g>
<g id="scans" display="none">
</g>
<g id="icons">
	<path d="M165.619,416.74c-4.347,0.37-7.524-4.991-11.825-4.147c-3.158,2.573-7.088-1.367-10.583-1.665
		c-5.212-0.627-15.776-2.325-4.544-5.941c6.949-1.796,2.343-3.656-1.954-4.038c-16.116-1.678-8.907-4.948,1.352-8.624
		c2.897-1.275-0.594-1.591-1.954-1.784c-11.277-0.744,8.665-9.086,11.899-7.184c1.285,0.232,2.278,1.134,3.581,1.105
		c2.04-0.004,9.699-2.578,3.829-3.436c-9.703-0.54-1.449-4.919,3.047-5.519c5.416-1.054,10.739,0.63,16.123,1.116
		c6.873,1.036,14.37-0.699,20.964,1.3c1.367,3.217,4.797,3.965,8.024,4.196c11.216,1.732,22.473,4.395,33.706,5.464
		c1.295-0.897-0.494-3.026,1.733-3.749c4.818-3.746,5.01-11.44,6.496-17.012c-0.74-2.188-2.741-2.866-0.941-5.373
		c1.702-9.472,0.932-15.033,10.51-20.073c2.409-14.376-6.214-7.543-12.313-14.119c-1.368-1.661-2.489-1.674-4.57-1.74
		c-2.382,0.108-7.979-1.669-5.975-4.872c3.502-6.574-11.962,1.577-14.852-3.106c-1.475-1.832,0.458-3.223,0.781-4.982
		c0.223-5.995-14.498,0.965-15.651-8.176c-1.695-2.113-13.068-0.599-12.343-4.307c0.733-1.893,2.514-4.256,1.718-6.514
		c-3.679-2.898-16.008,2.23-17.055-4.583c0.021-1.913,0.621-3.677-1.113-5.091c-6.775-3.156-15.493,0.006-22.387-3.469
		c-1.571-0.697-10.076-6.224-8.12-8.027c0.567-0.522,3.029-0.221,3.116-1.171c-7.537-2.58-17.28-0.123-24.285-5.56
		c-1.7-1.109-5.226-2.916-2.235-4.935c4.685-5.106,0.144-6.853-4.667-7.516c-5.556-0.63-23.248-9.137-20.869-15.194
		c3.437-1.272,8.856-3.075,7.362-7.894c-0.625-1.952-3.432-1.738-5.314-2.122c-7.078-1.063-29.053-7.657-13.954-14.903
		c8.506-4.335,5.21-5.146-0.083-9.951c-4.516-4.175-8.2-10.013-7.218-16.392c0.515-2.165,6.239-0.744,7.678-0.588
		c3.24,0.35,6.485,0.648,9.733,0.922c31.722,2.857,63.586,4.248,95.37,1.534c18.381-0.06,50.405-8.802,56.301,15.542
		c2.382,15.653-4.998,36.262,9.866,47.291c11.915,9.031,14.146-5.883,16.823-14.457c1.712-5.381,0.698-10.945,1.86-16.415
		c0.048-1.077-0.83-2.184-0.5-3.127c7.568-4.204,7.773-13.339,11.948-20.181c11.98-17.226,49.256-19.681,60.679-1.253
		c1.636,2.385-1.203,16.622-4.061,16.462c0.929-12.706-14.053-4.653-14.977,2.889c-0.701,3.75,0.536,7.261,1.925,10.643
		c-0.064,0.698-0.199,0.233-0.397,0.684c-3.274,3.832,5.315,14.259,7.786,17.902c3.398,4.475,6.58,15.483,13.76,13.537
		c0.766-0.608,0.743-1.669,1.391-2.348c2.105-1.124,4.207-2.418,5.313-4.71c15.993-24.276-23.914-69.656,33.77-62.888
		c32.815,3.517,65.705,4.874,98.706,4.322c9.039,1.029,31.486-2.343,37.025,4.042c0.795,9.626-7.988,15.849-16.01,18.832
		c-7.614,6.395,20.116,13.571-7.28,19.111c-17.491,0.494,4.003,14.593-3.599,21.239c-6.85,2.389-14.471,1.624-21.561,0.927
		c-1.254-0.107-4.898-0.938-5.608,0.371c-1.289,3.931,3.488,8.793,1.512,12.602c-6.051,5.956-18.27,0.65-25.272,0.459
		c-2.854,1.081,0.703,8.036,0.115,10.31c-2.684,5.911-11.561-0.213-15.902,1.611c-1.876,3.511,4.376,10.91-3.712,9.662
		c-9.768,0.825-17.475-8.63-10.158,7.601c0.927,5.285-7.328,1.955-10.136,2.404c-2.526,0.708-0.042,7.61-1.343,9.966
		c-1.752,4.215-7.649,0.223-11.012,0.28c-6.654-2.062,0.648,13.547-9.873,7.176c-14.44-9.534-8.154,7.065-12.766,8.67
		c-3.57,0.488-6.516-5.595-9.883-3.698c-2.924,2.202-2.053,7.359-4.418,9.574c-3.857,0.174-6.264-2.908-6.284,3.507
		c-0.846,8.632-4.755,8.85,1.202,16.881c2.057,6.149,2.139,12.939,5.184,18.696c-0.42,1.833-3.15,0.091-4.247,0.636
		c-2.139,1.064,2.98,8.65,4.778,9.15c3.914,1.089,8.362-2.826,11.561-4.412c6.314-3.662,13.592-0.885,20.21-2.282
		c7.335-4.649,1.902,5.361-0.46,7.415c-3.963,3.453-0.5,2.264,2.045,3.905c0.522,0.722,1.384,3.806,2.831,1.987
		c1.172-1.473-1.251-2.857-1.805-3.94c-0.862-5.177,4.796-10.042,8.989-12.344c8.761-3.432,19.06,1.42,27.953-1.515
		c4.388-1.589,8.895-1.685,13.538-1.831c3.178,0.533,18.124-2.866,16.001,2.455c-0.348,0.834-1.936,3.995-1.017,4.771
		c9.192-0.772,18.423,1.448,27.327,3.431c1.242,1.438-7.073,7.301-8.185,8.447c-3.009,3.524,6.569,1.911,8.299,2.136
		c3.405,0.107-0.18,1.673-1.176,2.469c-2.8,2.796-5.281,6.046-9.209,7.352c-2.497,0.88-10.35,2.607-4.519,5.174
		c7.008,4.063-12.156,1.772-13.961,2.899c-4.513,1.227-8.784,3.461-13.591,3.446c-17.253,1.47-17.976-8.437-24.763-0.394
		c-7.331,4.895-16.62,0.898-23.934-1.697c-8.112,4.063-17.683,1.721-25.75-1.503c-14.96-9.493-10.76,2.881-21.095-4.396
		c-1.687,0.43-2.748,2.499-4.759,2.324c-1.882,0.052-1.837-1.524-3.285-1.928c-1.492-0.416-3.312,1.397-4.676,1.747
		c-9.392,1.282-3.654-7.264-10.892-4.355c-5.174,1.593-11.36,1.08-16.104,3.15c-0.361,0.691,0.397,1.029-0.533,1.357
		c-0.656,0.232-1.54-0.807-2.172-0.848c-0.9-0.058-0.654,0.211-1.274,0.795c-1.805,1.699-2.607-0.615-3.76-1.951
		c-0.345-0.4-0.919-1.193-1.417-0.625c-0.366,0.416,0.376,1.387,0.474,1.804c0.168,0.715,0.33,1.911-0.791,1.749
		c-1.307,0.094-3.385-6.693-4.194-4.133c1.657,7.409-2.139,2.164-3.626-1.064c-3.012-3.448,0.878,5.948-2.203,3.503
		c-1.443-1.145-1.734-4.221-3.761-4.633c-2.489-0.506-0.873,2.663-0.597,3.778c0.646,2.604-1.274,1.212-2.227-0.023
		c-0.453-0.587-2.409-4.037-3.109-2.551c-0.413,0.876,1.235,2.461,0.803,3.426c-1.175,1.892-2.589-1.693-4.106-0.61
		c-0.596,0.507-1.4,0.504-2.176,0.363c-2.621,1.803-3.474,6.346-7.59,2.057c-3.317-4.384-3.867,4.637-7.759,1.616
		c-1.76-1.104-2.656-3.539-4.812-2.145c-2.916,3.116-7.458,1.701-9.164-1.988c-0.877-1.876-0.58-2.55-2.926-2.231
		c-12.332,1.761-24.65,3.703-36.95,5.613c-5.626,2.49-11.698,0.409-17.656,2.277c-1.415,0.264-3.355,0.454-4.095,1.881
		c-0.691,1.332,0.109,3.105-0.99,4.287c-4.19-0.791-7.942-4.032-12.286-4.966C165.449,410.515,168.531,415.456,165.619,416.74z
		 M316.542,389.539c-3.64-0.107-8.573,0.103-9.487,4.489c-0.452,0.766-1.499,1.851-1.558,2.762
		c-0.078,1.196,1.144,0.858,1.373,1.731c0.226,0.86-1.183,1.193-1.488,1.777c-0.554,1.062,1.807,4.365,2.695,3.472
		c0.533-0.536,0.543-3.165,0.625-3.885c0.383-3.362-0.479-7.291,4.054-7.577C315.946,392.113,326.233,389.945,316.542,389.539z"/>
</g>
<g id="text">
</g>
<g id="guides">
</g>
<g id="scratch" display="none">
</g>
</svg>
