<svg xmlns="http://www.w3.org/2000/svg" xml:space="preserve" baseProfile="tiny" overflow="visible" version="1.2" viewBox="0 0 600 600"><path fill="none" d="M0 0h600v600H0z"/><path d="m106.255 418.801 19.16-46.946-.881-6.463.794-8.891 2.788-5.064 7.899 2.817 5.809 4.641 5.859 1.85-.886-6.423-.453-5.763 4.126-.831 9.833 4.386 14.282 15.527s11.275 2.998 16.244 6.31c4.922 3.358 27.009 14.354 48.757 45.118 21.78 30.822 27.492 104.677 27.492 104.677s-32.315-8.071-55.75-7.425c-14.93.425-33.52 8.142-39.326 8.615-5.761.439-14.443-1.425-15.73-3.417-1.253-1.96 2.281-21.09 2.281-21.09s-7.252-3.254-13.299-6.815c-6.018-3.571-9.521-6.019-13.447-3.475-5.596 3.621-13.857 3.834-23.396.666-9.53-3.235-13.142-18.161-13.142-18.161l11.012-53.839-.026-.004zm38.972 66.857c5.067 2.762 15.853 2.804 15.853 2.804l6.44-29.815s10.392-6.263 15.439-13.718c4.975-7.412 6.222-18.504.946-20.21-5.339-1.727-5.703 10.674-10.16 15.397-4.415 4.715-10.787 10.95-23.234 10.326-10.092-.418-9.987 6.946-12.512 13.25-2.45 6.248-3.604 11.704-3.604 11.704s5.769 7.46 10.83 10.275l.002-.013zM288.416 416.292c18.812 2.404 37.695 4.196 56.423 7.092-28.641 48.524 18.894 112.866 73.733 97.553 60.514-18.295 14.088-47.672 75.985-5.91 2.524 1.087 7.713 1.129 10.096.023.093-1.521.256-3.472-.562-4.537-10.872-13.268-22.415-26.017-33.576-39.052-1.485-1.705-2.106-3.478-1.699-5.784 1.544-7.339.353-14.631-.153-21.971 13.612 12.746 13.241-28.713 10.69-35.033-3.661-6.766-8.593 4.175-13.517-.454-1.021-.535-2.574-.168-3.863-.024-16.356 6.96-29.162-23.591-66.231-18.096-9.833.906-19.014 4.225-27.424 9.468-1.751 1.092-3.408 1.399-5.495 1.186-24.361-2.009-48.782-3.382-73.161-5.185-5.509-1.22-2.117 14.817-3.403 18.546-.068 1.617.67 2.007 2.157 2.178zm156.07 29.533c-2.482-1.799-2.687-4.42-3.141-7.718 9.967 1.981 12.003-.227 12.939 11.076-2.518 4.961-7.231-1.414-9.798-3.358zm-11.94 50.555c-5.617-9.211-11.342-18.356-16.965-27.562l.547-.703 31.144 16.782c-3.278 2.06-12.732 16.3-14.726 11.483zm-24.916-23.837c6.809 8.92 11.88 19.051 18.12 28.427 2.298 3.768-12.061 5.029-14.68 6.712-1.868.561-2.564-.133-2.606-2.163-.157-11.154-.829-21.741-.834-32.976zm-29.013-36.502c-.204 1.701-.821 2.09-2.387 1.227-5.819-3.561-11.897-5.595-17.259-9.952 6.174-2.949 12.667.702 19.125 1.068 2.831 1.401.423 5.25.521 7.657zm4.669 65.531c5.364-9.745 10.091-19.176 15.713-28.906 1.781 10.812.69 22.365 1.541 33.455.303 4.687-12.886-1.305-15.985-1.156-1.991-.458-2.298-1.527-1.269-3.393zm-20.128-15.783c9.145-5.546 18.171-11.288 27.312-16.841l.696.549-16.377 30.419c-4.736-2.996-7.985-7.233-12.185-10.839-1.575-1.464-1.096-2.289.554-3.288zm-9.212-24.103c11.349-.138 21.756-.783 33.263-.668-9.36 6.211-18.786 11.562-28.169 17.652-5.03 3.372-5.554-11.225-7.44-14.243-.582-2.011.259-2.707 2.346-2.741zm.548-24.105c-.645-5.862 28.041 13.522 32.252 14.754-11.073 1.501-22.431.73-33.642 1.467-4.693.226 1.485-13.095 1.39-16.221z"/></svg>