<?xml version="1.0" encoding="iso-8859-1"?>
<!-- Generator: Adobe Illustrator 28.3.0, SVG Export Plug-In . SVG Version: 6.00 Build 0)  -->
<svg version="1.2" baseProfile="tiny" xmlns="http://www.w3.org/2000/svg" xmlns:xlink="http://www.w3.org/1999/xlink" x="0px"
	 y="0px" viewBox="0 0 600 600" overflow="visible" xml:space="preserve">
<g id="bg" display="none">
</g>
<g id="scans" display="none">
</g>
<g id="icons">
	<g>
		<polygon points="290.487,288.217 253.316,288.217 241.302,246.934 229.288,288.217 192.099,288.217 222.19,312.55 
			210.379,353.057 241.302,328.03 272.262,353.066 260.396,312.55 		"/>
		<polygon points="173.283,288.217 136.112,288.217 124.098,246.934 112.084,288.217 74.895,288.217 104.986,312.55 93.175,353.057 
			124.098,328.03 155.058,353.066 143.192,312.55 		"/>
		<polygon points="407.691,288.217 370.521,288.217 358.506,246.934 346.492,288.217 309.303,288.217 339.394,312.55 
			327.583,353.057 358.506,328.03 389.466,353.066 377.6,312.55 		"/>
		<polygon points="524.895,288.217 487.725,288.217 475.71,246.934 463.696,288.217 426.507,288.217 456.598,312.55 
			444.787,353.057 475.71,328.03 506.67,353.066 494.804,312.55 		"/>
	</g>
</g>
<g id="text">
</g>
<g id="guides">
</g>
<g id="scratch" display="none">
</g>
</svg>
