<svg xmlns="http://www.w3.org/2000/svg" xml:space="preserve" baseProfile="tiny" overflow="visible" version="1.2" viewBox="0 0 600 600"><path fill="none" d="M0 0h600v600H0z"/><path d="m76.251 527.002-.875-2.755c2.909-2.108 4.937-4.037 7.338-5.183 2.179-1.04 4.932-.824 5.657-4.026.453-2 1.876-3.852 2.035-5.837.887-11.063 1.644-22.14 2.194-33.224.339-6.821.161-13.607-.401-20.482-.434-5.31 3.968-10.876 5.515-16.521 2.188-7.986 3.75-16.144 5.501-24.246.14-.648-.321-1.427-.755-3.141-1.731 2.226-2.889 3.818-4.153 5.32-3.227 3.836-6.184 7.992-9.906 11.276-1.571 1.385-5.727 2.078-7.069 1.016-2.697-2.135-5.314-5.451-6.061-8.715-1.117-4.885 1.883-8.541 6.643-10.342 2.968-1.124 5.689-2.395 5.973-6.105.273-3.572-2.063-5.149-4.572-7.229-8.525-7.068-12.08-12.537-2.953-23.121 3.85-4.464 7.152-9.394 10.869-13.979 1.047-1.291 2.727-2.053 4.026-3.162.82-.7 1.637-1.498 2.174-2.417 3.981-6.808 9.651-11.624 17.449-12.896 8.512-1.388 11.539-6.179 7.758-14.235-3.788-8.071-.988-15.368 2.468-22.457.619-1.27 3.661-1.64 5.652-1.896 3.15-.405 6.495-1.002 9.508-.355 4.37.938 4.069 5.523 5.128 8.82.868 2.703 1.763 5.617 1.601 8.376a34.207 34.207 0 0 1-2.363 10.558c-1.743 4.348.267 7.393 3.141 9.567 3.403 2.574 7.638 4.017 11.279 6.32 2.759 1.745 5.519 3.751 7.636 6.196 5.06 5.846 7.041 6.049 13.653 1.802 4.756-3.054 10.073-5.221 14.963-8.085 6.001-3.514 11.771-7.419 17.727-11.013 8.614-5.197 17.304-10.267 25.883-15.344 6.194 6.138 6.194 6.138 4.194 12.009-1.612-.094-3.409.129-4.995-.349-7.497-2.26-12.128 2.853-17.421 6.433-6.69 4.525-13.504 8.864-20.205 13.374-4.941 3.325-9.784 6.796-14.673 10.197-.529.368-1.046.777-1.624 1.049-7.749 3.632-9.709 9.171-7.076 17.658 2.134 6.879 3.838 14.027 1.722 21.251-.555 1.894-2.29 4.648-3.716 4.798-2.101.221-4.551-1.309-6.58-2.54-1.242-.754-1.975-2.345-3.174-3.859-3.556 3.567-3.95 7.451-3.264 11.469 2.084 12.2 4.278 24.383 6.543 36.551.281 1.508.87 3.368 1.97 4.241 4.259 3.38 4.172 7.879 4.052 12.594-.085 3.321.204 6.658.441 9.979.274 3.852.686 7.693 1.016 11.541.672 7.829.419 15.89 2.325 23.404 1.208 4.76 5.648 8.691 8.589 13.027.815 1.201 1.453 2.522 2.172 3.788-1.335.124-2.711.518-3.996.32-3.217-.495-6.369-1.442-9.592-1.852-2.351-.299-4.806.209-7.152-.107-1.401-.188-3.728-1.124-3.849-1.976-.9-6.358-1.415-12.774-1.881-19.184-.072-.986.722-2.036-.046-2.305-1.683-2.337-4.128-4.452-4.89-7.059-1.609-5.499-2.38-11.248-3.414-16.909-.876-4.797-.989-9.505-4.527-13.799-3.775-4.582-5.829-10.54-9.09-15.605-1.569-2.437-4.107-4.293-6.385-6.199-.493-.412-2.159-.27-2.594.224-4.537 5.157-9.323 9.939-12.782 16.178-5.468 9.864-7.168 20.482-9.362 31.173-.778 3.793-3.402 7.187-4.994 10.845-.478 1.098-.422 2.475-.426 3.724-.015 4.821.148 9.644.046 14.463-.101 4.775-2.958 6.531-7.788 5.019-.443-.139-.96-.273-1.393-.18-6.019 1.293-12.035 2.629-18.844 4.129zm32.024-142.515.69-.154c-.994-3.989-1.689-8.087-3.084-11.931-.97-2.673-2.974-3.624-5.517-.992-2.438 2.523-5.26 4.671-7.79 7.111-3.795 3.661-3.169 10.218 1.107 13.202 1.564 1.091 3.515 2.06 4.403 3.597 1.712 2.965 3.828 2.118 6.163 1.477 2.628-.721 4.125-2.234 4.042-5.109-.069-2.399-.014-4.801-.014-7.201z"/></svg>