<svg xmlns="http://www.w3.org/2000/svg" xml:space="preserve" baseProfile="tiny" overflow="visible" version="1.2" viewBox="0 0 600 600"><path d="m87.414 280.154 21.65-53.049-.995-7.303.897-10.046 3.151-5.723 8.926 3.183 6.564 5.244 6.62 2.091-1.001-7.258-.511-6.512 4.663-.939 11.111 4.956 16.138 17.545s12.741 3.388 18.355 7.13c5.562 3.795 30.52 16.22 55.095 50.983 24.611 34.829 31.065 118.284 31.065 118.284s-36.516-9.121-62.996-8.39c-16.87.48-37.877 9.2-44.438 9.735-6.51.496-16.32-1.61-17.775-3.861-1.416-2.215 2.578-23.831 2.578-23.831s-8.195-3.677-15.028-7.701c-6.8-4.036-10.759-6.801-15.195-3.927-6.323 4.091-15.659 4.332-26.438.752C79.081 357.861 75 340.996 75 340.996l12.444-60.838-.03-.004zm44.039 75.548c5.726 3.121 17.913 3.169 17.913 3.169l7.277-33.691s11.742-7.077 17.446-15.501c5.622-8.375 7.031-20.91 1.069-22.837-6.033-1.952-6.444 12.062-11.48 17.398-4.989 5.328-12.189 12.373-26.255 11.668-11.404-.472-11.285 7.849-14.138 14.972-2.769 7.06-4.072 13.225-4.072 13.225s6.518 8.43 12.238 11.611l.002-.014zM293.255 277.319c21.257 2.716 42.595 4.741 63.757 8.014-32.365 54.832 21.351 127.538 83.317 110.234 68.381-20.673 15.92-53.869 85.862-6.679 2.852 1.228 8.716 1.276 11.409.026.105-1.719.29-3.923-.635-5.127-12.286-14.993-25.329-29.399-37.941-44.129-1.678-1.927-2.38-3.93-1.919-6.536 1.744-8.293.399-16.533-.173-24.827 15.382 14.403 14.962-32.445 12.079-39.587-4.137-7.645-9.71 4.718-15.274-.513-1.154-.604-2.909-.19-4.365-.028-18.482 7.865-32.953-26.658-74.841-20.448-11.111 1.024-21.486 4.775-30.988 10.699-1.979 1.234-3.851 1.581-6.21 1.34-27.528-2.27-55.123-3.821-82.671-5.859-6.225-1.379-2.392 16.743-3.845 20.957-.075 1.829.759 2.27 2.438 2.463zm176.358 33.372c-2.805-2.033-3.036-4.995-3.549-8.721 11.263 2.238 13.563-.256 14.621 12.515-2.845 5.607-8.171-1.597-11.072-3.794zm-13.492 57.127c-6.347-10.409-12.817-20.742-19.17-31.145l.618-.794 35.192 18.963c-3.704 2.328-14.387 18.418-16.64 12.976zm-28.155-26.936c7.695 10.079 13.424 21.527 20.475 32.122 2.597 4.258-13.629 5.683-16.588 7.584-2.11.634-2.898-.15-2.945-2.444-.176-12.604-.936-24.567-.942-37.262zm-32.785-41.246c-.23 1.922-.928 2.362-2.698 1.387-6.575-4.024-13.443-6.322-19.503-11.246 6.977-3.332 14.313.794 21.611 1.207 3.201 1.582.48 5.932.59 8.652zm5.277 74.048c6.061-11.011 11.403-21.669 17.756-32.663 2.012 12.218.78 25.272 1.741 37.804.343 5.297-14.561-1.475-18.063-1.306-2.251-.518-2.597-1.726-1.434-3.835zm-22.744-17.834c10.333-6.267 20.533-12.756 30.862-19.031l.786.62-18.506 34.373c-5.352-3.385-9.023-8.174-13.769-12.248-1.78-1.653-1.238-2.585.627-3.714zm-10.41-27.236c12.825-.156 24.585-.885 37.587-.754-10.576 7.019-21.228 13.065-31.83 19.947-5.684 3.81-6.276-12.684-8.408-16.094-.658-2.275.292-3.06 2.651-3.099zm.619-27.238c-.729-6.624 31.686 15.28 36.445 16.672-12.513 1.696-25.347.825-38.016 1.658-5.303.254 1.678-14.798 1.571-18.33z"/></svg>