<svg xmlns="http://www.w3.org/2000/svg" xml:space="preserve" width="600" height="600" baseProfile="tiny" overflow="visible" version="1.2"><path d="M308.951 385.591c-1.802 5.567-7.239 9.274-10.061 14.273-3.51 6.218-6.618 12.9-9.651 19.377-7.529 12.846-12.785 26.39-16.917 40.653-2.648 6.686-5.81 13.41-7.006 20.551-1.059 11.178 3.849 30.652-13.674 28.774-12.171-1.413-48.369 14.206-34.859-11.684 3.157-13.771-.097-29.138-.897-43.256-.156-33.728-1.704-67.316-4.518-100.919-1.927-24.654.385-49.816-4.839-74.041-1.951-7.683-2.278-15.448-.802-23.231 3.156-31.915 1.982-65.746-2.147-97.666-5.598-13.783-7.757-28.053-8.394-42.912-.516-9.863-1.614-20.658.878-30.197.705-1.917 2.516-7.638 4.254-8.907 2.622-1.914 12.363-1.805 15.11-.086 5.024 3.143 4.614 12.764 4.705 17.876-.883 16.203 3.998 33.555 1.578 49.661-6.087 15.642-2.002 33.234-2.222 49.692 2.906 16.999-7.569 83.873 20.909 76.556 3.07 7.103 10.473-7.529 13.439-9.811 3.571-3.5 14.705-9.608 13.551-16.178 3.616-.339 9.036-6.803 12.347-8.596 15.937-7.068 23.662-10.522 14.953-28.927-.934-4.725.513-8.336 1.541-12.936 2.49-15.357 7.824-26.135 25.847-22.458 6.865.384 8.554 3.571 10.956 9.29 4.644 11.057 8.885 21.349 2.442 32.098-12.277 20.544 23.639 24.328 35.095 33.237 6.996 8.356 11.968 19.074 17.727 28.427 7.378 8.319 11.065 18.125 14.97 28.317 6.72 12.36-3.156 24.458-10.153 34.56-7.089 10.235-12.985 18.69-23.445 25.564-13.831 6.882-9.097 15.731-7.323 28.259.86 12.736 2.813 25.438 4.001 38.148 3.057 24.397-8.113 49.967 2.714 73.32 3.059 6.537 12.616 18.37 1.48 21.981-7.529 2.442-12.627-3.122-18.246-6.854-4.646-3.085-9.77-2.383-12.078-8.02-2.338-5.712-.346-16.473-.384-22.669.082-14.226-4.75-27.477-6.51-41.454-.14-13.926-6.556-25.627-13.282-37.276-3.405-8.702-5.372-14.921-11.089-22.536zm-77.978 84.09c-.331 3.204-.854 21.577 5.627 18.092 4.866-2.617 4.608-18.616 5.852-23.234 3.707-15.295 1.409-31.154 7.984-45.866 2.32-8.395 2.124-17.166 3.496-25.707.906-5.644 3.931-8.814 6.237-13.675 3.147-6.634 4.113-14.153 6.447-21.055 2.541-7.517 5.985-13.743 4.618-21.892-1.287-7.679-5.364-13.984-3.828-22.048 1.166-6.122 2.447-10.913-.217-17.013-2.818-6.453-6.947-1.678-12.696.413-6.878 2.502-14.34 2.271-21.574 1.991-4.475-.173-4.203-2.372-6.968 2.071-3.213 8.945-.047 19.146-.431 28.321-.258 12.407 1.076 25.934 1.02 39.222 1.444 33.272 1.145 67.288 4.433 100.38zm150.363-159.583c-3.991-9.451-10.974-21.051-19.459-27.435-14.172-7.772-6.333 41.829-7.13 49.207.191 11.563 7.462-.705 11.251-3.369 1.874-1.323 3.896-1.155 5.781-2.741 2.219-1.866 9.831-12.322 9.557-15.662z"/></svg>