<svg xmlns="http://www.w3.org/2000/svg" xml:space="preserve" baseProfile="tiny" overflow="visible" version="1.2" viewBox="0 0 600 600"><path fill="none" d="M0 0h600v600H0z"/><path d="M305.967 440.067c-1.201 3.711-4.826 6.183-6.707 9.515-2.34 4.145-4.412 8.6-6.434 12.918-5.02 8.564-8.523 17.594-11.278 27.102-1.766 4.457-3.873 8.94-4.671 13.701-.706 7.452 2.566 20.434-9.116 19.182-8.114-.942-32.246 9.47-23.239-7.789 2.105-9.181-.065-19.425-.598-28.837-.104-22.486-1.136-44.877-3.012-67.28-1.285-16.436.257-33.21-3.226-49.361-1.301-5.122-1.519-10.298-.534-15.488 2.104-21.276 1.321-43.83-1.432-65.111-3.732-9.189-5.171-18.702-5.596-28.608-.344-6.575-1.076-13.772.585-20.131.47-1.278 1.677-5.092 2.836-5.938 1.748-1.276 8.242-1.203 10.073-.058 3.349 2.095 3.076 8.509 3.137 11.917-.589 10.802 2.665 22.37 1.052 33.107-4.058 10.428-1.334 22.156-1.481 33.128 1.937 11.332-5.046 55.915 13.939 51.038 2.047 4.735 6.982-5.019 8.959-6.54 2.381-2.334 9.803-6.405 9.034-10.785 2.411-.226 6.024-4.535 8.231-5.731 10.625-4.712 15.774-7.015 9.968-19.285-.623-3.15.342-5.558 1.027-8.624 1.66-10.238 5.216-17.423 17.231-14.972 4.577.256 5.703 2.381 7.304 6.194 3.096 7.372 5.923 14.233 1.628 21.398-8.185 13.696 15.76 16.218 23.397 22.158 4.664 5.571 7.979 12.716 11.818 18.952 4.919 5.546 7.376 12.083 9.98 18.878 4.48 8.24-2.104 16.305-6.768 23.04-4.726 6.823-8.656 12.46-15.63 17.043-9.22 4.588-6.065 10.487-4.882 18.839.573 8.49 1.875 16.958 2.667 25.432 2.038 16.265-5.409 33.312 1.81 48.88 2.039 4.358 8.411 12.247.987 14.654-5.019 1.628-8.418-2.082-12.164-4.569-3.097-2.057-6.514-1.589-8.052-5.347-1.559-3.808-.231-10.982-.256-15.113.054-9.484-3.167-18.318-4.34-27.636-.093-9.284-4.371-17.085-8.855-24.85-2.269-5.8-3.58-9.946-7.392-15.023zm-51.985 56.06c-.221 2.136-.569 14.385 3.752 12.061 3.244-1.744 3.072-12.411 3.901-15.49 2.471-10.197.939-20.769 5.323-30.577 1.547-5.597 1.416-11.444 2.33-17.138.604-3.763 2.621-5.876 4.158-9.117 2.098-4.423 2.742-9.435 4.298-14.037 1.694-5.011 3.99-9.162 3.079-14.595-.858-5.12-3.576-9.322-2.552-14.699.778-4.081 1.631-7.275-.145-11.342-1.879-4.302-4.631-1.119-8.464.276-4.585 1.668-9.56 1.514-14.383 1.327-2.983-.116-2.802-1.581-4.646 1.381-2.142 5.963-.031 12.764-.287 18.881-.172 8.271.717 17.289.68 26.148.964 22.182.764 44.86 2.956 66.921zm100.242-106.388c-2.661-6.3-7.316-14.034-12.973-18.29-9.448-5.182-4.222 27.886-4.753 32.805.127 7.709 4.974-.47 7.501-2.246 1.249-.882 2.597-.77 3.854-1.828 1.479-1.244 6.554-8.215 6.371-10.441z"/></svg>