<svg xmlns="http://www.w3.org/2000/svg" xml:space="preserve" baseProfile="tiny" overflow="visible" version="1.2" viewBox="0 0 600 600"><path d="M165.619 416.74c-4.347.37-7.524-4.991-11.825-4.147-3.158 2.573-7.088-1.367-10.583-1.665-5.212-.627-15.776-2.325-4.544-5.941 6.949-1.796 2.343-3.656-1.954-4.038-16.116-1.678-8.907-4.948 1.352-8.624 2.897-1.275-.594-1.591-1.954-1.784-11.277-.744 8.665-9.086 11.899-7.184 1.285.232 2.278 1.134 3.581 1.105 2.04-.004 9.699-2.578 3.829-3.436-9.703-.54-1.449-4.919 3.047-5.519 5.416-1.054 10.739.63 16.123 1.116 6.873 1.036 14.37-.699 20.964 1.3 1.367 3.217 4.797 3.965 8.024 4.196 11.216 1.732 22.473 4.395 33.706 5.464 1.295-.897-.494-3.026 1.733-3.749 4.818-3.746 5.01-11.44 6.496-17.012-.74-2.188-2.741-2.866-.941-5.373 1.702-9.472.932-15.033 10.51-20.073 2.409-14.376-6.214-7.543-12.313-14.119-1.368-1.661-2.489-1.674-4.57-1.74-2.382.108-7.979-1.669-5.975-4.872 3.502-6.574-11.962 1.577-14.852-3.106-1.475-1.832.458-3.223.781-4.982.223-5.995-14.498.965-15.651-8.176-1.695-2.113-13.068-.599-12.343-4.307.733-1.893 2.514-4.256 1.718-6.514-3.679-2.898-16.008 2.23-17.055-4.583.021-1.913.621-3.677-1.113-5.091-6.775-3.156-15.493.006-22.387-3.469-1.571-.697-10.076-6.224-8.12-8.027.567-.522 3.029-.221 3.116-1.171-7.537-2.58-17.28-.123-24.285-5.56-1.7-1.109-5.226-2.916-2.235-4.935 4.685-5.106.144-6.853-4.667-7.516-5.556-.63-23.248-9.137-20.869-15.194 3.437-1.272 8.856-3.075 7.362-7.894-.625-1.952-3.432-1.738-5.314-2.122-7.078-1.063-29.053-7.657-13.954-14.903 8.506-4.335 5.21-5.146-.083-9.951-4.516-4.175-8.2-10.013-7.218-16.392.515-2.165 6.239-.744 7.678-.588 3.24.35 6.485.648 9.733.922 31.722 2.857 63.586 4.248 95.37 1.534 18.381-.06 50.405-8.802 56.301 15.542 2.382 15.653-4.998 36.262 9.866 47.291 11.915 9.031 14.146-5.883 16.823-14.457 1.712-5.381.698-10.945 1.86-16.415.048-1.077-.83-2.184-.5-3.127 7.568-4.204 7.773-13.339 11.948-20.181 11.98-17.226 49.256-19.681 60.679-1.253 1.636 2.385-1.203 16.622-4.061 16.462.929-12.706-14.053-4.653-14.977 2.889-.701 3.75.536 7.261 1.925 10.643-.064.698-.199.233-.397.684-3.274 3.832 5.315 14.259 7.786 17.902 3.398 4.475 6.58 15.483 13.76 13.537.766-.608.743-1.669 1.391-2.348 2.105-1.124 4.207-2.418 5.313-4.71 15.993-24.276-23.914-69.656 33.77-62.888 32.815 3.517 65.705 4.874 98.706 4.322 9.039 1.029 31.486-2.343 37.025 4.042.795 9.626-7.988 15.849-16.01 18.832-7.614 6.395 20.116 13.571-7.28 19.111-17.491.494 4.003 14.593-3.599 21.239-6.85 2.389-14.471 1.624-21.561.927-1.254-.107-4.898-.938-5.608.371-1.289 3.931 3.488 8.793 1.512 12.602-6.051 5.956-18.27.65-25.272.459-2.854 1.081.703 8.036.115 10.31-2.684 5.911-11.561-.213-15.902 1.611-1.876 3.511 4.376 10.91-3.712 9.662-9.768.825-17.475-8.63-10.158 7.601.927 5.285-7.328 1.955-10.136 2.404-2.526.708-.042 7.61-1.343 9.966-1.752 4.215-7.649.223-11.012.28-6.654-2.062.648 13.547-9.873 7.176-14.44-9.534-8.154 7.065-12.766 8.67-3.57.488-6.516-5.595-9.883-3.698-2.924 2.202-2.053 7.359-4.418 9.574-3.857.174-6.264-2.908-6.284 3.507-.846 8.632-4.755 8.85 1.202 16.881 2.057 6.149 2.139 12.939 5.184 18.696-.42 1.833-3.15.091-4.247.636-2.139 1.064 2.98 8.65 4.778 9.15 3.914 1.089 8.362-2.826 11.561-4.412 6.314-3.662 13.592-.885 20.21-2.282 7.335-4.649 1.902 5.361-.46 7.415-3.963 3.453-.5 2.264 2.045 3.905.522.722 1.384 3.806 2.831 1.987 1.172-1.473-1.251-2.857-1.805-3.94-.862-5.177 4.796-10.042 8.989-12.344 8.761-3.432 19.06 1.42 27.953-1.515 4.388-1.589 8.895-1.685 13.538-1.831 3.178.533 18.124-2.866 16.001 2.455-.348.834-1.936 3.995-1.017 4.771 9.192-.772 18.423 1.448 27.327 3.431 1.242 1.438-7.073 7.301-8.185 8.447-3.009 3.524 6.569 1.911 8.299 2.136 3.405.107-.18 1.673-1.176 2.469-2.8 2.796-5.281 6.046-9.209 7.352-2.497.88-10.35 2.607-4.519 5.174 7.008 4.063-12.156 1.772-13.961 2.899-4.513 1.227-8.784 3.461-13.591 3.446-17.253 1.47-17.976-8.437-24.763-.394-7.331 4.895-16.62.898-23.934-1.697-8.112 4.063-17.683 1.721-25.75-1.503-14.96-9.493-10.76 2.881-21.095-4.396-1.687.43-2.748 2.499-4.759 2.324-1.882.052-1.837-1.524-3.285-1.928-1.492-.416-3.312 1.397-4.676 1.747-9.392 1.282-3.654-7.264-10.892-4.355-5.174 1.593-11.36 1.08-16.104 3.15-.361.691.397 1.029-.533 1.357-.656.232-1.54-.807-2.172-.848-.9-.058-.654.211-1.274.795-1.805 1.699-2.607-.615-3.76-1.951-.345-.4-.919-1.193-1.417-.625-.366.416.376 1.387.474 1.804.168.715.33 1.911-.791 1.749-1.307.094-3.385-6.693-4.194-4.133 1.657 7.409-2.139 2.164-3.626-1.064-3.012-3.448.878 5.948-2.203 3.503-1.443-1.145-1.734-4.221-3.761-4.633-2.489-.506-.873 2.663-.597 3.778.646 2.604-1.274 1.212-2.227-.023-.453-.587-2.409-4.037-3.109-2.551-.413.876 1.235 2.461.803 3.426-1.175 1.892-2.589-1.693-4.106-.61-.596.507-1.4.504-2.176.363-2.621 1.803-3.474 6.346-7.59 2.057-3.317-4.384-3.867 4.637-7.759 1.616-1.76-1.104-2.656-3.539-4.812-2.145-2.916 3.116-7.458 1.701-9.164-1.988-.877-1.876-.58-2.55-2.926-2.231-12.332 1.761-24.65 3.703-36.95 5.613-5.626 2.49-11.698.409-17.656 2.277-1.415.264-3.355.454-4.095 1.881-.691 1.332.109 3.105-.99 4.287-4.19-.791-7.942-4.032-12.286-4.966-4.008-1.256-.926 3.685-3.838 4.969zm150.923-27.201c-3.64-.107-8.573.103-9.487 4.489-.452.766-1.499 1.851-1.558 2.762-.078 1.196 1.144.858 1.373 1.731.226.86-1.183 1.193-1.488 1.777-.554 1.062 1.807 4.365 2.695 3.472.533-.536.543-3.165.625-3.885.383-3.362-.479-7.291 4.054-7.577 3.19-.195 13.477-2.363 3.786-2.769z"/></svg>