<svg xmlns="http://www.w3.org/2000/svg" xml:space="preserve" baseProfile="tiny" overflow="visible" version="1.2" viewBox="0 0 600 600"><path d="M246.39 75c19.531 4.868 16.151 27.809 18.681 43.264 5.708 16.076 96.303 15.39 115.011 14.775 11.225 3.332 84.883-27.182 79.473-14.918-9.229 28.7-7.356 59.402-9.14 89.148-2.055 62.354 30.388 117.941 45.034 176.997l-.939.751c-61.011-36.277-101.62-41.464-169.702-23.881-25.387.699-39.948-3.019-38.579-31.967-10.286-52.912-88.289 11.913-107.126 30.76 17.187 50.61 34.573 101.582 51.763 152.256 1.946 4.506.549 11.399-4.741 12.063-3.987.622-6.033-1.582-7.19-4.989C170.88 378.537 123.709 237.346 75 96.931V92.87c2.938-6.607 10.794-8.386 13.207-.291 22.169 7.183 78.124 12.647 99.991 3.948 19.236-7.026 37.05-21.116 58.192-21.527zM92.899 106.505l84.548 248.57 1.622-.248c-2.338-45.576-1.809-92.836-23.929-134.174-19.307-39.162-31.525-81.797-62.241-114.148z"/></svg>