<?xml version="1.0" encoding="iso-8859-1"?>
<!-- Generator: Adobe Illustrator 28.3.0, SVG Export Plug-In . SVG Version: 6.00 Build 0)  -->
<svg version="1.2" baseProfile="tiny" xmlns="http://www.w3.org/2000/svg" xmlns:xlink="http://www.w3.org/1999/xlink" x="0px"
	 y="0px" viewBox="0 0 600 600" overflow="visible" xml:space="preserve">
<g id="bg" display="none">
</g>
<g id="scans" display="none">
</g>
<g id="icons">
	<g>
		<g>
			<path d="M87.414,280.154l21.65-53.049l-0.995-7.303l0.897-10.046l3.151-5.723l8.926,3.183l6.564,5.244l6.62,2.091l-1.001-7.258
				l-0.511-6.512l4.663-0.939l11.111,4.956l16.138,17.545c0,0,12.741,3.388,18.355,7.13c5.562,3.795,30.52,16.22,55.095,50.983
				c24.611,34.829,31.065,118.284,31.065,118.284s-36.516-9.121-62.996-8.39c-16.87,0.48-37.877,9.2-44.438,9.735
				c-6.51,0.496-16.32-1.61-17.775-3.861c-1.416-2.215,2.578-23.831,2.578-23.831s-8.195-3.677-15.028-7.701
				c-6.8-4.036-10.759-6.801-15.195-3.927c-6.323,4.091-15.659,4.332-26.438,0.752C79.081,357.861,75,340.996,75,340.996
				l12.444-60.838L87.414,280.154z M131.453,355.702c5.726,3.121,17.913,3.169,17.913,3.169l7.277-33.691
				c0,0,11.742-7.077,17.446-15.501c5.622-8.375,7.031-20.91,1.069-22.837c-6.033-1.952-6.444,12.062-11.48,17.398
				c-4.989,5.328-12.189,12.373-26.255,11.668c-11.404-0.472-11.285,7.849-14.138,14.972c-2.769,7.06-4.072,13.225-4.072,13.225
				s6.518,8.43,12.238,11.611L131.453,355.702z"/>
		</g>
		<path id="art_00000147222440609917699690000003379092640918725300_" d="M293.255,277.319c21.257,2.716,42.595,4.741,63.757,8.014
			c-32.365,54.832,21.351,127.538,83.317,110.234c68.381-20.673,15.92-53.869,85.862-6.679c2.852,1.228,8.716,1.276,11.409,0.026
			c0.105-1.719,0.29-3.923-0.635-5.127c-12.286-14.993-25.329-29.399-37.941-44.129c-1.678-1.927-2.38-3.93-1.919-6.536
			c1.744-8.293,0.399-16.533-0.173-24.827c15.382,14.403,14.962-32.445,12.079-39.587c-4.137-7.645-9.71,4.718-15.274-0.513
			c-1.154-0.604-2.909-0.19-4.365-0.028c-18.482,7.865-32.953-26.658-74.841-20.448c-11.111,1.024-21.486,4.775-30.988,10.699
			c-1.979,1.234-3.851,1.581-6.21,1.34c-27.528-2.27-55.123-3.821-82.671-5.859c-6.225-1.379-2.392,16.743-3.845,20.957
			C290.742,276.685,291.576,277.126,293.255,277.319z M469.613,310.691c-2.805-2.033-3.036-4.995-3.549-8.721
			c11.263,2.238,13.563-0.256,14.621,12.515C477.84,320.092,472.514,312.888,469.613,310.691z M456.121,367.818
			c-6.347-10.409-12.817-20.742-19.17-31.145c0.206-0.265,0.412-0.529,0.618-0.794c11.43,6.159,22.861,12.319,35.192,18.963
			C469.057,357.17,458.374,373.26,456.121,367.818z M427.966,340.882c7.695,10.079,13.424,21.527,20.475,32.122
			c2.597,4.258-13.629,5.683-16.588,7.584c-2.11,0.634-2.898-0.15-2.945-2.444C428.732,365.54,427.972,353.577,427.966,340.882z
			 M395.181,299.636c-0.23,1.922-0.928,2.362-2.698,1.387c-6.575-4.024-13.443-6.322-19.503-11.246
			c6.977-3.332,14.313,0.794,21.611,1.207C397.792,292.566,395.071,296.916,395.181,299.636z M400.458,373.684
			c6.061-11.011,11.403-21.669,17.756-32.663c2.012,12.218,0.78,25.272,1.741,37.804c0.343,5.297-14.561-1.475-18.063-1.306
			C399.641,377.001,399.295,375.793,400.458,373.684z M377.714,355.85c10.333-6.267,20.533-12.756,30.862-19.031
			c0.262,0.207,0.524,0.413,0.786,0.62c-6.122,11.372-12.245,22.744-18.506,34.373c-5.352-3.385-9.023-8.174-13.769-12.248
			C375.307,357.911,375.849,356.979,377.714,355.85z M367.304,328.614c12.825-0.156,24.585-0.885,37.587-0.754
			c-10.576,7.019-21.228,13.065-31.83,19.947c-5.684,3.81-6.276-12.684-8.408-16.094
			C363.995,329.438,364.945,328.653,367.304,328.614z M367.923,301.376c-0.729-6.624,31.686,15.28,36.445,16.672
			c-12.513,1.696-25.347,0.825-38.016,1.658C361.049,319.96,368.03,304.908,367.923,301.376z"/>
	</g>
</g>
<g id="text">
</g>
<g id="guides">
</g>
<g id="scratch" display="none">
</g>
</svg>
