<svg xmlns="http://www.w3.org/2000/svg" xml:space="preserve" baseProfile="tiny" overflow="visible" version="1.2" viewBox="0 0 600 600"><path d="M462.019 111.324c-30.477-8.152-67.717 2.596-99.325-1.025-29.748-3.408-56.754 1.56-85.86 1.44-17.159-22.326-42.318-58.487-66.373-19.439-8.239 13.373-12.611 24.3-23.699 35.424-11.208 11.245-20.211 20.262-23.454 36.442-3.102 15.476 1.026 33.105-3.759 48.175-5.04 15.871-19.502 18.911-26.235 33.287-7.592 16.211 1.839 29.907 1.019 45.433-.504 9.531-6.728 16.377-6.76 26.249-.02 6.051 3.874 11.763 4.176 17.751.81 16.036-8.159 30.276-8.795 46.218-.641 16.061-.438 32.974-.687 49.263-.35 22.845-6.561 69.762 13.706 85.71 5.728 4.507 32.026 15.282 36.295 3.219 2.923-8.261-8.716-15.232-11.704-22.278-9.22-21.737.304-56.736 6.861-78.343 6.424-21.169 19.472-54.284 45.091-37.438 22.709 14.932 30.032 48.526 39.744 71.893 5.03 12.102 6.884 19.084 20.324 21.071 6.244.923 33.122-3.312 34.951-9.569 3.514-12.025-13.832-13.043-20.892-18.979-9.815-8.252-9.822-18.691-12.114-30.421-11.198-57.318-31.602-117.394-30.391-176.091.201-9.747.92-33.144 9.53-38.471 9.376-5.801 27.327 4.497 38.175.52 20.409-7.482 28.146-35.379 41.23-50.152 19.71-22.255 64.143-17.442 91.577-18.386 9.521-.327 43.83 3.496 50.836-4.59 10.184-11.752-4.842-14.606-13.467-16.913z"/></svg>