<svg xmlns="http://www.w3.org/2000/svg" xml:space="preserve" baseProfile="tiny" overflow="visible" version="1.2" viewBox="0 0 600 600"><path fill="none" d="M0 0h600v600H0z"/><path d="M290.643 402.893c20.024 11.166 40.871 4.648 15.69-14.982-6.997-8.055-12.031-15.908-21.841-20.842-2.808-2.735-4.872 2.422-7.31 3.492-13.867 3.376-35.284 27.059-45.103 8.467-6.552-6.362-6.97-17.112-11.367-24.949-1.477-7.665 4.417-15.965 1.731-23.899-1.129-6.618-10.56-11.59-15.294-4.403-6.451 7.281.617 19.871-10.919 24.915-14.264 9.023-10.968 29.26-15.334 41.751-21.913 22.348-57.618 8.11-78.867 28.221-12.013 5.962-37.275 36.713-17.296 43.9 8.572-3.036 18.343-8.051 21.604-17.019 3.013-.116 2.136-5.22 5.814-4.557.175.031.591-.611.699-.998 2.153-2.887 8.461-9.234 11.934-8.038 1.09.817 1.714 2.039-.27 2.821-.22 3.565.063 7.857-.234 11.661.089 7.183-6.244 12.983-13.005 13.708-14.234 2.094-12.172 16.487-20.761 24.783-4.131 3.898-8.039 8.03-13.383 10.454-6.91 7.755 4.79 9.066 9.402 3.931 14.367-19.088 27.251-28.616 53.548-26.378 4.417-.969 14.081-3.908 14.902 2.889-2.016 19.448 24.422 24.347 24.604 44.382 1.226 3.85 9 3.332 8.732-.874-2.672-9.707-10.483-18.363-18.28-24.701-2.805-25.626 11.497-24.873 31.833-21.36 17.881-2.555 30.706 7.247 45.598 14.538 26.169 2.326 20.07 22.239-.728 27.774-6.852 2.911-.089 10.788 4.324 5.725 7.045-6.652 15.82-10.529 23.242-17.549 4.483-3.803 2.68-12.87 11.199-10.846 13.537 1.767 15.246 17.156 21.229 25.979.22 8.291 13.678 2.399 6.475-3.281-8.964-10.744-14.002-25.495-25.151-34.146-5.137-2.938-13.24-2.771-14.25-10.205 8.303-15.093-4.032-69.814 16.833-70.364z"/></svg>