<svg xmlns="http://www.w3.org/2000/svg" xml:space="preserve" baseProfile="tiny" overflow="visible" version="1.2" viewBox="0 0 600 600"><path fill="none" d="M4.428 0h600v600h-600z"/><path fill="none" d="M4.428 0h600v600h-600z"/><path d="M304.634 375.014h-3.157c-2.691-.615-5.222-1.156-7.528-2.778-1.071-.754-1.667-1.012-1.467-2.268.228-1.431.79-2.868 1.169-4.27 1.6-5.915 3.433-11.914 4.481-17.955-4.921 1.497-9.915 3.135-14.99 4.017-5.17.898-10.486.661-15.713.707-1.038.009-2.511.343-3.33-.382-.858-.759-1.588-2.321-2.156-3.303a27.27 27.27 0 0 1-2.727-6.515c-1.349-4.965-.886-9.914-.268-14.945-4.673-1.263-9.24-2.714-13.539-4.979-2.212-1.166-4.281-2.531-6.32-3.973-1.954-1.382-3.926-3.176-6.105-4.164v-.412c.574-.158 1.083-2.887 1.269-3.452.443-1.349.887-2.702 1.445-4.009.951-2.231 2.202-4.325 3.672-6.253 3.157-4.14 7.24-7.489 10.647-11.41-1.997-4.584-4.02-9.155-5.329-13.995-1.384-5.115-2.137-10.413-3.202-15.602 5.729-2.997 12.068-5.075 18.531-5.568 3.296-.252 6.584.001 9.878.15 1.674.076 3.348.147 5.021.227 1.735.084 2.116.073 3.076-1.426 3.407-5.324 6.846-10.548 11.613-14.772 5.076-4.499 10.665-8.502 15.992-12.698h.137c4.454 3.737 9.404 6.63 13.179 11.143 3.619 4.327 5.912 9.494 8.329 14.544 6.162 0 12.307-.831 18.453-.008 3.024.405 5.978 1.151 8.883 2.073 2.689.853 5.951 1.631 8.374 3.092.294 5.375.51 10.655-.408 15.989-.439 2.55-1.08 5.066-1.773 7.557-.338 1.216-1.054 2.675-1.143 3.929-.071.995.498 1.402 1.149 2.14 3.247 3.68 6.528 7.374 9.082 11.584 2.62 4.318 4 9.032 6.016 13.61v.686c-.871.734-1.551 2.125-2.283 3.018a34.991 34.991 0 0 1-2.645 2.88 34.145 34.145 0 0 1-6.064 4.709c-4.436 2.699-9.26 4.067-14.308 5.079 1.242 8.789.909 17.429-1.958 25.872-5.663.99-11.87 1.531-17.55.46-5.739-1.083-10.937-3.882-16.104-6.477.329 6.097.045 12.163-.666 18.224-.283 2.411.111 6.04-2.169 7.386-2.38 1.402-4.857 1.888-7.494 2.538z"/></svg>