<svg xmlns="http://www.w3.org/2000/svg" xml:space="preserve" baseProfile="tiny" overflow="visible" version="1.2" viewBox="0 0 600 600"><path d="M300.618 525.231h-9.479c-8.08-1.848-15.68-3.471-22.602-8.34-3.217-2.263-5.005-3.039-4.404-6.81.685-4.296 2.371-8.61 3.51-12.821 4.803-17.76 10.306-35.771 13.455-53.91-14.775 4.496-29.771 9.413-45.008 12.061-15.523 2.697-31.483 1.985-47.18 2.123-3.117.027-7.538 1.031-9.999-1.146-2.575-2.278-4.767-6.969-6.475-9.916-3.554-6.134-6.329-12.719-8.188-19.561-4.051-14.908-2.66-29.767-.805-44.873-14.031-3.791-27.745-8.149-40.652-14.95-6.643-3.5-12.854-7.599-18.977-11.929-5.867-4.149-11.787-9.537-18.331-12.503v-1.236c1.723-.474 3.253-8.669 3.809-10.365 1.329-4.051 2.664-8.112 4.337-12.036 2.857-6.7 6.613-12.987 11.026-18.774 9.479-12.431 21.737-22.487 31.969-34.26-5.995-13.765-12.07-27.488-16.001-42.021-4.154-15.359-6.418-31.266-9.615-46.845 17.203-8.998 36.235-15.236 55.638-16.719 9.896-.756 19.769.004 29.66.45 5.025.227 10.051.441 15.076.683 5.209.251 6.355.219 9.235-4.282 10.229-15.986 20.556-31.669 34.867-44.354 15.242-13.51 32.021-25.526 48.016-38.127h.412c13.373 11.221 28.235 19.905 39.57 33.456 10.867 12.992 17.752 28.506 25.008 43.667 18.501 0 36.952-2.496 55.406-.024 9.081 1.217 17.949 3.455 26.673 6.223 8.074 2.562 17.868 4.896 25.142 9.284.884 16.138 1.532 31.991-1.226 48.007-1.319 7.657-3.243 15.211-5.323 22.691-1.015 3.651-3.164 8.033-3.431 11.797-.212 2.987 1.494 4.208 3.451 6.426 9.748 11.048 19.6 22.141 27.268 34.78 7.865 12.965 12.01 27.12 18.064 40.863v2.061c-2.614 2.205-4.656 6.381-6.855 9.062a104.812 104.812 0 0 1-7.942 8.648 102.613 102.613 0 0 1-18.208 14.139c-13.319 8.105-27.803 12.212-42.958 15.25 3.728 26.39 2.729 52.33-5.88 77.681-17.002 2.974-35.641 4.598-52.695 1.38-17.23-3.251-32.838-11.654-48.354-19.447.987 18.306.135 36.52-1.998 54.718-.849 7.239.334 18.136-6.514 22.176-7.138 4.212-14.575 5.668-22.492 7.623z"/></svg>