<svg xmlns="http://www.w3.org/2000/svg" xml:space="preserve" baseProfile="tiny" overflow="visible" version="1.2" viewBox="0 0 600 600"><path fill="none" d="M0 0h600v600H0z"/><path d="M409.235 174.68c-1.285-3.729 2.106-19.766-3.403-18.546-24.379 1.804-48.799 3.176-73.161 5.185-2.087.214-3.744-.094-5.495-1.186-8.41-5.243-17.591-8.562-27.424-9.468-37.069-5.495-49.875 25.056-66.231 18.096-1.288-.144-2.841-.51-3.863.024-4.924 4.629-9.856-6.311-13.517.454-2.551 6.32-2.923 47.779 10.69 35.033-.507 7.34-1.697 14.632-.153 21.971.408 2.306-.214 4.079-1.699 5.784-11.161 13.036-22.704 25.784-33.576 39.052-.819 1.065-.656 3.016-.562 4.537 2.383 1.106 7.573 1.064 10.096-.023 61.897-41.762 15.471-12.385 75.985 5.91 54.838 15.313 102.374-49.029 73.733-97.553 18.727-2.897 37.611-4.688 56.423-7.092 1.486-.169 2.224-.559 2.157-2.178zm-168.026 35.071c.936-11.302 2.972-9.095 12.939-11.076-.454 3.298-.659 5.919-3.141 7.718-2.567 1.944-7.28 8.319-9.798 3.358zm7.012 35.714 31.144-16.782.547.703c-5.623 9.207-11.348 18.351-16.965 27.562-1.994 4.817-11.448-9.423-14.726-11.483zm38.808 20.622c-.042 2.03-.738 2.724-2.606 2.163-2.618-1.682-16.978-2.943-14.68-6.712 6.24-9.376 11.31-19.507 18.12-28.427-.005 11.234-.677 21.822-.834 32.976zm30.369-77.135c6.458-.365 12.951-4.016 19.125-1.068-5.363 4.357-11.441 6.391-17.259 9.952-1.566.863-2.184.474-2.387-1.227.097-2.407-2.311-6.256.521-7.657zm-6.46 76.581c-3.099-.15-16.288 5.843-15.985 1.156.851-11.09-.24-22.642 1.541-33.455 5.622 9.73 10.349 19.161 15.713 28.906 1.029 1.866.722 2.935-1.269 3.393zm21.951-15.889c-4.2 3.606-7.449 7.843-12.185 10.839l-16.377-30.419.696-.549c9.141 5.553 18.167 11.295 27.312 16.841 1.65 1 2.129 1.825.554 3.288zm11.004-24.648c-1.886 3.018-2.41 17.615-7.44 14.243-9.383-6.09-18.809-11.441-28.169-17.652 11.507-.115 21.914.53 33.263.668 2.087.033 2.928.729 2.346 2.741zm-1.504-10.626c-11.211-.737-22.569.034-33.642-1.467 4.211-1.232 32.897-20.615 32.252-14.754-.095 3.126 6.083 16.447 1.39 16.221z"/></svg>