<svg xmlns="http://www.w3.org/2000/svg" xml:space="preserve" width="600" height="600" baseProfile="tiny" overflow="visible" version="1.2"><path fill="none" d="M0 0h600v600H0z"/><path d="M160.63 440.067c-1.201 3.711-4.826 6.183-6.707 9.515-2.34 4.145-4.412 8.6-6.434 12.918-5.02 8.564-8.523 17.594-11.278 27.102-1.766 4.457-3.873 8.94-4.671 13.701-.706 7.452 2.566 20.434-9.116 19.182-8.114-.942-32.246 9.47-23.239-7.789 2.105-9.181-.065-19.425-.598-28.837-.104-22.486-1.136-44.877-3.012-67.28-1.285-16.436.257-33.21-3.226-49.361-1.301-5.122-1.519-10.298-.534-15.488 2.104-21.276 1.321-43.83-1.432-65.111-3.732-9.189-5.171-18.702-5.596-28.608-.344-6.575-1.076-13.772.585-20.131.47-1.278 1.677-5.092 2.836-5.938 1.748-1.276 8.242-1.203 10.073-.058 3.349 2.095 3.076 8.509 3.137 11.917-.589 10.802 2.665 22.37 1.052 33.107-4.058 10.428-1.334 22.156-1.481 33.128 1.937 11.332-5.046 55.915 13.939 51.038 2.047 4.735 6.982-5.019 8.959-6.54 2.381-2.334 9.803-6.405 9.034-10.785 2.411-.226 6.024-4.535 8.231-5.731 10.625-4.712 15.774-7.015 9.968-19.285-.623-3.15.342-5.558 1.027-8.624 1.66-10.238 5.216-17.423 17.231-14.972 4.577.256 5.703 2.381 7.304 6.194 3.096 7.372 5.923 14.233 1.628 21.398-8.185 13.696 15.76 16.218 23.397 22.158 4.664 5.571 7.979 12.716 11.818 18.952 4.919 5.546 7.376 12.083 9.98 18.878 4.48 8.24-2.104 16.305-6.768 23.04-4.726 6.823-8.656 12.46-15.63 17.043-9.22 4.588-6.065 10.487-4.882 18.839.573 8.49 1.875 16.958 2.667 25.432 2.038 16.265-5.409 33.312 1.809 48.88 2.039 4.358 8.411 12.247.987 14.654-5.019 1.628-8.418-2.082-12.164-4.569-3.097-2.057-6.514-1.589-8.052-5.347-1.559-3.808-.231-10.982-.256-15.113.054-9.484-3.167-18.318-4.34-27.636-.093-9.284-4.371-17.085-8.855-24.85-2.268-5.8-3.579-9.946-7.391-15.023zm-51.985 56.06c-.221 2.136-.569 14.385 3.752 12.061 3.244-1.744 3.072-12.411 3.901-15.49 2.471-10.197.939-20.769 5.323-30.577 1.547-5.597 1.416-11.444 2.33-17.138.604-3.763 2.621-5.876 4.158-9.117 2.098-4.423 2.742-9.435 4.298-14.037 1.694-5.011 3.99-9.162 3.079-14.595-.858-5.12-3.576-9.322-2.552-14.699.778-4.081 1.631-7.275-.145-11.342-1.879-4.302-4.631-1.119-8.464.276-4.585 1.668-9.56 1.514-14.383 1.327-2.983-.116-2.802-1.581-4.646 1.381-2.142 5.963-.031 12.764-.287 18.881-.172 8.271.717 17.289.68 26.148.964 22.182.764 44.86 2.956 66.921zm100.242-106.388c-2.661-6.3-7.316-14.034-12.973-18.29-9.448-5.182-4.222 27.886-4.753 32.805.127 7.709 4.974-.47 7.501-2.246 1.249-.882 2.597-.77 3.854-1.828 1.479-1.244 6.554-8.215 6.371-10.441zM240.82 82.912v1.807c-1.237.098-2.279.439-3.125 1.025-.847.586-1.595 1.482-2.246 2.686-.195.391-1.221 2.914-3.076 7.568l-20.752 54.639h-1.904l-16.406-42.676-18.066 42.676h-1.807L151.66 96.584c-2.214-5.436-3.76-8.723-4.639-9.863-.879-1.139-2.36-1.807-4.443-2.002v-1.807h28.711v1.807c-2.312.066-3.85.415-4.614 1.05-.765.635-1.147 1.424-1.147 2.368 0 1.238.797 3.857 2.393 7.861l12.988 32.129 10.4-25.098-2.734-7.031c-1.498-3.841-2.653-6.404-3.467-7.69-.814-1.286-1.75-2.205-2.808-2.759-1.058-.553-2.612-.83-4.663-.83v-1.807h32.08v1.807c-2.246.033-3.857.212-4.834.537-.684.228-1.221.61-1.611 1.147s-.586 1.147-.586 1.831c0 .749.732 3.044 2.197 6.885l12.061 31.348 10.791-28.369c1.139-2.93 1.839-4.932 2.1-6.006.26-1.074.391-2.067.391-2.979 0-1.334-.456-2.384-1.367-3.149-.912-.764-2.653-1.179-5.225-1.245v-1.807h17.186zM263.184 86.769v16.699h10.84v4.834h-10.84v28.174c0 2.637.122 4.338.366 5.103a3.673 3.673 0 0 0 1.294 1.855c.618.472 1.188.708 1.709.708 2.116 0 4.118-1.611 6.006-4.834l1.465 1.074c-2.637 6.25-6.917 9.375-12.842 9.375-2.897 0-5.347-.806-7.349-2.417s-3.28-3.41-3.833-5.396c-.326-1.106-.488-4.102-.488-8.984v-24.658h-5.957v-1.709c4.102-2.897 7.593-5.94 10.474-9.131 2.881-3.19 5.396-6.754 7.544-10.693h1.611zM297.314 103.469v10.352c3.027-4.719 5.68-7.853 7.959-9.399 2.278-1.546 4.476-2.319 6.592-2.319 1.823 0 3.279.562 4.37 1.685 1.09 1.123 1.636 2.71 1.636 4.761 0 2.181-.529 3.874-1.587 5.078-1.058 1.205-2.336 1.807-3.833 1.807-1.726 0-3.223-.553-4.492-1.66-1.27-1.106-2.019-1.725-2.246-1.855a2.145 2.145 0 0 0-1.123-.293c-.944 0-1.839.359-2.686 1.074-1.335 1.107-2.344 2.686-3.027 4.736-1.042 3.158-1.562 6.641-1.562 10.449v10.498l.049 2.734c0 1.855.114 3.044.342 3.564.391.879.968 1.522 1.733 1.929.765.407 2.059.659 3.882.757v1.758h-24.658v-1.758c1.985-.163 3.328-.708 4.028-1.636.7-.928 1.05-3.377 1.05-7.349v-25.244c0-2.604-.13-4.264-.391-4.98-.326-.911-.798-1.579-1.416-2.002-.619-.423-1.709-.716-3.271-.879v-1.807h18.651zM341.406 82.912v26.416c2.506-2.637 4.801-4.5 6.885-5.591 2.083-1.09 4.248-1.636 6.494-1.636 2.864 0 5.314.814 7.349 2.441 2.034 1.628 3.385 3.54 4.053 5.737.667 2.197 1.001 5.901 1.001 11.108v17.822c0 3.484.325 5.656.977 6.519.651.863 1.969 1.408 3.955 1.636v1.758h-23.145v-1.758c1.627-.227 2.848-.879 3.662-1.953.586-.846.879-2.913.879-6.201v-20.361c0-3.776-.146-6.144-.439-7.104-.293-.96-.79-1.709-1.489-2.246a3.79 3.79 0 0 0-2.368-.806c-1.302 0-2.572.448-3.809 1.343-1.237.896-2.572 2.466-4.004 4.712v24.463c0 3.255.244 5.29.732 6.104.618 1.107 1.888 1.791 3.809 2.051v1.758h-23.145v-1.758c1.92-.195 3.288-.813 4.102-1.855.553-.716.83-2.815.83-6.299V92.824c0-3.45-.317-5.598-.952-6.445-.635-.846-1.961-1.399-3.979-1.66v-1.807h18.602zM407.227 102.199l.732 15.576h-1.66c-1.986-4.622-4.045-7.78-6.177-9.473-2.132-1.692-4.256-2.539-6.372-2.539-1.335 0-2.474.448-3.418 1.343-.944.896-1.416 1.929-1.416 3.101 0 .879.325 1.726.977 2.539 1.042 1.335 3.955 3.622 8.74 6.86 4.785 3.24 7.935 5.99 9.448 8.252 1.514 2.263 2.271 4.793 2.271 7.593 0 2.539-.635 5.029-1.904 7.471s-3.06 4.314-5.371 5.615c-2.312 1.302-4.867 1.953-7.666 1.953-2.181 0-5.095-.684-8.74-2.051-.977-.358-1.644-.537-2.002-.537-1.074 0-1.97.814-2.686 2.441h-1.611l-.781-16.406h1.66c1.465 4.297 3.475 7.52 6.03 9.668 2.555 2.148 4.972 3.223 7.251 3.223 1.562 0 2.84-.48 3.833-1.44.993-.96 1.489-2.124 1.489-3.491 0-1.562-.488-2.913-1.465-4.053-.977-1.139-3.158-2.864-6.543-5.176-4.98-3.45-8.203-6.087-9.668-7.91-2.148-2.669-3.223-5.615-3.223-8.838 0-3.516 1.212-6.697 3.638-9.546 2.425-2.848 5.933-4.272 10.522-4.272 2.474 0 4.866.603 7.178 1.807.879.488 1.595.732 2.148.732.586 0 1.058-.122 1.416-.366.358-.244.928-.935 1.709-2.075h1.661zM455.957 124.66h-25.049c.293 6.055 1.904 10.84 4.834 14.355 2.246 2.702 4.948 4.053 8.105 4.053 1.953 0 3.727-.545 5.322-1.636 1.595-1.09 3.304-3.052 5.127-5.884l1.66 1.074c-2.474 5.046-5.208 8.618-8.203 10.718-2.995 2.1-6.462 3.149-10.4 3.149-6.771 0-11.898-2.604-15.381-7.812-2.8-4.199-4.199-9.407-4.199-15.625 0-7.617 2.059-13.679 6.177-18.188 4.118-4.508 8.943-6.763 14.478-6.763 4.622 0 8.634 1.897 12.036 5.688 3.401 3.793 5.232 9.417 5.493 16.871zm-12.012-3.272c0-5.241-.285-8.838-.854-10.791-.57-1.953-1.457-3.434-2.661-4.443-.684-.586-1.595-.879-2.734-.879-1.693 0-3.076.83-4.15 2.49-1.921 2.898-2.881 6.869-2.881 11.914v1.709h13.28zM172.07 182.912h31.006l-4.932 12.598H172.07l-2.49 6.592c11.23.423 19.873 3.223 25.928 8.398 4.98 4.265 7.471 9.57 7.471 15.918 0 4.07-1.156 8.049-3.467 11.938-2.312 3.89-5.566 6.885-9.766 8.984s-8.806 3.149-13.818 3.149c-5.404 0-9.554-1.009-12.451-3.027-2.019-1.432-3.027-3.059-3.027-4.883 0-1.399.529-2.637 1.587-3.711 1.058-1.074 2.287-1.611 3.687-1.611 1.27 0 2.555.261 3.857.781 1.302.521 3.532 1.888 6.689 4.102 1.985 1.367 3.694 2.312 5.127 2.832 1.009.391 2.148.586 3.418.586 2.669 0 4.939-.977 6.812-2.93 1.872-1.953 2.808-4.297 2.808-7.031 0-5.729-2.865-10.384-8.594-13.965-5.729-3.581-12.956-5.371-21.68-5.371-.879 0-2.197.017-3.955.049l11.864-33.398zM293.115 182.912v17.92h-1.758c-1.042-4.134-2.197-7.104-3.467-8.911s-3.011-3.247-5.225-4.321c-1.237-.586-3.402-.879-6.494-.879h-4.932v51.074c0 3.386.187 5.501.562 6.348.374.847 1.106 1.587 2.197 2.222 1.09.635 2.58.952 4.468.952h2.197v1.807h-34.668v-1.807h2.197c1.92 0 3.467-.342 4.639-1.025.846-.456 1.514-1.237 2.002-2.344.358-.781.537-2.832.537-6.152V186.72h-4.785c-4.46 0-7.699.945-9.717 2.832-2.832 2.637-4.623 6.396-5.371 11.279h-1.855v-17.92h59.473zM329.59 224.66h-25.049c.293 6.055 1.904 10.84 4.834 14.355 2.246 2.702 4.948 4.053 8.105 4.053 1.953 0 3.727-.545 5.322-1.636 1.595-1.09 3.304-3.052 5.127-5.884l1.66 1.074c-2.474 5.046-5.208 8.618-8.203 10.718-2.995 2.1-6.462 3.149-10.4 3.149-6.771 0-11.898-2.604-15.381-7.812-2.8-4.199-4.199-9.407-4.199-15.625 0-7.617 2.059-13.679 6.177-18.188 4.118-4.508 8.943-6.763 14.478-6.763 4.622 0 8.634 1.897 12.036 5.688 3.401 3.793 5.232 9.417 5.493 16.871zm-12.012-3.272c0-5.241-.285-8.838-.854-10.791-.57-1.953-1.457-3.434-2.661-4.443-.684-.586-1.595-.879-2.734-.879-1.693 0-3.076.83-4.15 2.49-1.921 2.898-2.881 6.869-2.881 11.914v1.709h13.28zM353.955 203.469v5.908c2.344-2.539 4.59-4.386 6.738-5.542 2.148-1.155 4.459-1.733 6.934-1.733 2.962 0 5.42.823 7.373 2.466 1.953 1.644 3.255 3.687 3.906 6.128.521 1.855.781 5.42.781 10.693v17.773c0 3.516.317 5.705.952 6.567.635.863 1.961 1.408 3.979 1.636v1.758h-23.096v-1.758c1.725-.227 2.962-.944 3.711-2.148.521-.813.781-2.832.781-6.055V218.85c0-3.743-.146-6.104-.439-7.08s-.79-1.733-1.489-2.271c-.7-.537-1.473-.806-2.319-.806-2.8 0-5.404 2.002-7.812 6.006v24.463c0 3.418.317 5.583.952 6.494.635.912 1.814 1.482 3.54 1.709v1.758h-23.096v-1.758c1.92-.195 3.288-.813 4.102-1.855.553-.716.83-2.832.83-6.348v-25.781c0-3.45-.317-5.598-.952-6.445-.635-.846-1.961-1.399-3.979-1.66v-1.807h18.603zM409.57 203.469v5.908c2.344-2.539 4.59-4.386 6.738-5.542 2.148-1.155 4.459-1.733 6.934-1.733 2.962 0 5.42.823 7.373 2.466 1.953 1.644 3.255 3.687 3.906 6.128.521 1.855.781 5.42.781 10.693v17.773c0 3.516.317 5.705.952 6.567.635.863 1.961 1.408 3.979 1.636v1.758h-23.096v-1.758c1.725-.227 2.962-.944 3.711-2.148.521-.813.781-2.832.781-6.055V218.85c0-3.743-.146-6.104-.439-7.08s-.79-1.733-1.489-2.271c-.7-.537-1.473-.806-2.319-.806-2.8 0-5.404 2.002-7.812 6.006v24.463c0 3.418.317 5.583.952 6.494.635.912 1.814 1.482 3.54 1.709v1.758h-23.096v-1.758c1.92-.195 3.288-.813 4.102-1.855.553-.716.83-2.832.83-6.348v-25.781c0-3.45-.317-5.598-.952-6.445-.635-.846-1.961-1.399-3.979-1.66v-1.807h18.603zM452.669 441.79l40.879-55.415h7.744v55.415h7.871v13.14h-7.871v19.297h-17.456V454.93h-31.167v-13.14zm6.157 0h25.01v-33.96l-25.01 33.96z"/></svg>