<svg xmlns="http://www.w3.org/2000/svg" xml:space="preserve" baseProfile="tiny" overflow="visible" version="1.2" viewBox="0 0 600 600"><path fill="none" d="M0 0h600v600H0z"/><path d="M249.189 317.016c-1.347 7.936-3.208 15.826-3.91 23.819-.862 9.814-.842 19.711-1.035 29.576-.121 6.175.297 12.364.054 18.531-.24 6.08-2.677 7.196-7.779 4.219-5.126-2.991-7.586-6.743-5.98-13.085 1.59-6.281 2.513-12.787 3.075-19.251.327-3.767-.208-7.746-1.102-11.449-1.453-6.021-1-11.55.601-17.624 1.757-6.665 2.369-14.025 1.615-20.877-1.63-14.805-2.776-29.793-8.108-43.96-.552-1.466-.736-3.089-.949-4.659-.442-3.26-.782-6.557 3.515-7.623 4.207-1.043 8.643 1.227 9.828 4.98 5.878 18.617 9.126 37.653 10.175 57.403zM373.563 163.136c0-10.22-1.438-20.705.383-30.589 2.04-11.079 6.846-21.684 10.851-32.344 1.132-3.012 3.767-5.278 7.666-3.487 3.798 1.744 3.846 4.984 2.677 8.109-10.817 28.92-8.719 59.112-8.818 89.069-.019 5.658-.366 10.955-4.435 15.299-3.925 4.19-7.707 3.941-9.873-1.318-1.335-3.24-2.437-7.646-1.304-10.643 4.246-11.233 2.57-22.686 2.853-34.096zM372.332 105.204c-3.456 12.896-6.739 24.949-9.908 37.032-3.037 11.581-6.408 23.103-8.76 34.826-1.467 7.312-1.313 14.949-1.894 22.44-.082 1.056.138 2.324-.369 3.122-1.442 2.273-3.186 4.354-4.812 6.51-1.231-2.088-2.855-4.045-3.599-6.294-1.103-3.334-1.614-6.869-2.308-10.332-.239-1.192-.488-2.448-.365-3.637.807-7.825 1.374-15.697 2.671-23.444 1.873-11.191 4.112-22.331 6.555-33.414 1.662-7.54 3.887-14.959 5.971-22.401.71-2.535 1.125-5.609 2.814-7.294 1.987-1.982 5.462-4.057 7.829-3.615 2.28.425 3.968 4.012 6.175 6.501zM221.591 94.265c1.194-1.767 2.336-4.775 3.37-4.739 3.102.11 7.349.432 9 2.44 3.863 4.696 7.361 10.103 9.41 15.797 4.684 13.014 8.225 26.436 12.635 39.556 1.423 4.233 3.645 8.39 6.326 11.963 4.181 5.573 3.445 13.442-2.757 16.894-1.532.853-4.966.193-6.359-1.064-1.963-1.772-3.208-4.621-4.12-7.232-5.336-15.275-10.375-30.655-15.807-45.896-.89-2.497-3.834-4.246-4.783-6.739-2.554-6.719-4.545-13.653-6.915-20.98zM298.508 179.775c-.824 3.662.039 7.713-5.122 8.343-4.431.541-6.673-1.628-7.704-6.049-3.83-16.413-7.911-32.768-11.986-49.122-2.001-8.028-4.258-15.991-6.259-24.019-.46-1.845-1.063-4.212-.307-5.664.982-1.884 3.168-4.134 5.004-4.294 1.744-.152 4.803 1.801 5.396 3.491 4.604 13.11 9.262 26.242 12.889 39.642 3.35 12.38 5.442 25.101 8.089 37.672zM389.68 479.953c1.201 8.133 2.546 16.249 3.483 24.413.195 1.696-1.126 3.566-1.748 5.356-1.659-1.152-4.424-2.02-4.803-3.5-3.304-12.9-5.986-25.96-9.295-38.858-1.112-4.333-3.536-8.323-5.298-12.496-4.125-9.766-6.824-19.88-6.928-30.544-.03-3.123.611-6.08 4.664-6.493 3.964-.404 6.663.938 8.519 4.704 1.293 2.622 3.847 4.61 5.228 7.205 1.39 2.613 3.068 5.738 2.779 8.442-.624 5.82.728 10.96 2.121 16.511 2.032 8.098 2.247 16.651 3.237 25.011l-1.959.249zM305.891 451.81c-1.484 3.94-3.113 7.833-4.419 11.831-1.851 5.667-3.195 11.509-5.23 17.103-5.411 14.876-10.96 29.705-16.773 44.426-.804 2.035-3.985 5.042-5.064 4.672-2.466-.844-5.591-3.208-6.113-5.49-.801-3.499-.443-7.753.843-11.148 3.795-10.019 8.455-19.707 12.452-29.655 3.196-7.956 6.02-16.068 8.783-24.188.777-2.284.344-4.996 1.194-7.235 1.4-3.687 2.881-7.553 5.281-10.589 2.374-3.004 7.033-.801 7.622 3.41.29 2.079.05 4.232.05 6.352l1.374.511zM342.956 360.607c.453 10.224 1.194 20.445 1.194 30.666 0 3.24-1.334 6.93-3.212 9.604-2.317 3.299-5.823 2.601-7.756-.79-1.529-2.682-2.866-5.88-2.978-8.897a2572.07 2572.07 0 0 1-1.521-60.275c-.043-3.189.945-6.7 2.49-9.489.968-1.747 3.978-3.473 5.871-3.276 1.812.188 4.064 2.59 4.854 4.535 1.015 2.496.987 5.504 1.016 8.296.106 9.873.043 19.748.042 29.626zM413.794 191.066c-1.2 4.73-2.386 9.464-3.606 14.189-.396 1.534-1.116 3.02-1.283 4.571a3811.306 3811.306 0 0 0-3.874 37.859c-.477 4.909-.191 9.965-1.299 14.71-.605 2.591-3.396 4.672-5.201 6.983-2.406-1.97-6.433-3.622-6.895-5.974-1.098-5.59-1.066-11.568-.483-17.287 1.143-11.224 2.332-22.516 4.707-33.52 2.146-9.944 5.753-19.591 9.093-29.239.535-1.546 3.048-2.408 4.647-3.586 1.209 1.753 2.881 3.36 3.491 5.301.544 1.73-.086 3.829-.198 5.765l.901.228zM442.468 86.983c.119 8.812-3.369 16.57-6.926 24.37-4.582 10.047-9.013 20.17-13.17 30.399-1.188 2.923-2.013 6.653-5.554 5.464-2.24-.752-5.172-4.689-4.882-6.796 1.091-7.926 3.035-15.789 5.31-23.482 2.434-8.228 5.639-16.226 8.436-24.349 1.365-3.965 2.349-8.072 3.895-11.959 1.924-4.84 6.423-2.815 9.734-2.624 1.23.071 2.484 3.341 3.308 5.326.424 1.02-.071 2.422-.151 3.651zM231.083 206.505c-.358 3.487-.576 6.293-.948 9.078-.532 3.984-3.336 4.972-6.849 5.176-3.674.213-4.958-1.89-5.532-5.04-1.771-9.718-3.303-19.496-5.548-29.106-1.147-4.908-3.585-9.52-5.511-14.237-.663-1.625-2.263-3.206-2.167-4.727.173-2.722 1.055-7.548 2.087-7.668 3.276-.382 8.219-.174 9.895 1.913 5.88 7.319 9.034 16.151 10.666 25.49 1.152 6.586 2.666 13.109 3.907 19.121zM283.789 308.956c0 10.21.184 20.426-.107 30.628-.093 3.26-.954 7.076-5.232 7.543-4.31.471-7.726-1.475-8.981-5.765-.82-2.802-1.217-5.856-1.112-8.772.22-6.154 1.266-12.289 1.288-18.435.027-7.732-.454-15.481-1.076-23.193-.274-3.388.122-6.692 3.564-7.099 2.323-.275 6.545 1.425 7.15 3.19 2.399 6.999 3.709 14.372 5.422 21.606-.306.098-.611.198-.916.297zM207.439 126.252c-1.25 1.953-2.403 4.557-4.347 6.254-.511.446-4.087-1.493-5.188-3.078-2.641-3.805-4.735-8.003-6.892-12.126-4.814-9.201-9.77-18.339-14.169-27.737-1.742-3.723-2.414-8.028-3.038-12.15-.217-1.437.777-3.796 1.951-4.486 1.065-.626 3.676-.105 4.649.867 3.153 3.15 6.459 6.403 8.629 10.227a382.544 382.544 0 0 1 14.257 27.703c1.963 4.228 2.636 9.056 4.148 14.526zM407.332 336.355c1.448 8.228 3.147 16.423 4.242 24.697.568 4.294.481 8.792-.18 13.063-.217 1.4-3.048 3.049-4.906 3.397-3.35.628-5.856-1.223-6.594-4.658-1.625-7.571-3.983-15.135-4.36-22.784-.42-8.514 1.043-17.119 1.65-25.688.111-1.568-.516-3.493.188-4.651 1.394-2.294 3.48-4.169 5.28-6.217 1.901 1.742 5.1 3.253 5.457 5.268 1.003 5.661.836 11.53 1.13 17.318l-1.907.255zM209.179 460.821c.237-.872.5-2.642 1.184-4.231 4.654-10.815 9.156-21.71 14.334-32.271.936-1.909 4.722-3.205 7.27-3.342 3.286-.176 5.868 2.089 5.143 5.848-1.419 7.361-1.427 14.986-5.925 21.737-2.203 3.307-2.651 7.954-3.297 12.088-.978 6.262-7.623 12.459-13.723 11.666-1.549-.201-3.424-2.204-4.09-3.817-.839-2.03-.59-4.509-.896-7.678zM342.775 474.663c-1.133-3.949-2.873-7.838-3.265-11.859-.661-6.783-1.012-13.696-.431-20.462.344-4.01 5.074-5.082 8.272-2.337 1.282 1.101 2.616 2.721 2.916 4.297 2.612 13.744 7.019 27.502 1.183 41.445-.651 1.556-2.464 3.599-3.79 3.638-1.473.043-3.848-1.665-4.346-3.119-1.222-3.568-1.591-7.429-2.303-11.172l1.764-.431zM359.927 364.756c.828-4.786 1.784-11.929 3.452-18.902.462-1.931 3.037-3.356 4.642-5.014 1.6 1.921 3.413 3.709 4.711 5.816.671 1.089.405 2.744.6 4.138 1.069 7.647 1.924 15.334 3.295 22.927 1.152 6.383.049 10.112-5.081 13.818-4.568 3.3-9.481 1.419-10.082-4.013-.6-5.422-.906-10.876-1.537-18.77zM328.667 263.647c.645-9.417 1.009-16.302 1.629-23.163.342-3.779 1.983-6.781 6.191-7.577 4.482-.848 7.158 1.41 7.163 5.95.014 11.287.291 22.579-.007 33.856-.064 2.426-2.109 4.8-3.241 7.197-2.494-1.209-6.184-1.778-7.242-3.756-2.426-4.539-3.571-9.766-4.493-12.507zM426.297 454.581c-.125 1.403.047 2.923-.45 4.179-.651 1.644-1.551 3.944-2.86 4.369-1.437.466-3.679-.534-5.198-1.488-13.157-8.269-10.818-21.438-10.516-33.932.029-1.222-.044-2.619.505-3.619 1.148-2.091 2.382-5.27 4.115-5.666 3.543-.811 4.989 2.361 5.721 5.498 1.273 5.453 2.28 10.991 3.946 16.323 1.491 4.771 3.722 9.312 5.626 13.954l-.889.382zM281.826 406.718c-5.242-2.318-9.536-3.748-13.279-6.068-1.893-1.174-4.213-4.216-3.894-5.967 1.474-8.065 3.374-16.129 6.15-23.822.67-1.858 5.249-3.05 8.048-3.084 1.421-.017 3.942 3.127 4.118 5.015.472 5.058-.108 10.208-.165 15.323-.047 4.236.183 8.479.037 12.71-.072 2.114-.709 4.209-1.015 5.893zM274.711 437.017c-.186 4.053-.122 8.849-.695 13.567-.684 5.638-3.195 7.577-8.402 7.337-6.424-.296-9.301-2.173-8.53-8.075 1.176-9.002 3.48-17.933 6.267-26.584.551-1.712 5.415-2.501 8.356-2.692.886-.058 2.608 3.256 2.87 5.173.473 3.462.134 7.036.134 11.274zM261.565 234.793c-.871-5.336-2.068-10.648-2.458-16.018-.161-2.226 1.406-4.577 2.187-6.871 2.05.96 4.942 1.361 6.012 2.972 7.019 10.568 8.83 22.455 7.29 34.833-.251 2.021-2.241 4.989-3.907 5.358-1.829.405-4.614-1.251-6.279-2.777-5.246-4.808-4.001-11.233-2.845-17.497zM199.415 513.946c2.158-8.2 3.663-15.05 5.818-21.689 1.327-4.089 4.836-5.58 8.978-4.171 4.17 1.418 7.219 3.949 6.032 9.027-1.201 5.138-2.533 10.246-3.849 15.357-.262 1.019-.664 2.01-1.085 2.978-2.221 5.101-6.757 8.341-10.638 6.233-2.581-1.404-3.759-5.39-5.256-7.735zM372.932 284c-1.141 1.943-2.131 5.377-3.456 5.512-2.543.259-6.024-.592-7.795-2.329-6.116-6.001-7.163-14.493-3.57-22.315.955-2.078 1.543-4.466 2.97-6.14 1.184-1.388 3.393-2.689 5.073-2.601 1.222.064 3.156 2.354 3.337 3.829.963 7.825 1.472 15.705 2.139 23.566l1.302.478zM420.325 506.51c.772-4.718-.974-9.53 4.408-10.18 4.488-.542 8.162 1.151 9.451 6.348.4 1.611 2.329 2.843 3.556 4.249.991 1.136 3.02 3.008 2.814 3.3-2.833 4.014-5.306 8.874-9.239 11.343-3.515 2.207-6.955-1.714-8.438-5.137-1.497-3.461-1.935-7.381-2.552-9.923zM259.086 487.755c-1.697 3.323-3.48 8.136-6.395 12.121-2.54 3.474-7.153 3.063-8.568-.861-1.72-4.769-2.677-10.214-2.273-15.231.369-4.581 4.879-5.592 9.1-4.928 4.151.653 7.176 2.768 8.136 8.899z"/></svg>