<svg xmlns="http://www.w3.org/2000/svg" xml:space="preserve" baseProfile="tiny" overflow="visible" version="1.2" viewBox="0 0 600 600"><path d="M561.785 92.294c-7.482 3.69-14.845 9.028-23 10.883-4.294.977-7.064 2.378-8.759 4.331-9.763 4.977-25.89 13.747-34.186 17.877l-10.229-13.639c-7.68 5.945-14.18 12.072-21.668 16.546-16.017 9.572-32.609 18.175-48.837 27.402-8.974 5.103-17.479 11.055-26.585 15.89-6.633 3.522-13.959 5.714-20.867 8.75-3.809 1.674-7.606 5.725-11.015 5.327-3.784-.442-8.535-3.977-10.399-7.477-7.291-13.689-22.323-15.838-33.678-23.105-10.858-6.949-20.782-28.396-14.021-39.587 6.63-10.975 4.271-21.698.477-32.121-2.094-5.754-6.515-10.235-14.909-7.591-7.308 2.302-15.37 2.208-23.193 3.184-8.417 22.272-10.864 24.55-4.611 52.221.821 3.636 1.566 8.135.14 11.21-1.614 3.479-5.482 7.898-8.78 8.268-14.891 1.672-26.036 9.362-36.01 19.592-7.533 7.726-15.298 15.248-22.484 23.286-8.451 9.454-16.969 18.947-24.382 29.201-7.307 10.107-6.011 16.049 3.253 25.653 4.479 4.643 9.17 9.086 13.508 13.853 1.166 1.281 1.646 3.369 2 5.174 2.132 10.844-1.47 14.568-13.09 20.944-5.543 3.042-12.64 11.066-11.954 15.808 1.02 7.039 7.247 14.522 13.254 19.309 6.247 4.977 12.503-.24 17.196-5.472 6.925-7.719 19.498-9.587 20.941-22.968l2.357 1.085c.613 1.851 2.03 3.854 1.711 5.527-2.56 13.42-2.401 28.567-8.958 39.729-9.54 16.24-11.847 31.47-11.882 50.14-.06 31.343-5.688 62.722-9.897 93.961-.69 5.123-5.195 10.868-9.582 14.079-5.984 4.38-13.6 6.493-20.389 9.838-1.438.708-2.853 2.401-3.246 3.91-.209.804 1.833 3.192 2.783 3.15 10.996-.486 22.405 4.361 33-3.059 2.062-1.444 6.792-.662 9.494.689 8.434 4.218 16.899.52 17.263-8.542.789-19.644 1.939-38.677 10.188-57.523 7.797-17.814 10.937-37.665 16.135-56.618.998-3.637 1.024-8.125 3.244-10.739 8.668-10.209 18.038-19.822 27.889-30.459 4.289 3.843 7.62 5.861 9.607 8.791 5.95 8.772 12.439 17.421 16.752 27.003 6.391 14.2 16.141 27.13 15.604 44.239-.271 8.626 1.308 18.528 5.54 25.83 9.415 16.243 9.926 33.564 8.935 50.973-.522 9.178 2.249 11.716 10.277 10.696 10.137-1.288 19.395.606 28.017 6.236 1.664 1.087 4.404 1.203 6.475.824 2.833-.519 5.502-1.94 8.241-2.974-1.512-3.224-2.217-8.302-4.667-9.368-14.882-6.473-17.083-20.523-17.98-33.138-2.048-28.816-1.585-57.805-2.491-86.712-.142-4.533-1.625-9.205-3.352-13.461-2.25-5.545-6.797-10.472-7.856-16.133-4.204-22.476-7.317-45.154-11.079-67.716-1.591-9.541-.384-18.045 6.861-25.869 1.407 1.753 2.763 2.794 3.239 4.146 2.489 7.056 7.077 10.458 14.626 8.637 7.138-1.722 9.7-7.277 9.464-13.739-.451-12.358-1.938-24.677-2.413-37.035-.375-9.756-1.504-19.972.898-29.146 1.252-4.782 9.175-8.132 14.496-11.472 13.182-8.276 26.705-16.009 39.892-24.278 9.759-6.119 19.491-12.354 28.719-19.229 12.318-9.177 24.437-17.422 41.142-12.238 2.954.917 7.257-1.092 10.457-2.704 5.855-2.95 11.5-6.394 16.945-10.057 3.24-2.18 10.849-5.526 14.189-8.182.308-.174.624-.34.935-.511 2.443-.819 3.833-1.613 4.499-2.358 4.646-2.311 9.357-4.38 13.292-6.343 12.54-6.253 13.334-6.731 12.514-12.629zM226.961 252.771c-1.119 3.761-5.398 7.739-9.183 9.132-2.418.89-6.9-2.252-9.755-4.484a85.678 85.678 0 0 1-12.127-11.563c-6.167-7.172-4.729-17.032 2.354-23.345a124.809 124.809 0 0 0 13.531-14.088c4.86-5.942 9.984-6.048 12.2 1.256 2.531 8.346 3.171 17.265 4.634 25.936l-1.262.177c0 5.698 1.165 11.744-.392 16.979z"/></svg>