<svg xmlns="http://www.w3.org/2000/svg" xml:space="preserve" baseProfile="tiny" overflow="visible" version="1.2" viewBox="0 0 600 600"><path fill="none" d="M0 0h600v600H0z"/><path d="M220.455 527.935c-5.611 3.055-18.604 1.321-24.53.105-8.779-1.801-5.586-8.336-5.953-16.4-.38-8.35-2.797-16.483-4.326-24.657-1.608-8.594-5.897-13.638-9.778-21.269-3.024-5.946-4.207-16.675-11.916-9.604-2.729 2.503-4.698 7.99-7.08 10.97-2.957 3.699-6.501 6.825-9.6 10.383-5.68 6.521-10.293 13.658-12.725 22.017-1.407 4.835-1.536 7.861-.448 12.645.777 3.419 5.335 8.872.402 10.65-2.664.96-18.814-7.572-19.968-9.943-2.167-4.452 6.205-19.282 7.84-24.347 5.384-16.678 14.98-31.115 21.499-47.559 7.624-19.233 7.391-39.538 5.636-59.713-.813-9.346-2.671-19.14-.845-28.456 2.598-13.256 2.595-17.23-5.283-28.558-11.604-16.685-24.209-32.988-36.782-48.923-3.681-4.666-6.696-9.449-12.303-11.43-4.837-1.709-9.351-.318-13.681-3.537-6.229-4.632-15.52-19.663-17.429-27.302 9.735 2.596 11.784 17.968 20.502 22.565 6.401 3.376 3.107-1.035 8.249-1.849 5.073-.803 5.874 2.101 9.896 7.561 7.717 10.475 16.033 20.427 24.365 30.418 6.297 7.55 19.216 30.032 29.404 31.921 1.029-12.567 2.512-30.764 19.496-25.3 8.769 2.821 10.947 7.231 10.543 15.827-.132 2.812-.202 6.638-1.17 9.33-1.278 3.554-5.406 5.965-6.41 9.258-3.24 10.622 11.64 26.468 17.98 32.988 4.406 4.53 4.352 8.631 7.734 14.411 3.75 6.409 8.167 9.386 14.216 13.504 4.375 2.979 12.648 6.62 12.816 12.747.184 6.684-6.008 8.837-11.28 10.156-4.655 1.165-8.967 1.657-13.74 1.032-2.926-.383-7.018-3.639-9.96-1.77-4.354 2.765-1.118 17.442-.244 22.655 1.369 8.17 5.373 15.51 6.953 23.631 1.832 9.418 2.89 19.765 3.96 29.338.814 7.281-1.342 14.38.557 21.361 2.116 7.782 6.758 11.217 13.403 15.144zM185.661 385.46c3.532 4.369 11.25 6.877 8.727-1.918-2.647-9.226-7.19-2.871-8.727 1.918z"/></svg>