<svg xmlns="http://www.w3.org/2000/svg" xml:space="preserve" baseProfile="tiny" overflow="visible" version="1.2" viewBox="0 0 600 600"><path d="M521.592 281.014c-31.96-93.543-177.681-33.188-240.689-87.675-5.006-4.567-7.297-12.057-15.862-15.497 14.813 68.602 112.102 55.238 165.192 64.285 81.569.924 102.903 100.289 16.937 118.408-54.636 12.697-123.805 5.388-155.877 61.572 7.021.587 9.544-3.944 12.411-6.674 12.162-11.582 26.922-18.099 42.661-22.37 51.907-17.936 118.873 1.8 159.666-41.395 17.891-21.643 23.242-44.969 15.561-70.654z"/><path d="M300.007 362.989c7.815-3.672 9.156-14.043 5.417-20.09-4.077-6.593-4.118-9.507.155-15.677 5.032-7.268-2.552-12.529-5.447-18.859-2.605-5.696 11.418-11.001 4.739-19.784-14.087-15.8 13.041-25.445-4.013-38.029-12.864-9.446-27.36 9.064-16.719 20.67 2.587 2.807 6.126 4.738 10.357 7.91-8.246 2.148-16.564 6.381-12.539 14.403 5.733 11.425.31 20.652-1.581 30.788-.324 1.726-.902 4.415-.039 5.194 8.116 7.327-.58 11.358-2.761 19.475-18.201-23.281 2.936-15.921-5.06-32.743-12.85-11.159 9.435-28.824-7.653-38.595 6.797-7.436 11.356-17.549 3.271-25.043-5.368-5.494-13.147-2.996-18.986.727-8.499 5.42-4.004 12.705-1.229 19.271 1.066 2.524 6.525 4.408 2.553 7.516-9.319 7.291-5.783 16.31-4.059 24.859 2.069 10.265-7.183 21.891 3.708 31.154-4.793 7.53-9.393 19.076 1.274 24.531 7.731 4.465 16.322 3.55 21.377-4.15 11.277-15.002 5.643 17.15 27.235 6.472zM371.135 253.357c-4.223-5.42-11.129-5.479-17.571-4.86-6.433.618-6.594 8.001-10.888 10.851-3.173-.683-2.725-3.46-3.665-5.348-7.863-16.755-34.301.08-24.564 13.427 4.952 7.084 4.376 10.823 1.236 19.108-4.32 11.402.45 25.206-.893 38.176-.646 6.237 2.215 12.603.175 19.828-1.659 5.871-3.524 14.895 6.858 17.622 9.407 2.471 14.644-2.084 17.682-10.262 4.367-9.753-12.852-16.807-4.881-21.637 9.638-7.456 2.815-14.8.359-23.44-2.049-7.206 11.53-16.119.354-25.011-3.899-3.103-5.954-6.617-.276-9.089 4.402-1.916 3.027-7.381 8.081-9.592 1.109 8.305 8.222 10.265 15.259 13.059-33.653 21.054 3.914 23.008-10.565 36.835-10.43 13.421 4.783 11.723-1.929 31.1-5.69 19.713 13.419 21.129 25.274 11.044 5.842-3.921 4.4-10.206 1.191-15.854-12.973-10.958 20.572-10.102-8.585-34.516 27.553-16.742-9.142-22.081 5.426-34.03 4.343-4.508 6.403-11.661 1.922-17.411zM234.692 337.927c-8.214-7.516 10.182-11.129-.748-25.448-9.921-10.852 18.975-20.288-12.199-32.924 8.125-5.375 19.331-8.659 13.665-18.829-5.796-9.154-14.734-3.871-22.111-1.882-5.748 1.549-10.122 7.058-5.805 12.381 4.944 6.095 3.583 9.43-.539 14.761-2.426 3.138-4.097 7.965-1.233 12.692 7.332 9.982-5.591 21.145 2.021 31.007 2.063 3.022 2.358 4.679-.275 8.702-10.559 16.665 16.155 29.889 27.878 18.533 4.684-3.891 6.652-12.841-.654-18.993zM190.352 307.022c1.192-3.965 8.028-7.277 5.664-13.292 2.509-18.239-31.556-14.028-24.161 2.267 7.64 14.533-3.195 25.36 3.024 33.341 10.102 8.7-11.478 10.713 3.342 22.287 8.967 8.384 23.515 1.477 18.356-11.224-3.044-10.899 4.154-23.743-6.225-33.379zM162.926 317.463c-4.467-5.758-3.551-10.73-.744-17.287 4.581-10.707-1.003-18.027-12.22-18.253-4.657-.017-9.597.179-11.48 5.254-1.783 4.802-5.237 10.147.149 14.935 3.234 2.875 4.201 5.803 1.303 9.342-6.307 7.699-7.049 14.498 2.895 19.856 1.864 1.005 2.224 2.787.735 4.442-10.338 9.032 10.131 14.3 16.374 10.544 5.31-2.283 1.905-6.743.002-10.292-2.516-6.123 9.08-10.744 2.986-18.541z"/><path d="M383.302 355.191c6.411 3.649 12.641 2.788 16.959-2.975 7.002-9.344-6.515-21.575 3.723-31.245.984-.93-1.34-7.355-3.706-9.425-10.918-9.251.279-8.959.855-16.957 4.651-18.593-26.673-18.995-21.161-4.727 5.756 10.931 2.779 20.855.35 31.331-.472 2.035-.279 5.687.921 6.408 15.188 8.174-13.96 17.552 2.059 27.59zM490.31 299.593c11.907-12.087-10.505-27.781-21.508-18.242-5.021 3.911-6.012 10.808-1.179 15.65 5.795 5.806 2.035 9.953-.152 15.321-5.146 12.626-1.874 18.197 10.227 17.949 5.919.687 10.598-1.701 13.921-7.57 8.342-13.884-12.232-15.418-1.309-23.108z"/><path d="M435.4 296.573c9.929 7.369 3.609 11.811-.114 18.214-10.765 27.957 47.336 18.846 12.531-10.811 5.47-4.752 15.449-11.866 7.578-19.978-4.519-4.692-9.448-6.925-15.685-3.646-7.44 3.912-7.396 13.93-4.31 16.221zM127.313 297.25c2.846-12.897-11.137-19.809-17.229-9.571-2.478 4.929-7.979 11.188-1.574 15.694 7.27 5.114 5.082 7.984.848 13.378-7.213 7.527 3.961 21.202 13.399 15.948 5.05-2.564 8.682-8.469 5.63-12.079-7.685-9.09-3.167-17.3-1.074-23.37zM97.963 316.14c-7.747-4.56-9.144-8.099-.444-13.938 4.18-2.805 1.208-7.724-3.732-8.571-5.79-.993-10.37 2.882-14.748 5.839-8.433 5.137 10.044 8.461-.992 12.344-3.085 1.478-4.218 4.539-1.557 6.276 6.15 4.313 21.795 16.385 23.7 2.129-.553-1.075-.948-3.327-2.227-4.079zM389.546 273.656c16.371.426 14.647-22.802-.379-24.187-12.968.789-12.878 24.992.379 24.187z"/><path d="M417.446 330.966c16.187 1.684 13.684-24.164-.22-23.802-12.716.116-14.188 24.263.22 23.802zM408.064 289.85c-3.189 13.472 18.434 17.093 18.825 2.824 2.156-14.574-18.652-18.342-18.825-2.824zM416.091 252.018c-11.404-1.83-12.401 22.69.68 21.088 12.555.081 12.53-21.67-.68-21.088zM455.993 264.281c-.45-11.704-23.238-12.646-22.212.542.155 7.889 6.863 6.834 14.078 7.661 3.449-.284 8.781-2.177 8.134-8.203zM417.99 336.101c-11.455-1.113-12.842 18.422-.626 16.895 12.251.165 12.481-17.168.626-16.895zM183.291 276.364c11.562 2.355 15.739-12.648 2.878-13.118-5.874-.214-11.638 1.25-11.992 7.793-.287 5.295 5.634 4.449 9.114 5.325zM446.477 334.72c-3.785 1.507-10.929.828-10.889 8.121.179 9.381 20.076 7.752 19.195-2.11-.135-3.952-2.761-6.535-8.306-6.011z"/></svg>