<svg xmlns="http://www.w3.org/2000/svg" xml:space="preserve" baseProfile="tiny" overflow="visible" version="1.2" viewBox="0 0 600 600"><path d="M474.489 261.596c37.095 20.686 75.715 8.611 29.067-27.754-12.962-14.922-22.287-29.47-40.462-38.611-5.202-5.066-9.025 4.487-13.542 6.468-25.688 6.254-65.365 50.129-83.556 15.685-12.138-11.787-12.912-31.701-21.058-46.22-2.736-14.201 8.183-29.576 3.208-44.275-2.092-12.261-19.563-21.472-28.333-8.157-11.951 13.489 1.144 36.813-20.228 46.156-26.425 16.716-20.319 54.206-28.406 77.346-40.595 41.401-106.74 15.024-146.105 52.281-22.254 11.044-69.053 68.013-32.041 81.327 15.88-5.624 33.98-14.914 40.023-31.529 5.581-.214 3.957-9.67 10.771-8.443.324.058 1.095-1.133 1.295-1.849 3.989-5.349 15.675-17.107 22.109-14.891 2.019 1.513 3.175 3.778-.5 5.225-.408 6.604.117 14.555-.434 21.602.165 13.308-11.567 24.052-24.092 25.396-26.369 3.879-22.548 30.543-38.461 45.911-7.652 7.222-14.893 14.875-24.792 19.366-12.801 14.366 8.873 16.796 17.417 7.282 26.615-35.362 50.483-53.013 99.2-48.867 8.182-1.796 26.086-7.24 27.607 5.351-3.735 36.028 45.243 45.104 45.581 82.219 2.272 7.132 16.673 6.173 16.177-1.619-4.951-17.983-19.42-34.018-33.864-45.759-5.196-47.474 21.298-46.078 58.972-39.571 33.126-4.733 56.885 13.426 84.472 26.932 48.479 4.309 37.18 41.199-1.349 51.453-12.695 5.393-.165 19.985 8.011 10.607 13.052-12.322 29.308-19.505 43.057-32.511 8.304-7.045 4.965-23.842 20.747-20.092 25.077 3.273 28.244 31.782 39.328 48.128.407 15.36 25.339 4.445 11.994-6.078-16.606-19.904-25.939-47.23-46.594-63.257-9.516-5.443-24.527-5.134-26.399-18.906 15.378-27.955-7.473-129.327 31.18-130.346z"/></svg>