<svg xmlns="http://www.w3.org/2000/svg" xml:space="preserve" baseProfile="tiny" overflow="visible" version="1.2" viewBox="0 0 600 600"><path fill="none" d="M0 0h600v600H0z"/><path d="M497.349 494.274c-18.279-17.189-40.82-31.561-56.906-50.323-2.256-9.291-6.343-17.774-12.507-25.034-24.749-30.112-51.045-15.543-60.53-34.818-6.52-.131-2.536-10.999-9.624-8.807-6.024 2.634-34.258 30.954-16.276 31.356-5.303 4.716-11.044 8.938-14.933 15.037-4.627 5.82-37.312 4.085-47.15 6.334v-31.941H101.674v72.341h11.054c3.703 71.072 116.827 79.689 127.672 0h39.022v-29.382c64.99 11.878 15.684 2.209 44.482 54.639 27.456 47.561 103.637 35.301 116.646-17.467 14.86 10.642 29.083 22.151 43.669 33.19 1.14.885 1.911 1.114 2.959-.047 1.63-3.438 14.79-12.201 10.171-15.078zm-364.958-12.732c-3.127 2.454-4.534-7.305-5.866-13.124h29.546c-7.89 4.382-15.804 8.717-23.68 13.124zm12.7 19.664c-1.404-2.653-12.875-10.51-9.16-12.589 9.682-4.926 18.739-11.04 28.684-15.313-5.322 9.439-10.898 18.018-16.31 27.318-.997 1.686-1.91 1.939-3.214.584zm26.241 8.017c-.019 2.056-.783 2.809-2.672 2.251-2.534-1.592-16.455-2.8-13.981-6.595 5.964-8.917 10.517-19.142 17.131-27.386.119 10.838-.373 21.002-.478 31.73zm23.296-.712c-5.236 1.042-9.972 3.066-15.371 3.341.215-11.272.425-22.294.637-33.316l.844-.132c5.053 8.994 9.921 18.092 14.98 27.082.914 1.622.926 2.542-1.09 3.025zm20.915-15.505c-3.013 1.643-10.363 13.662-12.995 8.447-5.003-9.56-10.391-18.518-15.317-28.169 9.725 5.35 18.166 10.818 27.638 16.307 1.738 1.017 2.116 2 .674 3.415zm10.275-23.931c-1.558 2.582-2.671 16.701-6.509 14.29-8.011-5.232-16.67-9.535-24.505-14.946h31.222c.016.201-.036.416-.208.656zm121.9-48.948c8.272-7.157 8.185-4.262 16.391 1.099-2.539 1.966-4.448 3.634-7.373 3.199-3.081-.393-10.631.819-9.018-4.298zm-19.27 29.343 32.787 9.453-.097.853c-10.088 2.55-20.204 4.988-30.292 7.545-4.624 1.974-1.529-14.219-2.398-17.851zm9.571 40.133c-.669-2.926-9.713-13.486-5.587-14.532 10.628-2.25 20.959-5.81 31.671-7.361-7.585 7.738-15.193 14.581-22.829 22.161-1.397 1.371-2.346 1.379-3.255-.268zm20.106 16.022c-2.034-2.194-15.167-6.966-11.795-9.991 8.07-7.068 15.115-15.765 23.639-22.015-2.692 10.499-5.799 20.189-8.679 30.524-.551 1.98-1.483 2.51-3.165 1.482zm25.849 3.864c-5.327-.35-10.425.378-15.711-.754l9.242-32.014.851.092c2.552 9.996 4.897 20.044 7.455 30.037.463 1.802.236 2.694-1.837 2.639zm24.218-9.56c-3.337.807-13.548 10.512-14.739 4.794-2.356-10.529-5.241-20.578-7.499-31.174 8.007 7.686 14.744 15.154 22.472 22.908 1.415 1.432 1.526 2.478-.234 3.472zm16.123-20.454c-2.175 2.09-6.907 15.439-9.988 12.116-7.229-8.074-15.577-15.207-22.194-23.715 3.733 1.994 36.583 7.995 32.182 11.599zm-14.768-14.883c-1.662-.462-1.824-1.147-.817-2.457 1.692-1.593 2.631-5.87 5.527-4.924 4.697 4.107 11.636 5.972 13.9 12.171-6.635-.617-12.196-3.317-18.61-4.79z"/></svg>