<svg xmlns="http://www.w3.org/2000/svg" xml:space="preserve" baseProfile="tiny" overflow="visible" version="1.2" viewBox="0 0 600 600"><path fill="none" d="M0 0h600v600H0z"/><path d="M382.482 512.686c-1.046.966-1.792 2.268-2.688 2.383-6.133.781-11.932 2.965-17.917 4.105-2.929.558-6.117-.361-9.269 1.103-3.363 1.562-4.839-2.489-7.389-3.529-3.204-.03-4.568 5.419-8.349 2.888-2.025-1.105-1.642-4.222-4.301-4.472-2.351.096-2.086 2.679-3.811 3.887-3.371.044-5.953-2.246-8.625-4.201-1.276-.933-1.543-2.445-1.024-3.967.653-1.917 2.098-2.868 4.066-2.858 3.119.016 6.11-.562 8.676-1.718 7.58 1.952 10.306.875 15.049-6.001-6.251-7.922-15.147-1.872-22.451-3.881-2.041-4.084-3.388-8.085-3.188-12.637.242-5.494.084-11.006.051-16.51-.042-7.027-1.694-8.799-8.911-8.96-8.415-.187-16.836-.097-25.254-.192-3.07-.035-6.141-.222-9.207-.402-2.149-.126-4.21-.029-6.665 2.066-2.986 9.039.076 19.092-1.095 28.889-.845 1.558-2.285 2.575-3.914 2.492-5.979-.303-11.576 2.493-17.772 1.415-6.908-1.202-12.531 2.919-12.732 8.078-.12 3.07.857 5.172 4.06 6.304 4.042 1.429 7.922 1.738 12.279 1.483 7.367-.431 14.82.427 22.224.925 2.135.144 4.034 1.169 4.878 3.716-1.417 4.894-5.732 6.061-9.812 6.188-6.589.206-13.269.996-19.819-.457-4.053-.9-7.559 1.297-11.402 1.7-8.645.906-17.07-1.766-25.59-1.018-8.317.73-16.505-.557-24.755-.767-2.632-.067-4.901 1.831-7.688 1.107-2.729-1.912-2.553-4.507-1.562-7.294 1.154-3.244 3.844-4.367 6.877-4.446 4.993-.13 9.995.189 14.992.14 5.162-.051 10.368.054 15.473-.574 7.568-.931 9.838-4.693 8.56-13.854-6.301.654-11.977-3.696-19.045-1.383-4.257 1.393-9.492-.16-14.118-.703-3.905-.459-7.177-.673-9.079.556-14.214.071-27.001-2.045-39.63 1.424-1.949.364-3.002-1.548-4.773-1.88-2.775-.524-4.754 1.963-7.972 1.962-3.153-3.303-7.091-2.571-11.221-.811-2.632 1.121-4.812 2.505-3.913 5.69.906 3.209 3.401 4.93 6.691 4.154 3.956-.933 7.709-.402 11.5.505 1.719.412 3.513.808 4.474 2.775.567 2.821-1.158 3.964-3.632 4.553-1.879.447-3.754 1.322-5.628 1.315-9.976-.036-19.636 4.059-30.013.736-5.967-1.911-12.954-2.777-19.4.161-.681.31-1.553.201-2.246.277-3.386-5.052-.669-10.6 5.462-11.034a69.935 69.935 0 0 1 12.124.2c3.978.414 6.886-1.227 9.602-3.689 1.717-1.557 2.435-3.48 1.505-5.686-.988-2.344-3.131-2.87-5.288-2.37-3.859.893-7.666 1.056-11.444.073l-5.361 2.452c-3.005-1.312-5.198-3.361-7.628-6 3.707-5.35-.703-12.364 3.755-17.8.327-.398.274-1.316.089-1.894-3.285-10.269-.93-20.702-.985-31.064-.011-2.092-.26-4.2-.591-6.27-1.735-10.875.619-21.541 1.833-32.227.741-6.521 5.681-9.822 12.135-8.749 5.205.865 9.727-2.013 14.761-2.098 1.995-.034 3.259-2.142 2.808-4.392-.504-2.516-1.915-5.237-4.529-4.964-4.749.495-9.666-2.833-13.971 1.134l-3.918-3.272c-3.858-.648-6.364 3.398-10.125 2.662.128-6.505 4.694-10.354 10.456-10.1 6.733.297 13.512-.184 20.258-.556 5.492-.303 10.949-1.109 16.293 1.083 2.485 1.019 5.077.4 7.653-.085 3.186-.6 6.206-.493 7.28 3.858-2.594 3.509-7.623 3.41-9.779 6.485-3.787 1.126-5.231-2.486-7.948-2.716-5.906 2.483-7.582 7.739-3.831 12.915 11.743 1.429 23.817.965 35.851 1.274 16.013.411 32.031.574 48.046.923 6.644.145 13.204.138 19.752-1.558 3.576-.927 6.647-1.397 6.371-6.132-.374-6.404-2.213-9.541-7.313-9.631-10.01-.176-19.989-1.935-30.047-.496-3.197.457-6.785 1.483-9.403-1.503-.767-2.831-.044-5.002 1.636-6.761 1.776-1.165 3.598-.853 5.357-.889 14.552-.296 29.152-.725 43.648-.622 14.271.102 28.638 1.437 42.991 1.746 2.578.056 5.156.868 6.178 3.936-.869 3.508-3.658 4.109-6.663 4.4-9.351.905-18.722 1.095-28.112.897-7.552-.16-10.71 4.018-8.75 11.195 1.081 3.958 3.872 5.377 7.61 5.443 5.179.091 10.36.123 15.54.09 3.622-.023 7.065.501 9.988 2.399 2.306 8.061-.289 15.895.056 23.741.245 5.586 1.528 7.586 7.153 7.545 12.384-.092 24.806 2.147 37.169-.673 4.891-1.116 7.051-3.102 7.214-8.112.105-3.235.013-6.476.066-9.713.107-6.47 3.492-10.495 9.785-11.911 3.213-.722 6.454-.315 9.674-.535 7.503-.513 11.082-5.129 9.607-12.509-.616-.268-1.456-.999-2.045-.833-7.19 2.021-14.444-1.206-21.636.364-3.206.7-5.839.112-6.166-3.904 1.354-2.973 4.008-3.831 6.74-4.228 16.254-2.359 32.555-1.659 48.85-.507 1.589.112 3.24.368 4.479 1.605 1.093 4.636-1.594 7.407-7.093 7.15-2.74-.128-5.47-.724-8.203-.72-4.442.005-8.384 4.755-7.856 9.15.4 3.333 3.433 4.439 8.426 4.366 8.813-.128 17.65-1.017 26.464.6 3.628.666 7.469.97 11.117.571 10.482-1.149 20.944.291 31.382-.152 9.507-.403 19.071 1.279 28.519-.788 3.644-.797 7.681-1.112 7.271-6.524-.626-8.256-2.163-9.805-9.051-10.192-12.881-.725-25.754-.726-38.636-.234-.444.017-.902-.297-1.335-.451-1.808-1.951-1.118-3.537.643-4.947 2.472-1.979 5.182-3.085 8.474-3.029 10.52.179 21.194 1.31 31.522-.07 10.447-1.396 20.411.404 30.6.935 8.556.446 17.155.039 25.733.151 2.317.03 5.003-.211 6.308 3.433-9.226 6.222-20.156 3.712-30.961 5.456-5.96-2.233-9.996-1.392-12.81 3.168-4.063 6.582-.319 12.936 7.911 13.179 5.983.176 11.976-.001 17.963.09 2.815.043 5.514.569 7.107 3.708-.48 2.871-.148 5.732 1.497 8.569 1.496 2.58 1.252 5.733.867 8.585-1.612 11.924-.465 23.917-1.121 35.842-.656 11.924 1.149 23.861-.779 35.779-.929 5.745-1.69 6.853-7.333 7.47-5.748.628-11.404 2.053-17.28 1.092-1.327-.217-3.003.211-4.188.907-2.919 1.713-6.205 3.561-5.967 7.552.253 4.238 3.833 5.194 7.219 5.992 6.038 1.422 12.215.427 18.315.722 4.295.207 8.697.288 13.051.282 4.976-.008 6.222 1.913 5.256 7.783-4.741 2.015-9.848 3.804-15.354 3.949-5.013.132-10.104.416-15.036-.269-6.857-.951-13.076 2.36-20.078 1.733-7.458-.667-14.902-2.471-22.532-1.786-6.571.59-13.176-1.243-19.804.034-2.399.462-4.868.151-6.658-1.811-1.531-6.742.662-9.657 7.358-9.579 8.241.095 16.506-.546 24.713.87 2.753.475 5.498-.184 8.121-1.07 3.948-1.333 5.252-4.53 4.477-10.014-.553-3.916-3.275-4.384-6.383-4.365-13.572.082-27.088-1.755-40.734-.424-6.168.602-12.566-1.009-18.875-.465-11.383.982-22.858-.41-34.208 1.409-1.239.199-2.57-.126-3.852-.266-3.626-.394-5.603 1.216-5.713 4.851-.116 3.858 1.884 5.842 5.715 5.359 3.698-.466 7.37-1.154 11.105-.781 3.275.326 5.907 1.543 6.474 5.801zm-239.148-65.871c2.966-2.636 4.309-6.873 7.483-8.285 2.631-.495 4.171 1.323 6.573.122 1.773-3.189-.5-6.343-1.026-10.164-5 1.775-8.399-1.178-11.809-3.884-.934.792-1.582 1.259-2.13 1.823-1.529 1.577-3.281 2.15-5.218.938-1.403-.878-1.681-2.359-1.164-3.866.747-2.175 2.508-3.088 4.603-2.596 5.02 1.179 10.251-2.257 14.673 1.167 3-1.705 5.208-3.851 8.42-3.443 6.099.776 12.48-1.869 18.401 1.637.977.579 2.556.328 3.828.193 7.828-.833 15.634-1.931 23.299-1.566 3.484-3.159 2.566-5.945-3.077-9.692-.481-4.494-4.626-4.849-7.77-6.713-4.012-2.379-7.476-.049-10.488.349-2.781-.677-3.68-3.192-6.671-3.384-3.771 4.497-8.33 1.491-12.587-.075-3.307 1.937-5.4 5.206-9.595 4.748-4.94-.539-10.002-.927-14.456 2.797-3.384-3.219-7.045-4.272-10.627-1.296-3.691 3.066-6.561 6.593-5.107 12.107.678 2.572.098 5.222-3.211 6.262l-4.208-1.235c-3.159.917-3.401 4.156-5.859 5.886-3.246.605-6.981 2.19-10.465 1.757-6.306-.784-9.417 2.957-12.914 6.759.837 5.346 4.604 5.289 8.075 4.29 5.562-1.6 11.145-1.37 16.794-1.586 5.392-.206 9.996 2.744 15.159 2.86 4.25.095 7.857 1.541 11.164 4.03-.719.932-1.636 1.811-2.812 1.678-4.98-.561-9.864-.654-14.716 1.049-1.001.351-2.438-.63-3.695-.894-1.25-.262-2.571-.702-3.786-.533-7.876 1.093-15.802.79-24.318 1.3-2.312 1.418-3.332 3.987-2.264 7.114 1.099 3.217 3.433 5.041 7.01 4.839 6.94-.39 13.91-.522 20.81-1.288 5.717-.634 10.872.757 15.995 2.85 3.833 1.566 5.469 4.218 4.511 8.459-.561 2.484-1.016 5.123.639 7.262 1.583 1.287 3.257.91 4.844 1.065 8.387.819 16.836-.88 25.181.473 4.62.749 9.025-.326 13.493-.818 2.819-.31 4.855-2.068 4.658-5.222-.19-3.027-2.155-4.593-5.061-4.945-3.262-.394-6.364.137-9.519 1.206-4.889 1.655-7.312.333-8.934-4.2 3.427-5.538 12.308-8.427 19.83-6.214 9.29 2.733 18.754 2.872 28.288 2.285 1.975-.122 3.852-.61 5.289-2.695.064-2.969 1.804-5.729 3.04-8.464-.92-3.027-2.888-3.207-5.423-3.068-5.24.287-10.687-1.913-15.663 1.468-.313.213-.97.043-1.424-.094-3.545-1.07-6.857-.744-10.394.587-3.412 1.284-5.916-.195-6.402-4.686 4.094-2.393 8.602-4.121 12.545-6.85 1.536-1.063 3.449-.094 4.893 1.139 2.577 2.2 5.334 2.914 8.489 1.196 1.368-.745 2.833-.292 4.28-.093 3.51.483 7.037.603 10.579.742 4.918.193 9.813 1.458 14.812 1.653 1.44.056 2.702 1.08 2.845 2.818-2.32 3.741-2.844 4.124-6.228 4.569-6.624.87-7.609 2.366-6.183 9.393.875 1.321 2.226 1.85 3.686 2.107 6.217 1.095 12.437 2.236 18.785 2.118 5.52-.103 10.427-8.488 6.927-12.682-4.004-4.799-3.92-8.417-.178-13.218 2.731-3.503 1.791-7.934-.896-11.304-2.676-3.357-5.18.088-7.714.933-.298.099-.637.074-1.039.115-2.458-.298-4.061-3.399-7.436-2.229-.41.383-1.141 1.004-1.796 1.698-.794.84-1.576 1.643-2.862 1.549-4.105-3.089-4.112-5.441-.422-8.678 5.646-1.398 12.68 1.483 15.662-4.411 2.327-4.598 10.039-7.723 5.762-14.818-3.963-2.447-5.872 2.056-9.449 2.367-3.266-3.389-7.195-4.155-11.638.026-5.375-8.088-10.892 1.592-16.074-.999-2.467 1.336-3.45 3.104-3.484 5.378-.058 3.871-.526 7.736.322 11.61.813 3.711-.233 6.958-3.433 10.065-8.57-5.77-17.587-6.697-26.064-1.421-2.826-.804-3.48-3.594-6.376-3.473-2.647.199-2.966 4.419-6.123 4.461-3.364.271-4.145-4.06-7.279-4.137-5.01 4.635-4.883 9.224.382 16.106 8.891 2.485 10.341 4.016 8.219 8.784-2.763.865-5.326-.987-8.308-.721l-3.933 1.922c-2.807-1.172-4.708-4.108-8.065-2.992-2.056.611-1.993 3.37-4.331 4.06-2.585-1.732-4.375-5.118-8.144-5.237zm269.744-43.982c-4 2.571-6.737 6.389-12.01 6.166-6.743-.285-13.531.5-20.3.805-4.886.22-7.292 3.028-7.859 7.626-.197 1.593-.148 3.235-.037 4.843.297 4.3-1.32 6.298-5.916 7.006-5.162.795-10.316 1.546-15.21 1.445-3.509 6.868-3.509 6.868-11.946 4.453-2.719 3.839-2.793 4.003-3.502 7.784.733 1.694 1.856 2.969 3.844 3.017 15.415-2.384 30.529-1.252 45.527 3.052-.566 2.788-1.834 3.616-3.278 3.938-7.217-2.262-14.122 1.712-21.083.171-7.25-1.605-14.537 2.429-21.809-.284-3.871 2.885-2.989 6.694-1.931 10.188 1.107 3.654 4.451 3.402 7.337 2.835 9.14-1.795 18.245-1.922 27.508-.837 9.842 1.153 11.787 2.787 12.191 12.838.115 2.872.765 5.421 4.057 5.573 5.769.266 11.687 4.092 17.119-1.059 7.705 5.454 15.305.388 22.869.621 2.249.069 4.311-1.798 4.139-4.541-.165-2.615-2.087-3.896-4.47-4.441-2.458-.562-4.731-.085-7.032 1.032-3.231 1.568-6.62 2.528-9.85.265-.754-1.959-.082-3.432.618-4.903 3.103-6.523 9.785-8.963 18.904-5.535 10.601 3.985 21.052.129 31.545.621.392.018.809-.489 1.221-.756l-1.22-4.169c.78-2.547 3.478-4.003 2.647-6.944-1.423-2.543-3.535-2.122-5.801-1.174-1.762.737-3.44 2.112-5.496 1.426-7.14-2.384-14.225-2.05-21.329.135-1.91.587-3.584.045-4.619-1.706-1.079-1.826-.609-3.72 1.063-4.699 4.768-2.793 10.032-5.918 15.488-4.064 8.201 2.788 16.388 2.79 24.772 2.527 4.179-.131 8.379.265 12.564.501 1.705.096 3.179.692 3.607 2.809-.004 1.264-.75 2.256-1.785 3.122-3.11 2.601-6.596-.651-9.739.527-1.413 3.948-.498 9.247 1.881 11.272 3.947 3.36 20.792 4.027 25.181.975.238-.165.327-.545.633-1.087-.904-4.356 1.638-9.304-1.975-13.71-1.324-1.614.152-3.68 1.171-5.371 1.851-3.074 3.542-6.198 3.036-10.005-.387-2.91-1.717-4.561-4.88-5.02-8.624-1.252-17.547 2.614-26.025-1.614-.9-.449-2.474.428-3.727.72-4.628 1.081-9.426 1.623-13.913.212-5.63-1.771-11.354-1.031-16.756-.518-8.708.827-17.339.999-26.526.905-3.734 2.512-5.011 6.486-3.834 11.119.983 3.87 3.739 5.737 7.86 5.926 2.797.129 4.852 1.601 4.954 4.724-1.718 2.573-4.01 1.485-6.214 1.551-5.702.173-11.445-1.421-17.128.753-4.037 1.544-6.058.056-7.606-5.115 2.766-3.201 7.892-3.553 10.394-7.685.047-.746.094-1.709.169-2.67.486-6.254-.621-7.431-6.921-7.352-1.456.018-2.996.341-4.351-.024-3.404-.917-7.432.087-10.361-2.935.853-3.023 3.14-2.644 5.154-2.771 7.371-.463 14.719.226 22.142-1.586 4.483-1.094 9.519-1.43 14.416-1.015 8.198.695 16.423 1.066 24.641 1.514 4.278.233 7.478-1.581 9.578-5.314.242-2.362-.174-4.535-1.154-6.496-3.073-2.407-6.579-3.57-9.938-5.129-5.76-2.671-12.49 1.335-17.752-3.914-4.658 5.349-8.875 2.654-12.947-.554zm88.421 5.692c-.788-1.92-2.417-2.588-4.285-2.573-5.668.046-11.24-3.434-17.035-.374-.816.431-2.313.072-3.286-.377-5.325-2.455-9.615 1.256-14.324 2.33-1.232.281-2.057 1.67-2.203 2.999-.436 3.982-.995 8.002.636 11.492 1.858 1.782 3.867 1.805 5.765 2.021 7.619.869 15.17.016 22.589-1.567 8.078-1.722 11.112-5.495 12.143-13.951zm-2.758 72.326c-.453-3.462-2.671-3.751-4.659-4.392-15.488-4.989-31.346-3.072-47.125-2.503-2.081.075-3.582 1.335-4.43 3.227.236 6.114 1.236 7.259 7.047 7.308 11.634.098 23.277.308 34.902-.037 4.831-.143 9.974-.364 14.265-3.603zm-299.267-.767c2.656-.162 5.106-.66 7.471-.396 11.281 1.258 22.548-.61 33.831.035 4.119.235 8.167-.794 11.139-3.598-.213-1.582-.788-2.192-1.599-2.378-5.955-1.36-11.656-3.834-17.949-3.71-9.67.191-19.344.289-29.015.208-2.839-.024-5.735-.569-6.951 2.753-1.094 2.986.11 5.346 3.073 7.086zm141.161-75.139c-5.354 6.728-5.122 12.383.438 16.295 7.049-2.449 14.279 1.311 21.552.542 4.163-3.616 5.227-8.214 3.47-13.053-1.792-4.933-5.705-4.896-9.889-4.837-5.288.074-10.277 3.022-15.571 1.053zm-221.103 1.818c.505-2.778 3.743-4.246 2.204-6.406-9.231-1.229-17.888.853-26.153-.772-4.549 2.655-2.745 6.919-3.358 10.359-.651 3.654 1.652 5.578 5.135 5.259 3.299-.302 6.399.614 9.563.744 5.228.214 10.672.703 15.989-1.867-1.253-2.893-3.607-4.653-3.38-7.317zm255.493 66.432c-4.509.614-8.948-.477-13.141-2.768-1.304-.713-2.956-.709-4.203.143-3.875 2.647-8.216 2.545-12.593 2.463-3.611-.067-6.699.813-8.119 4.698 1.151 3.812 3.839 5.626 7.556 5.644 8.852.045 17.713 1.028 26.554-.695 5.807-1.131 7.102-3.527 3.946-9.485zm-259.756-8.832c-5.216 4.7-10.886 4.556-16.565 4.724-3.281.097-5.62 2.015-5.383 5.543.222 3.314 3.012 4.202 5.679 3.888 5.07-.597 9.947.343 14.893.998 4.564.604 9.041-.139 13.331-1.684 4.625-1.665 5.556-5.423 2.136-9.759-5.078 2.534-9.991 2.167-14.091-3.71z"/><path d="M219.621 422.437c1.191-2.107 2.892-2.868 4.681-3.364 3.733 3.155 3.798 5.092.479 9.242-3.962-1.16-4.173-1.394-5.16-5.878z"/></svg>