<?xml version="1.0" encoding="iso-8859-1"?>
<!-- Generator: Adobe Illustrator 28.3.0, SVG Export Plug-In . SVG Version: 6.00 Build 0)  -->
<svg version="1.2" baseProfile="tiny" xmlns="http://www.w3.org/2000/svg" xmlns:xlink="http://www.w3.org/1999/xlink" x="0px"
	 y="0px" viewBox="0 0 600 600" overflow="visible" xml:space="preserve">
<g id="bg" display="none">
</g>
<g id="scans" display="none">
</g>
<g id="icons">
	<g>
		<path d="M521.592,281.014c-31.96-93.543-177.681-33.188-240.689-87.675c-5.006-4.567-7.297-12.057-15.862-15.497
			c14.813,68.602,112.102,55.238,165.192,64.285c81.569,0.924,102.903,100.289,16.937,118.408
			c-54.636,12.697-123.805,5.388-155.877,61.572c7.021,0.587,9.544-3.944,12.411-6.674c12.162-11.582,26.922-18.099,42.661-22.37
			c51.907-17.936,118.873,1.8,159.666-41.395C523.922,330.025,529.273,306.699,521.592,281.014z"/>
		<path d="M300.007,362.989c7.815-3.672,9.156-14.043,5.417-20.09c-4.077-6.593-4.118-9.507,0.155-15.677
			c5.032-7.268-2.552-12.529-5.447-18.859c-2.605-5.696,11.418-11.001,4.739-19.784c-14.087-15.8,13.041-25.445-4.013-38.029
			c-12.864-9.446-27.36,9.064-16.719,20.67c2.587,2.807,6.126,4.738,10.357,7.91c-8.246,2.148-16.564,6.381-12.539,14.403
			c5.733,11.425,0.31,20.652-1.581,30.788c-0.324,1.726-0.902,4.415-0.039,5.194c8.116,7.327-0.58,11.358-2.761,19.475
			c-18.201-23.281,2.936-15.921-5.06-32.743c-12.85-11.159,9.435-28.824-7.653-38.595c6.797-7.436,11.356-17.549,3.271-25.043
			c-5.368-5.494-13.147-2.996-18.986,0.727c-8.499,5.42-4.004,12.705-1.229,19.271c1.066,2.524,6.525,4.408,2.553,7.516
			c-9.319,7.291-5.783,16.31-4.059,24.859c2.069,10.265-7.183,21.891,3.708,31.154c-4.793,7.53-9.393,19.076,1.274,24.531
			c7.731,4.465,16.322,3.55,21.377-4.15C284.049,341.515,278.415,373.667,300.007,362.989z"/>
		<path d="M371.135,253.357c-4.223-5.42-11.129-5.479-17.571-4.86c-6.433,0.618-6.594,8.001-10.888,10.851
			c-3.173-0.683-2.725-3.46-3.665-5.348c-7.863-16.755-34.301,0.08-24.564,13.427c4.952,7.084,4.376,10.823,1.236,19.108
			c-4.32,11.402,0.45,25.206-0.893,38.176c-0.646,6.237,2.215,12.603,0.175,19.828c-1.659,5.871-3.524,14.895,6.858,17.622
			c9.407,2.471,14.644-2.084,17.682-10.262c4.367-9.753-12.852-16.807-4.881-21.637c9.638-7.456,2.815-14.8,0.359-23.44
			c-2.049-7.206,11.53-16.119,0.354-25.011c-3.899-3.103-5.954-6.617-0.276-9.089c4.402-1.916,3.027-7.381,8.081-9.592
			c1.109,8.305,8.222,10.265,15.259,13.059c-33.653,21.054,3.914,23.008-10.565,36.835c-10.43,13.421,4.783,11.723-1.929,31.1
			c-5.69,19.713,13.419,21.129,25.274,11.044c5.842-3.921,4.4-10.206,1.191-15.854c-12.973-10.958,20.572-10.102-8.585-34.516
			c27.553-16.742-9.142-22.081,5.426-34.03C373.556,266.26,375.616,259.107,371.135,253.357z"/>
		<path d="M234.692,337.927c-8.214-7.516,10.182-11.129-0.748-25.448c-9.921-10.852,18.975-20.288-12.199-32.924
			c8.125-5.375,19.331-8.659,13.665-18.829c-5.796-9.154-14.734-3.871-22.111-1.882c-5.748,1.549-10.122,7.058-5.805,12.381
			c4.944,6.095,3.583,9.43-0.539,14.761c-2.426,3.138-4.097,7.965-1.233,12.692c7.332,9.982-5.591,21.145,2.021,31.007
			c2.063,3.022,2.358,4.679-0.275,8.702c-10.559,16.665,16.155,29.889,27.878,18.533
			C240.03,353.029,241.998,344.079,234.692,337.927z"/>
		<path d="M190.352,307.022c1.192-3.965,8.028-7.277,5.664-13.292c2.509-18.239-31.556-14.028-24.161,2.267
			c7.64,14.533-3.195,25.36,3.024,33.341c10.102,8.7-11.478,10.713,3.342,22.287c8.967,8.384,23.515,1.477,18.356-11.224
			C193.533,329.502,200.731,316.658,190.352,307.022z"/>
		<path d="M162.926,317.463c-4.467-5.758-3.551-10.73-0.744-17.287c4.581-10.707-1.003-18.027-12.22-18.253
			c-4.657-0.017-9.597,0.179-11.48,5.254c-1.783,4.802-5.237,10.147,0.149,14.935c3.234,2.875,4.201,5.803,1.303,9.342
			c-6.307,7.699-7.049,14.498,2.895,19.856c1.864,1.005,2.224,2.787,0.735,4.442c-10.338,9.032,10.131,14.3,16.374,10.544
			c5.31-2.283,1.905-6.743,0.002-10.292C157.424,329.881,169.02,325.26,162.926,317.463z"/>
		<path d="M383.302,355.191c6.411,3.649,12.641,2.788,16.959-2.975c7.002-9.344-6.515-21.575,3.723-31.245
			c0.984-0.93-1.34-7.355-3.706-9.425c-10.918-9.251,0.279-8.959,0.855-16.957c4.651-18.593-26.673-18.995-21.161-4.727
			c5.756,10.931,2.779,20.855,0.35,31.331c-0.472,2.035-0.279,5.687,0.921,6.408C396.431,335.775,367.283,345.153,383.302,355.191z"
			/>
		<path d="M490.31,299.593c11.907-12.087-10.505-27.781-21.508-18.242c-5.021,3.911-6.012,10.808-1.179,15.65
			c5.795,5.806,2.035,9.953-0.152,15.321c-5.146,12.626-1.874,18.197,10.227,17.949c5.919,0.687,10.598-1.701,13.921-7.57
			C499.961,308.817,479.387,307.283,490.31,299.593z"/>
		<path d="M435.4,296.573c9.929,7.369,3.609,11.811-0.114,18.214c-10.765,27.957,47.336,18.846,12.531-10.811
			c5.47-4.752,15.449-11.866,7.578-19.978c-4.519-4.692-9.448-6.925-15.685-3.646C432.27,284.264,432.314,294.282,435.4,296.573z"/>
		<path d="M127.313,297.25c2.846-12.897-11.137-19.809-17.229-9.571c-2.478,4.929-7.979,11.188-1.574,15.694
			c7.27,5.114,5.082,7.984,0.848,13.378c-7.213,7.527,3.961,21.202,13.399,15.948c5.05-2.564,8.682-8.469,5.63-12.079
			C120.702,311.53,125.22,303.32,127.313,297.25z"/>
		<path d="M97.963,316.14c-7.747-4.56-9.144-8.099-0.444-13.938c4.18-2.805,1.208-7.724-3.732-8.571
			c-5.79-0.993-10.37,2.882-14.748,5.839c-8.433,5.137,10.044,8.461-0.992,12.344c-3.085,1.478-4.218,4.539-1.557,6.276
			c6.15,4.313,21.795,16.385,23.7,2.129C99.637,319.144,99.242,316.892,97.963,316.14z"/>
		<path d="M389.546,273.656c16.371,0.426,14.647-22.802-0.379-24.187C376.199,250.258,376.289,274.461,389.546,273.656z"/>
		<path d="M417.446,330.966c16.187,1.684,13.684-24.164-0.22-23.802C404.51,307.28,403.038,331.427,417.446,330.966z"/>
		<path d="M408.064,289.85c-3.189,13.472,18.434,17.093,18.825,2.824C429.045,278.1,408.237,274.332,408.064,289.85z"/>
		<path d="M416.091,252.018c-11.404-1.83-12.401,22.69,0.68,21.088C429.326,273.187,429.301,251.436,416.091,252.018z"/>
		<path d="M455.993,264.281c-0.45-11.704-23.238-12.646-22.212,0.542c0.155,7.889,6.863,6.834,14.078,7.661
			C451.308,272.2,456.64,270.307,455.993,264.281z"/>
		<path d="M417.99,336.101c-11.455-1.113-12.842,18.422-0.626,16.895C429.615,353.161,429.845,335.828,417.99,336.101z"/>
		<path d="M183.291,276.364c11.562,2.355,15.739-12.648,2.878-13.118c-5.874-0.214-11.638,1.25-11.992,7.793
			C173.89,276.334,179.811,275.488,183.291,276.364z"/>
		<path d="M446.477,334.72c-3.785,1.507-10.929,0.828-10.889,8.121c0.179,9.381,20.076,7.752,19.195-2.11
			C454.648,336.779,452.022,334.196,446.477,334.72z"/>
	</g>
</g>
<g id="text">
</g>
<g id="guides">
</g>
<g id="scratch" display="none">
</g>
</svg>
