<svg xmlns="http://www.w3.org/2000/svg" xml:space="preserve" baseProfile="tiny" overflow="visible" version="1.2" viewBox="0 0 600 600"><path fill="none" d="M0 0h600v600H0z"/><path d="M245.459 318.162c-15.238-4.076-33.858 1.298-49.663-.513-14.874-1.704-28.377.78-42.93.72-8.58-11.163-21.159-29.244-33.187-9.72-4.119 6.687-6.306 12.15-11.85 17.712-5.604 5.622-10.105 10.131-11.727 18.221-1.551 7.738.513 16.552-1.88 24.088-2.52 7.936-9.751 9.456-13.117 16.644-3.796 8.106.92 14.954.509 22.717-.252 4.765-3.364 8.189-3.38 13.125-.01 3.025 1.937 5.882 2.088 8.875.405 8.018-4.08 15.138-4.398 23.109-.32 8.03-.219 16.487-.344 24.631-.175 11.422-3.28 34.881 6.853 42.855 2.864 2.254 16.013 7.641 18.147 1.609 1.462-4.131-4.358-7.616-5.852-11.139-4.61-10.869.152-28.368 3.43-39.171 3.212-10.584 9.736-27.142 22.546-18.719 11.355 7.466 15.016 24.263 19.872 35.947 2.515 6.051 3.442 9.542 10.162 10.536 3.122.462 16.561-1.656 17.475-4.784 1.757-6.012-6.916-6.522-10.446-9.489-4.908-4.126-4.911-9.346-6.057-15.21-5.599-28.659-15.801-58.697-15.195-88.046.101-4.874.46-16.572 4.765-19.235 4.688-2.901 13.664 2.249 19.087.26 10.204-3.741 14.073-17.689 20.615-25.076 9.855-11.128 32.071-8.721 45.788-9.193 4.761-.164 21.915 1.748 25.418-2.295 5.096-5.878-2.416-7.305-6.729-8.459z"/></svg>