<svg xmlns="http://www.w3.org/2000/svg" xmlns:xlink="http://www.w3.org/1999/xlink" xml:space="preserve" baseProfile="tiny" overflow="visible" version="1.2" viewBox="0 0 600 600"><path d="M138.22 268.19h40.12l13.012-39.035 13.012 39.035 39.035 1.084-31.445 24.939 10.843 40.12-32.529-23.855-32.529 22.771 11.927-39.035-31.446-26.024z"/><image xlink:href="6EF8E6F0.png" width="552" height="534" transform="matrix(.24 0 0 .24 240 216)"/><path d="M365.926 268.19h40.12l13.012-39.035 13.012 39.035 39.035 1.084-31.445 24.939 10.843 40.12-32.529-23.855-32.529 22.771 11.927-39.035-31.446-26.024z"/><path d="M236.893 150c-1.084 0-2.169 0-3.253 1.084C95.932 194.457 56.897 275.78 81.836 350.598c24.939 73.733 116.022 98.673 217.947 56.384 101.925 42.288 193.008 17.349 217.947-56.384 24.939-74.818-14.096-156.141-151.804-199.514-1.084 0-2.169 0-3.253-1.084 110.6 43.373 155.057 124.696 132.286 188.671-21.686 60.722-87.829 79.155-171.321 55.3 11.927-8.674 20.602-19.518 29.276-33.614-15.18 9.759-22.771 13.012-41.204 20.602-4.337 2.169-8.674 3.253-13.012 4.337-4.337-1.084-8.674-3.253-11.927-4.337-18.433-7.59-26.024-10.843-41.204-20.602 8.674 14.096 17.349 24.939 29.276 33.614-82.408 23.855-148.551 5.422-170.237-55.3C82.92 274.696 126.293 192.288 236.893 150z"/></svg>