<svg xmlns="http://www.w3.org/2000/svg" xml:space="preserve" baseProfile="tiny" overflow="visible" version="1.2" viewBox="0 0 600 600"><path fill="#FFF" d="M.873.873H600V600H.873z"/><g fill="#EC1C24"><path d="M308.833 337.844c10.427-17.185 24.797-27.599 43.253-32.451 23.228-6.107 47.282-7.721 70.744-12.578 33.309-6.896 53.573-36.194 31.448-67.087-10.629-14.841-27.644-17.285-43.835-19.507-19.598-2.69-39.542-2.815-59.174-5.319-19.462-2.482-38.025-8.083-53.058-21.944-5.567-5.133-6.251-11.958-8.577-19.748 6.265 2.515 7.94 7.993 11.6 11.334 13.861 12.652 31.272 15.269 48.641 17.22 29.673 3.333 59.654 4.066 88.851 11.203 19.487 4.763 32.877 16.795 38.528 35.694 5.617 18.784 1.704 35.843-11.381 51.667-14.326 17.325-33.886 18.863-53.285 21.132-21.26 2.487-42.718 3.511-63.48 9.144-11.51 3.123-22.304 7.889-31.199 16.359-2.096 1.996-3.942 5.31-9.076 4.881z"/><path d="M298.801 284.372c1.595-5.936 7.955-8.884 2.02-14.242-.631-.57-.207-2.536.028-3.798 1.383-7.412 5.35-14.161 1.157-22.516-2.944-5.867 3.139-8.963 9.169-10.533-3.093-2.32-5.681-3.732-7.573-5.785-4.371-4.745-3.059-9.638.483-14.236 3.506-4.551 8.557-2.582 11.743-.88 4.449 2.377 5.421 8.551 2.813 12.213-4.149 5.824-3.9 10.308.122 15.598 4.884 6.423-5.37 10.302-3.465 14.468 2.117 4.629 7.663 8.477 3.982 13.792-3.125 4.512-3.095 6.643-.113 11.465 2.735 4.422 1.754 12.007-3.961 14.692-4.074 1.914-10.385 3.266-13.12-4.196-1.119-3.054-3.362-5.772-6.799-.537-3.697 5.631-9.98 6.3-15.634 3.035-6.016-3.474-5.796-9.003-2.773-14.637.621-1.158 2.029-3.145 1.843-3.303-7.965-6.774-1.199-15.276-2.713-22.783-1.26-6.251-3.847-12.847 2.968-18.179 2.905-2.273-1.087-3.651-1.867-5.497-2.03-4.802-5.316-10.13.899-14.093 4.27-2.723 9.958-4.55 13.886-.532 4.213 4.31 4.385 10.103-.046 15.17-.858.982-1.569 2.093-2.347 3.144 12.497 7.146-3.8 20.065 5.597 28.226 1.54 1.337 1.782 6.893.371 8.421-5.42 5.874-.298 9.194 3.33 15.523zM346.411 218.816c3.14-2.084 3.257-7.483 7.962-7.935 4.712-.453 9.762-.41 12.851 3.554 3.277 4.205 1.771 9.437-1.408 12.732-4.034 4.182-3.473 5.629.629 9.707 5.566 5.534 2.865 11.413-4.596 15.18 6.747 6.053 13.771 11.641 4.251 20.286-1.841 1.672 1.126 3.371 2.027 4.956 2.347 4.131 3.402 8.727-.871 11.595-4.491 3.016-9.77 6.496-15.62 3.524-4.907-2.493-3.501-7.529-2.862-11.601.726-4.627 2.958-8.749-.645-13.568-1.769-2.367-.294-6.503 2.054-9.176 2.905-3.306 4.349-5.462-.16-9.585-5.411-4.946-2.214-11.598 7.888-17.354-5.146-2.043-10.348-3.476-11.159-9.55-3.696 1.617-2.69 5.613-5.91 7.015-4.153 1.808-2.65 4.378.202 6.647 8.173 6.503-1.757 13.021-.259 18.291 1.796 6.318 6.787 11.689-.262 17.142-3.126 2.418-1.436 3.098-.057 5.179 2.077 3.132 5.267 6.231 3.627 10.645-2.222 5.98-6.052 9.312-12.931 7.505-7.592-1.994-6.228-8.594-5.016-12.887 1.492-5.284-.6-9.939-.127-14.501.982-9.485-2.506-19.58.653-27.919 2.296-6.059 2.716-8.793-.904-13.974-2.891-4.137-1.535-10.2 3.57-12.766 4.983-2.505 10.875-4.123 14.394 2.946.685 1.381.358 3.412 2.679 3.912zM257.971 233.594c10.234 3.732 13.794 8.997 8.15 17.141-2.112 3.047-.714 4.705.772 6.936 2.749 4.128 3.974 8.373.174 12.628-1.903 2.131-1.782 4.168.373 5.983 5.343 4.5 3.903 11.045.476 13.89-4.606 3.825-11.763 4.335-17.46.361-5.019-3.501-5.842-9.461-2.927-13.915 1.926-2.942 1.71-4.154.201-6.364-2.233-3.27-2.488-6.842-1.041-10.398 1.72-4.226 1.93-8.369-.437-12.278-2.094-3.457-.873-6.987.902-9.282 3.015-3.898 4.009-6.337.394-10.795-3.157-3.893.043-7.922 4.245-9.054 5.396-1.454 11.931-5.318 16.171 1.377 2.653 4.19.32 8.217-4.371 10.381-1.408.65-2.679 1.598-5.622 3.389zM239.156 243.96c.834 3.132-.3 4.954-2.131 6.655-.908.843-2.174 2.914-2.011 3.065 7.591 7.047 2.327 16.44 4.553 24.411 1.032 3.696 1.244 7.787-2.37 9.763-3.564 1.948-7.989 1.29-11.055-1.555-2.469-2.291-6.022-5.298-2.438-9.194 2.478-2.694 3.215-4.318-.004-7.105-1.376-1.192-2.017-4.566-1.423-6.455 1.95-6.198 1.821-11.649-.79-17.928-1.965-4.724.146-9.479 7.139-10.166 7.237-.71 10.705 1.813 10.53 8.509zM205.476 235.326c8.204.165 12.287 5.519 8.936 13.349-2.052 4.796-2.722 8.432.545 12.642 2.127 2.742 1.149 5.628-.585 8.291-1.043 1.602-2.793 3.043-1.599 5.268 1.392 2.595 3.883 5.857-.001 7.527-3.486 1.499-7.696 1.078-11.499-.829-4.335-2.174-2.718-4.389-.475-6.883 1.088-1.21.825-2.514-.538-3.248-7.272-3.918-6.73-8.891-2.118-14.521 2.12-2.588 1.412-4.729-.953-6.832-3.939-3.502-1.413-7.411-.109-10.923 1.378-3.71 4.989-3.854 8.396-3.841zM389.16 244.588c.067-.2.005 2.34-1.272 3.367-4.52 3.631-2.943 5.894.648 9.034 1.731 1.514 3.43 6.213 2.71 6.893-7.487 7.072 2.398 16.016-2.723 22.85-3.158 4.215-7.714 4.845-12.402 2.176-5.286-3.009-3.713-7.712-1.095-10.734 3.37-3.89 4.861-6.274-.412-9.443-.877-.527-1.018-3.198-.673-4.686 1.776-7.662 3.953-14.919-.255-22.913-1.805-3.429.875-7.746 6.46-7.196 5.281.519 10.105 1.442 9.014 10.652zM445.155 270.683c-8.85.182-11.243-3.892-7.48-13.126 1.6-3.926 4.349-6.958.111-11.205-3.535-3.541-2.809-8.585.863-11.446 4.655-3.626 10.564-2.171 14.64 1.083 3.733 2.981 5.199 8.695 1.089 12.258-3.128 2.712-3.598 3.355-.557 6.165 3.118 2.881 3.867 6.579 1.515 10.734-2.431 4.293-5.852 6.039-10.181 5.537zM423.302 251.453c2.265 2.475 4.488 4.396 6.068 6.749 2.357 3.511 3.443 7.839-.05 10.876-3.694 3.211-8.91 3.39-12.986.948-3.811-2.282-4.262-7.112-2.195-10.666 2.722-4.683 7.344-7.931.083-13.32-2.257-1.675-2.289-9.002 3.153-11.863 4.56-2.398 8.166-.764 11.47 2.667 4.263 4.427 1.396 7.788-1.529 11.087-1.269 1.428-2.886 2.547-4.014 3.522zM188.912 246.534c-1.531 4.439-4.834 10.443.785 17.091 2.232 2.64-.424 6.958-4.117 8.834-3.404 1.728-6.383.622-9.034-1.781-3.363-3.049-2.933-7.12-.765-9.882 3.097-3.945 4.696-6.044-.62-9.784-4.684-3.295-.66-7.872 1.152-11.477 1.674-3.33 4.951-4.316 8.447-2.987 3.61 1.374 4.529 4.489 4.152 9.986zM169.078 263.332c-.501 2.954-1.333 5.103-4.326 4.908-5.188-.338-8.967-3.83-13.006-6.465-1.947-1.27-1.118-3.509 1.138-4.589 1.421-.681 3.709-1.309 2.098-3.259-1.58-1.912-5.286-3.124-1.372-5.768 3.202-2.162 6.55-4.996 10.785-4.27 3.613.619 5.787 4.216 2.73 6.268-6.362 4.27-5.341 6.858.325 10.193.934.549 1.223 2.196 1.628 2.982zM380.411 211.591c4.937 1.092 8.604 3.792 8.801 9.062.204 5.453-3.236 8.724-8.524 8.627-5.01-.092-7.598-3.577-7.155-8.565.379-4.271 1.153-8.655 6.878-9.124zM409.252 263.903c.135 5.545-3.329 7.118-8.16 7.288-5.912.208-7.245-4.37-7.381-8.412-.146-4.347 2.302-8.947 7.219-8.995 5.908-.057 7.906 4.697 8.322 10.119zM401.726 233.884c5.364.738 6.337 5.004 6.271 9.304-.074 4.832-3.495 7.041-7.997 6.604-5.031-.489-6.103-4.618-5.769-8.669.337-4.1 1.859-7.89 7.495-7.239zM393.737 222.501c.382-5.276.482-9.259 6.363-9.045 5.023.182 6.982 2.93 7.265 7.435.299 4.772-2.293 7.632-6.767 7.987-5.07.401-6.538-3.26-6.861-6.377zM423.332 228.424c-5.276-.605-10.182.166-10.295-5.603-.094-4.76 3.003-6.987 7.705-7.034 4.645-.046 8.096 2.5 8.539 6.637.473 4.407-3.426 5.791-5.949 6zM408.037 280.987c-.561 3.869-2.566 6.12-7.006 6.315-4.203.185-6.466-1.902-6.189-5.588.267-3.558 1.733-7.138 6.647-6.768 3.697.279 6.217 1.78 6.548 6.041zM229.849 231.261c-2.545-.641-6.874-.022-6.665-3.894.259-4.785 4.474-5.856 8.77-5.699 3.401.124 6.179 1.717 5.715 5.21-.531 4.003-4.089 4.625-7.82 4.383zM422.321 273.937c4.056-.384 5.977 1.505 6.074 4.396.166 4.922-3.98 5.478-7.504 5.983-3.288.471-6.515-1.331-6.533-4.439-.03-5.334 5.195-4.838 7.963-5.94z"/></g><g fill="#231F20"><path d="M135.281 450.226v-2.405h2.925c2.557 0 4.518-.4 5.883-1.203 1.365-.802 2.373-1.896 3.023-3.283.39-.91.585-3.641.585-8.191v-57.989c0-4.507-.239-7.324-.715-8.451-.478-1.126-1.441-2.113-2.893-2.958-1.452-.845-3.413-1.268-5.883-1.268h-2.925v-2.405h39.461c10.531 0 19.004 1.43 25.419 4.291 7.844 3.511 13.792 8.82 17.845 15.927 4.052 7.108 6.078 15.147 6.078 24.119 0 6.198-.997 11.908-2.99 17.13-1.994 5.223-4.573 9.535-7.736 12.937a37.868 37.868 0 0 1-10.954 8.191c-4.139 2.059-9.199 3.651-15.18 4.778-2.644.52-6.805.78-12.482.78h-39.461zm33.609-83.147v68.78c0 3.641.173 5.874.52 6.696.346.824.931 1.452 1.755 1.885 1.17.65 2.861.975 5.071.975 7.237 0 12.763-2.471 16.577-7.411 5.201-6.674 7.801-17.033 7.801-31.075 0-11.312-1.778-20.348-5.331-27.109-2.818-5.287-6.436-8.884-10.857-10.792-3.119-1.342-8.298-1.992-15.536-1.949zM262.829 387.622c5.287 0 10.207 1.365 14.757 4.096 4.551 2.73 8.006 6.609 10.369 11.637 2.362 5.028 3.543 10.531 3.543 16.512 0 8.625-2.189 15.841-6.566 21.648-5.288 7.021-12.591 10.532-21.908 10.532-9.145 0-16.187-3.207-21.128-9.622-4.941-6.414-7.411-13.847-7.411-22.298 0-8.711 2.524-16.306 7.573-22.786 5.049-6.479 11.972-9.719 20.771-9.719zm.26 4.615c-2.21 0-4.107.835-5.688 2.503-1.583 1.668-2.623 4.963-3.12 9.881-.499 4.919-.748 11.756-.748 20.51 0 4.638.303 8.971.91 13.002.477 3.078 1.495 5.418 3.055 7.021 1.56 1.604 3.337 2.405 5.331 2.405 1.95 0 3.576-.542 4.876-1.625 1.69-1.473 2.817-3.532 3.381-6.176.866-4.117 1.3-12.438 1.3-24.964 0-7.367-.412-12.427-1.235-15.18-.824-2.752-2.038-4.756-3.641-6.013-1.128-.909-2.601-1.364-4.421-1.364zM360.993 452.046l-16.643-44.597-16.317 44.597h-3.38l-16.188-44.077c-2.427-6.717-4.486-11.094-6.176-13.132-1.084-1.386-2.73-2.383-4.941-2.99v-2.405h30.684v2.405c-2.08 0-3.51.304-4.291.91-.78.607-1.17 1.3-1.17 2.08 0 .738.693 2.948 2.08 6.631l8.906 23.729 8.581-23.729-.65-1.56c-1.3-3.25-2.438-5.319-3.413-6.208-.975-.888-2.481-1.505-4.518-1.853v-2.405h31.14v2.405c-2.428.13-3.966.466-4.616 1.007-.65.542-.975 1.312-.975 2.308 0 .954.628 3.055 1.885 6.306l8.581 23.729 7.801-21.843c1.126-3.121 1.69-5.244 1.69-6.371 0-1.69-.412-2.925-1.235-3.706-.824-.78-2.428-1.256-4.811-1.43v-2.405h18.008v2.405c-1.994.26-3.575.965-4.746 2.113-1.17 1.149-2.688 4.411-4.551 9.784l-17.032 48.302h-3.703zM421.712 389.442v7.866c3.12-3.381 6.111-5.84 8.971-7.379 2.86-1.538 5.937-2.308 9.231-2.308 3.943 0 7.216 1.095 9.816 3.283 2.6 2.189 4.333 4.908 5.201 8.159.693 2.471 1.04 7.216 1.04 14.237v23.664c0 4.681.422 7.596 1.268 8.744.845 1.149 2.611 1.875 5.298 2.178v2.34h-30.75v-2.34c2.297-.303 3.943-1.256 4.941-2.86.693-1.083 1.04-3.771 1.04-8.061V409.92c0-4.983-.195-8.126-.585-9.427-.39-1.3-1.051-2.308-1.983-3.023-.933-.715-1.962-1.072-3.088-1.072-3.728 0-7.195 2.665-10.401 7.996v32.57c0 4.55.423 7.433 1.268 8.646.845 1.214 2.416 1.973 4.713 2.275v2.34h-30.749v-2.34c2.557-.26 4.377-1.083 5.461-2.47.736-.953 1.105-3.771 1.105-8.451v-34.325c0-4.593-.423-7.454-1.268-8.581-.845-1.126-2.612-1.863-5.298-2.21v-2.405h24.769z"/></g></svg>