<svg xmlns="http://www.w3.org/2000/svg" xml:space="preserve" baseProfile="tiny" overflow="visible" version="1.2" viewBox="0 0 600 600"><path fill="none" d="M4.428 0h600v600h-600z"/><path d="M223.647 289.708h20.06l6.506-19.518 6.506 19.518 19.518.542-15.723 12.47 5.422 20.06-16.265-11.927-16.265 11.385 5.964-19.518-15.723-13.012z"/><path d="m274.61 288.624 24.939-1.084 7.59-23.855 8.674 23.313h24.939l-19.518 15.723 7.59 23.855-20.602-14.096-20.06 15.18 7.048-23.855-20.6-15.181z"/><path d="M337.5 289.708h20.06l6.506-19.518 6.506 19.518 19.518.542-15.723 12.47 5.422 20.06-16.265-11.927-16.265 11.385 5.964-19.518-15.723-13.012z"/><path d="M272.983 230.613c-.542 0-1.084 0-1.626.542-68.854 21.686-88.372 62.348-75.902 99.757 12.47 36.867 58.011 49.336 108.973 28.192 50.963 21.144 96.504 8.674 108.973-28.192 12.47-37.409-7.048-78.071-75.902-99.757-.542 0-1.084 0-1.626-.542 55.3 21.686 77.528 62.348 66.143 94.335-10.843 30.361-43.915 39.577-85.661 27.65 5.964-4.337 10.301-9.759 14.638-16.807-7.59 4.879-11.385 6.506-20.602 10.301-2.169 1.084-4.337 1.626-6.506 2.169-2.169-.542-4.337-1.626-5.964-2.169-9.217-3.795-13.012-5.422-20.602-10.301 4.337 7.048 8.674 12.47 14.638 16.807-41.204 11.927-74.275 2.711-85.119-27.65-10.841-31.987 10.845-73.191 66.145-94.335z"/></svg>