<svg xmlns="http://www.w3.org/2000/svg" xml:space="preserve" baseProfile="tiny" overflow="visible" version="1.2" viewBox="0 0 600 600"><path d="m133.207 525-1.75-5.511c5.818-4.217 9.874-8.073 14.676-10.366 4.358-2.081 9.864-1.648 11.315-8.052.906-4.001 3.752-7.704 4.07-11.673 1.773-22.126 3.287-44.28 4.389-66.449.678-13.642.323-27.213-.802-40.965-.868-10.62 7.936-21.752 11.03-33.042 4.377-15.971 7.499-32.289 11.002-48.492.28-1.297-.642-2.853-1.51-6.282-3.462 4.451-5.778 7.635-8.306 10.641-6.454 7.673-12.368 15.984-19.813 22.551-3.141 2.771-11.455 4.155-14.139 2.031-5.395-4.269-10.629-10.903-12.121-17.43-2.234-9.77 3.767-17.082 13.286-20.684 5.937-2.247 11.378-4.791 11.945-12.21.546-7.145-4.126-10.298-9.144-14.459-17.05-14.136-24.159-25.075-5.905-46.241 7.699-8.927 14.305-18.789 21.738-27.958 2.094-2.582 5.453-4.106 8.052-6.325 1.639-1.399 3.274-2.996 4.348-4.833 7.962-13.616 19.302-23.248 34.898-25.791 17.025-2.776 23.079-12.358 15.515-28.47-7.577-16.141-1.977-30.737 4.936-44.914 1.238-2.54 7.322-3.281 11.305-3.792 6.3-.809 12.99-2.004 19.015-.711 8.74 1.876 8.138 11.046 10.257 17.64 1.737 5.406 3.525 11.234 3.202 16.753-.418 7.131-2.065 14.479-4.725 21.117-3.485 8.697.533 14.785 6.282 19.134 6.806 5.148 15.276 8.035 22.558 12.639 5.519 3.49 11.039 7.502 15.273 12.393 10.12 11.692 14.081 12.097 27.305 3.604 9.511-6.109 20.145-10.442 29.926-16.169 12.002-7.027 23.542-14.839 35.453-22.026 17.227-10.395 34.609-20.534 51.767-30.688 12.387 12.277 12.387 12.277 8.389 24.019-3.224-.189-6.818.259-9.989-.697-14.994-4.521-24.255 5.705-34.841 12.865-13.379 9.049-27.009 17.729-40.41 26.747-9.882 6.65-19.567 13.591-29.346 20.394-1.058.736-2.091 1.555-3.248 2.097-15.497 7.264-19.418 18.342-14.152 35.316 4.268 13.757 7.675 28.054 3.444 42.503-1.109 3.788-4.581 9.296-7.432 9.595-4.202.442-9.101-2.618-13.16-5.081-2.484-1.508-3.951-4.689-6.347-7.717-7.112 7.134-7.9 14.902-6.527 22.937 4.167 24.401 8.556 48.765 13.086 73.101.561 3.016 1.74 6.736 3.94 8.483 8.517 6.761 8.345 15.758 8.105 25.187-.169 6.642.408 13.316.881 19.959.548 7.703 1.371 15.386 2.032 23.082 1.345 15.657.837 31.779 4.651 46.808 2.415 9.52 11.296 17.381 17.178 26.053 1.63 2.402 2.906 5.044 4.344 7.576-2.669.249-5.421 1.036-7.991.64-6.433-.99-12.737-2.885-19.184-3.705-4.701-.598-9.612.417-14.304-.214-2.802-.377-7.456-2.247-7.697-3.953-1.801-12.715-2.829-25.548-3.762-38.369-.144-1.973 1.445-4.071-.093-4.61-3.366-4.675-8.256-8.904-9.781-14.117-3.218-10.998-4.761-22.496-6.828-33.819-1.752-9.594-1.979-19.01-9.054-27.597-7.55-9.164-11.658-21.08-18.179-31.209-3.138-4.874-8.215-8.585-12.77-12.398-.986-.825-4.318-.54-5.187.448-9.074 10.314-18.646 19.877-25.564 32.356-10.937 19.728-14.336 40.964-18.724 62.346-1.557 7.585-6.805 14.373-9.988 21.69-.956 2.196-.843 4.949-.851 7.448-.031 9.642.296 19.289.092 28.925-.203 9.549-5.915 13.061-15.577 10.038-.887-.278-1.92-.547-2.786-.36-12.049 2.592-24.081 5.263-37.698 8.263zm64.047-285.03 1.381-.308c-1.988-7.979-3.378-16.174-6.168-23.861-1.94-5.346-5.948-7.248-11.034-1.985-4.876 5.046-10.52 9.341-15.58 14.222-7.591 7.322-6.337 20.437 2.215 26.404 3.128 2.183 7.031 4.12 8.805 7.193 3.424 5.931 7.655 4.236 12.326 2.954 5.257-1.442 8.25-4.468 8.084-10.218-.139-4.797-.029-9.6-.029-14.401z"/></svg>