<svg xmlns="http://www.w3.org/2000/svg" xml:space="preserve" baseProfile="tiny" overflow="visible" version="1.2" viewBox="0 0 600 600"><path fill="none" d="M4.461 0h600v600h-600z"/><path d="M525.956 313.137h-32.481l-10.509 36.111-10.509-36.111h-32.546l26.321-21.285-10.315-35.424 27.049 21.884 27.048-21.9-10.347 35.44zM406.977 311.48h-32.514l-10.509 36.111-10.509-36.111h-32.529l26.321-21.285-10.331-35.432 27.048 21.891 27.081-21.899-10.379 35.44zM288.006 309.134h-32.481l-10.51 36.111-10.509-36.111h-32.545l26.321-21.285-10.315-35.424 27.048 21.884 27.049-21.9-10.347 35.44zM169.027 307.477h-32.514l-10.509 36.111-10.509-36.111h-32.53l26.321-21.285-10.331-35.432 27.049 21.891 27.081-21.899-10.38 35.44z"/></svg>