<?xml version="1.0" encoding="iso-8859-1"?>
<!-- Generator: Adobe Illustrator 28.3.0, SVG Export Plug-In . SVG Version: 6.00 Build 0)  -->
<svg version="1.2" baseProfile="tiny" xmlns="http://www.w3.org/2000/svg" xmlns:xlink="http://www.w3.org/1999/xlink" x="0px"
	 y="0px" width="600px" height="600px" viewBox="0 0 600 600" overflow="visible" xml:space="preserve">
<g id="bg" display="none">
</g>
<g id="scans">
</g>
<g id="icons">
	<g>
		<rect x="0" fill="none" width="600" height="600"/>
		<g>
			<path d="M160.63,440.067c-1.201,3.711-4.826,6.183-6.707,9.515c-2.34,4.145-4.412,8.6-6.434,12.918
				c-5.02,8.564-8.523,17.594-11.278,27.102c-1.766,4.457-3.873,8.94-4.671,13.701c-0.706,7.452,2.566,20.434-9.116,19.182
				c-8.114-0.942-32.246,9.47-23.239-7.789c2.105-9.181-0.065-19.425-0.598-28.837c-0.104-22.486-1.136-44.877-3.012-67.28
				c-1.285-16.436,0.257-33.21-3.226-49.361c-1.301-5.122-1.519-10.298-0.534-15.488c2.104-21.276,1.321-43.83-1.432-65.111
				c-3.732-9.189-5.171-18.702-5.596-28.608c-0.344-6.575-1.076-13.772,0.585-20.131c0.47-1.278,1.677-5.092,2.836-5.938
				c1.748-1.276,8.242-1.203,10.073-0.058c3.349,2.095,3.076,8.509,3.137,11.917c-0.589,10.802,2.665,22.37,1.052,33.107
				c-4.058,10.428-1.334,22.156-1.481,33.128c1.937,11.332-5.046,55.915,13.939,51.038c2.047,4.735,6.982-5.019,8.959-6.54
				c2.381-2.334,9.803-6.405,9.034-10.785c2.411-0.226,6.024-4.535,8.231-5.731c10.625-4.712,15.774-7.015,9.968-19.285
				c-0.623-3.15,0.342-5.558,1.027-8.624c1.66-10.238,5.216-17.423,17.231-14.972c4.577,0.256,5.703,2.381,7.304,6.194
				c3.096,7.372,5.923,14.233,1.628,21.398c-8.185,13.696,15.76,16.218,23.397,22.158c4.664,5.571,7.979,12.716,11.818,18.952
				c4.919,5.546,7.376,12.083,9.98,18.878c4.48,8.24-2.104,16.305-6.768,23.04c-4.726,6.823-8.656,12.46-15.63,17.043
				c-9.22,4.588-6.065,10.487-4.882,18.839c0.573,8.49,1.875,16.958,2.667,25.432c2.038,16.265-5.409,33.312,1.809,48.88
				c2.039,4.358,8.411,12.247,0.987,14.654c-5.019,1.628-8.418-2.082-12.164-4.569c-3.097-2.057-6.514-1.589-8.052-5.347
				c-1.559-3.808-0.231-10.982-0.256-15.113c0.054-9.484-3.167-18.318-4.34-27.636c-0.093-9.284-4.371-17.085-8.855-24.85
				C165.753,449.29,164.442,445.144,160.63,440.067z M108.645,496.127c-0.221,2.136-0.569,14.385,3.752,12.061
				c3.244-1.744,3.072-12.411,3.901-15.49c2.471-10.197,0.939-20.769,5.323-30.577c1.547-5.597,1.416-11.444,2.33-17.138
				c0.604-3.763,2.621-5.876,4.158-9.117c2.098-4.423,2.742-9.435,4.298-14.037c1.694-5.011,3.99-9.162,3.079-14.595
				c-0.858-5.12-3.576-9.322-2.552-14.699c0.778-4.081,1.631-7.275-0.145-11.342c-1.879-4.302-4.631-1.119-8.464,0.276
				c-4.585,1.668-9.56,1.514-14.383,1.327c-2.983-0.116-2.802-1.581-4.646,1.381c-2.142,5.963-0.031,12.764-0.287,18.881
				c-0.172,8.271,0.717,17.289,0.68,26.148C106.653,451.388,106.453,474.066,108.645,496.127z M208.887,389.739
				c-2.661-6.3-7.316-14.034-12.973-18.29c-9.448-5.182-4.222,27.886-4.753,32.805c0.127,7.709,4.974-0.47,7.501-2.246
				c1.249-0.882,2.597-0.77,3.854-1.828C203.995,398.936,209.07,391.965,208.887,389.739z"/>
		</g>
		<g>
			<path d="M240.82,82.912v1.807c-1.237,0.098-2.279,0.439-3.125,1.025c-0.847,0.586-1.595,1.482-2.246,2.686
				c-0.195,0.391-1.221,2.914-3.076,7.568l-20.752,54.639h-1.904l-16.406-42.676l-18.066,42.676h-1.807L151.66,96.584
				c-2.214-5.436-3.76-8.723-4.639-9.863c-0.879-1.139-2.36-1.807-4.443-2.002v-1.807h28.711v1.807
				c-2.312,0.066-3.85,0.415-4.614,1.05c-0.765,0.635-1.147,1.424-1.147,2.368c0,1.238,0.797,3.857,2.393,7.861l12.988,32.129
				l10.4-25.098l-2.734-7.031c-1.498-3.841-2.653-6.404-3.467-7.69c-0.814-1.286-1.75-2.205-2.808-2.759
				c-1.058-0.553-2.612-0.83-4.663-0.83v-1.807h32.08v1.807c-2.246,0.033-3.857,0.212-4.834,0.537
				c-0.684,0.228-1.221,0.61-1.611,1.147s-0.586,1.147-0.586,1.831c0,0.749,0.732,3.044,2.197,6.885l12.061,31.348l10.791-28.369
				c1.139-2.93,1.839-4.932,2.1-6.006c0.26-1.074,0.391-2.067,0.391-2.979c0-1.334-0.456-2.384-1.367-3.149
				c-0.912-0.764-2.653-1.179-5.225-1.245v-1.807H240.82z"/>
			<path d="M263.184,86.769v16.699h10.84v4.834h-10.84v28.174c0,2.637,0.122,4.338,0.366,5.103c0.244,0.765,0.675,1.384,1.294,1.855
				c0.618,0.472,1.188,0.708,1.709,0.708c2.116,0,4.118-1.611,6.006-4.834l1.465,1.074c-2.637,6.25-6.917,9.375-12.842,9.375
				c-2.897,0-5.347-0.806-7.349-2.417s-3.28-3.41-3.833-5.396c-0.326-1.106-0.488-4.102-0.488-8.984v-24.658h-5.957v-1.709
				c4.102-2.897,7.593-5.94,10.474-9.131c2.881-3.19,5.396-6.754,7.544-10.693H263.184z"/>
			<path d="M297.314,103.469v10.352c3.027-4.719,5.68-7.853,7.959-9.399c2.278-1.546,4.476-2.319,6.592-2.319
				c1.823,0,3.279,0.562,4.37,1.685c1.09,1.123,1.636,2.71,1.636,4.761c0,2.181-0.529,3.874-1.587,5.078
				c-1.058,1.205-2.336,1.807-3.833,1.807c-1.726,0-3.223-0.553-4.492-1.66c-1.27-1.106-2.019-1.725-2.246-1.855
				c-0.326-0.195-0.7-0.293-1.123-0.293c-0.944,0-1.839,0.359-2.686,1.074c-1.335,1.107-2.344,2.686-3.027,4.736
				c-1.042,3.158-1.562,6.641-1.562,10.449v10.498l0.049,2.734c0,1.855,0.114,3.044,0.342,3.564
				c0.391,0.879,0.968,1.522,1.733,1.929c0.765,0.407,2.059,0.659,3.882,0.757v1.758h-24.658v-1.758
				c1.985-0.163,3.328-0.708,4.028-1.636c0.7-0.928,1.05-3.377,1.05-7.349v-25.244c0-2.604-0.13-4.264-0.391-4.98
				c-0.326-0.911-0.798-1.579-1.416-2.002c-0.619-0.423-1.709-0.716-3.271-0.879v-1.807H297.314z"/>
			<path d="M341.406,82.912v26.416c2.506-2.637,4.801-4.5,6.885-5.591c2.083-1.09,4.248-1.636,6.494-1.636
				c2.864,0,5.314,0.814,7.349,2.441c2.034,1.628,3.385,3.54,4.053,5.737c0.667,2.197,1.001,5.901,1.001,11.108v17.822
				c0,3.484,0.325,5.656,0.977,6.519c0.651,0.863,1.969,1.408,3.955,1.636v1.758h-23.145v-1.758
				c1.627-0.227,2.848-0.879,3.662-1.953c0.586-0.846,0.879-2.913,0.879-6.201v-20.361c0-3.776-0.146-6.144-0.439-7.104
				c-0.293-0.96-0.79-1.709-1.489-2.246c-0.7-0.537-1.489-0.806-2.368-0.806c-1.302,0-2.572,0.448-3.809,1.343
				c-1.237,0.896-2.572,2.466-4.004,4.712v24.463c0,3.255,0.244,5.29,0.732,6.104c0.618,1.107,1.888,1.791,3.809,2.051v1.758
				h-23.145v-1.758c1.92-0.195,3.288-0.813,4.102-1.855c0.553-0.716,0.83-2.815,0.83-6.299V92.824c0-3.45-0.317-5.598-0.952-6.445
				c-0.635-0.846-1.961-1.399-3.979-1.66v-1.807H341.406z"/>
			<path d="M407.227,102.199l0.732,15.576h-1.66c-1.986-4.622-4.045-7.78-6.177-9.473c-2.132-1.692-4.256-2.539-6.372-2.539
				c-1.335,0-2.474,0.448-3.418,1.343c-0.944,0.896-1.416,1.929-1.416,3.101c0,0.879,0.325,1.726,0.977,2.539
				c1.042,1.335,3.955,3.622,8.74,6.86c4.785,3.24,7.935,5.99,9.448,8.252c1.514,2.263,2.271,4.793,2.271,7.593
				c0,2.539-0.635,5.029-1.904,7.471s-3.06,4.314-5.371,5.615c-2.312,1.302-4.867,1.953-7.666,1.953
				c-2.181,0-5.095-0.684-8.74-2.051c-0.977-0.358-1.644-0.537-2.002-0.537c-1.074,0-1.97,0.814-2.686,2.441h-1.611l-0.781-16.406
				h1.66c1.465,4.297,3.475,7.52,6.03,9.668c2.555,2.148,4.972,3.223,7.251,3.223c1.562,0,2.84-0.48,3.833-1.44
				c0.993-0.96,1.489-2.124,1.489-3.491c0-1.562-0.488-2.913-1.465-4.053c-0.977-1.139-3.158-2.864-6.543-5.176
				c-4.98-3.45-8.203-6.087-9.668-7.91c-2.148-2.669-3.223-5.615-3.223-8.838c0-3.516,1.212-6.697,3.638-9.546
				c2.425-2.848,5.933-4.272,10.522-4.272c2.474,0,4.866,0.603,7.178,1.807c0.879,0.488,1.595,0.732,2.148,0.732
				c0.586,0,1.058-0.122,1.416-0.366c0.358-0.244,0.928-0.935,1.709-2.075H407.227z"/>
			<path d="M455.957,124.66h-25.049c0.293,6.055,1.904,10.84,4.834,14.355c2.246,2.702,4.948,4.053,8.105,4.053
				c1.953,0,3.727-0.545,5.322-1.636c1.595-1.09,3.304-3.052,5.127-5.884l1.66,1.074c-2.474,5.046-5.208,8.618-8.203,10.718
				c-2.995,2.1-6.462,3.149-10.4,3.149c-6.771,0-11.898-2.604-15.381-7.812c-2.8-4.199-4.199-9.407-4.199-15.625
				c0-7.617,2.059-13.679,6.177-18.188c4.118-4.508,8.943-6.763,14.478-6.763c4.622,0,8.634,1.897,12.036,5.688
				C453.865,111.582,455.696,117.206,455.957,124.66z M443.945,121.388c0-5.241-0.285-8.838-0.854-10.791
				c-0.57-1.953-1.457-3.434-2.661-4.443c-0.684-0.586-1.595-0.879-2.734-0.879c-1.693,0-3.076,0.83-4.15,2.49
				c-1.921,2.898-2.881,6.869-2.881,11.914v1.709H443.945z"/>
			<path d="M172.07,182.912h31.006l-4.932,12.598H172.07l-2.49,6.592c11.23,0.423,19.873,3.223,25.928,8.398
				c4.98,4.265,7.471,9.57,7.471,15.918c0,4.07-1.156,8.049-3.467,11.938c-2.312,3.89-5.566,6.885-9.766,8.984
				s-8.806,3.149-13.818,3.149c-5.404,0-9.554-1.009-12.451-3.027c-2.019-1.432-3.027-3.059-3.027-4.883
				c0-1.399,0.529-2.637,1.587-3.711c1.058-1.074,2.287-1.611,3.687-1.611c1.27,0,2.555,0.261,3.857,0.781
				c1.302,0.521,3.532,1.888,6.689,4.102c1.985,1.367,3.694,2.312,5.127,2.832c1.009,0.391,2.148,0.586,3.418,0.586
				c2.669,0,4.939-0.977,6.812-2.93c1.872-1.953,2.808-4.297,2.808-7.031c0-5.729-2.865-10.384-8.594-13.965
				c-5.729-3.581-12.956-5.371-21.68-5.371c-0.879,0-2.197,0.017-3.955,0.049L172.07,182.912z"/>
			<path d="M293.115,182.912v17.92h-1.758c-1.042-4.134-2.197-7.104-3.467-8.911s-3.011-3.247-5.225-4.321
				c-1.237-0.586-3.402-0.879-6.494-0.879h-4.932v51.074c0,3.386,0.187,5.501,0.562,6.348c0.374,0.847,1.106,1.587,2.197,2.222
				c1.09,0.635,2.58,0.952,4.468,0.952h2.197v1.807h-34.668v-1.807h2.197c1.92,0,3.467-0.342,4.639-1.025
				c0.846-0.456,1.514-1.237,2.002-2.344c0.358-0.781,0.537-2.832,0.537-6.152V186.72h-4.785c-4.46,0-7.699,0.945-9.717,2.832
				c-2.832,2.637-4.623,6.396-5.371,11.279h-1.855v-17.92H293.115z"/>
			<path d="M329.59,224.66h-25.049c0.293,6.055,1.904,10.84,4.834,14.355c2.246,2.702,4.948,4.053,8.105,4.053
				c1.953,0,3.727-0.545,5.322-1.636c1.595-1.09,3.304-3.052,5.127-5.884l1.66,1.074c-2.474,5.046-5.208,8.618-8.203,10.718
				c-2.995,2.1-6.462,3.149-10.4,3.149c-6.771,0-11.898-2.604-15.381-7.812c-2.8-4.199-4.199-9.407-4.199-15.625
				c0-7.617,2.059-13.679,6.177-18.188c4.118-4.508,8.943-6.763,14.478-6.763c4.622,0,8.634,1.897,12.036,5.688
				C327.498,211.582,329.329,217.206,329.59,224.66z M317.578,221.388c0-5.241-0.285-8.838-0.854-10.791
				c-0.57-1.953-1.457-3.434-2.661-4.443c-0.684-0.586-1.595-0.879-2.734-0.879c-1.693,0-3.076,0.83-4.15,2.49
				c-1.921,2.898-2.881,6.869-2.881,11.914v1.709H317.578z"/>
			<path d="M353.955,203.469v5.908c2.344-2.539,4.59-4.386,6.738-5.542c2.148-1.155,4.459-1.733,6.934-1.733
				c2.962,0,5.42,0.823,7.373,2.466c1.953,1.644,3.255,3.687,3.906,6.128c0.521,1.855,0.781,5.42,0.781,10.693v17.773
				c0,3.516,0.317,5.705,0.952,6.567c0.635,0.863,1.961,1.408,3.979,1.636v1.758h-23.096v-1.758
				c1.725-0.227,2.962-0.944,3.711-2.148c0.521-0.813,0.781-2.832,0.781-6.055v-20.312c0-3.743-0.146-6.104-0.439-7.08
				s-0.79-1.733-1.489-2.271c-0.7-0.537-1.473-0.806-2.319-0.806c-2.8,0-5.404,2.002-7.812,6.006v24.463
				c0,3.418,0.317,5.583,0.952,6.494c0.635,0.912,1.814,1.482,3.54,1.709v1.758h-23.096v-1.758c1.92-0.195,3.288-0.813,4.102-1.855
				c0.553-0.716,0.83-2.832,0.83-6.348v-25.781c0-3.45-0.317-5.598-0.952-6.445c-0.635-0.846-1.961-1.399-3.979-1.66v-1.807H353.955
				z"/>
			<path d="M409.57,203.469v5.908c2.344-2.539,4.59-4.386,6.738-5.542c2.148-1.155,4.459-1.733,6.934-1.733
				c2.962,0,5.42,0.823,7.373,2.466c1.953,1.644,3.255,3.687,3.906,6.128c0.521,1.855,0.781,5.42,0.781,10.693v17.773
				c0,3.516,0.317,5.705,0.952,6.567c0.635,0.863,1.961,1.408,3.979,1.636v1.758h-23.096v-1.758
				c1.725-0.227,2.962-0.944,3.711-2.148c0.521-0.813,0.781-2.832,0.781-6.055v-20.312c0-3.743-0.146-6.104-0.439-7.08
				s-0.79-1.733-1.489-2.271c-0.7-0.537-1.473-0.806-2.319-0.806c-2.8,0-5.404,2.002-7.812,6.006v24.463
				c0,3.418,0.317,5.583,0.952,6.494c0.635,0.912,1.814,1.482,3.54,1.709v1.758h-23.096v-1.758c1.92-0.195,3.288-0.813,4.102-1.855
				c0.553-0.716,0.83-2.832,0.83-6.348v-25.781c0-3.45-0.317-5.598-0.952-6.445c-0.635-0.846-1.961-1.399-3.979-1.66v-1.807H409.57z
				"/>
		</g>
		<g>
			<path d="M452.669,441.79l40.879-55.415h7.744v55.415h7.871v13.14h-7.871v19.297h-17.456V454.93h-31.167V441.79z M458.826,441.79
				h25.01v-33.96L458.826,441.79z"/>
		</g>
	</g>
</g>
<g id="text">
</g>
<g id="guides">
</g>
<g id="scratch" display="none">
</g>
</svg>
