<svg xmlns="http://www.w3.org/2000/svg" xml:space="preserve" baseProfile="tiny" overflow="visible" version="1.2" viewBox="0 0 600 600"><path fill="none" d="M0 0h600v600H0z"/><path fill="#231F20" d="M112.627 301.28h.306l.179.253.356-.253H484.94v-.834l1.136.831 34.526-47.162-15.892-11.637-28.102 38.388h-354.02l-27.931-39.259-16.045 11.432 34.015 47.812zM484.94 367.751v-.854H113.476l-.364-.26-.184.26h-.301v.423l-34.015 47.812 16.045 11.432 27.926-39.253h354.014l28.113 38.381 15.892-11.636-34.526-47.137z"/><path fill="#231F20" d="m335.44 272.318 59.13-23.673-24.611 57.248 59.29 23.673-59.29 23.673 24.611 57.248-59.13-23.673-24.451 57.248-24.451-57.248-59.129 23.673 24.45-57.248-59.129-23.673 59.129-23.673-24.45-57.248 58.97 23.673 24.61-57.248 24.451 57.248z"/></svg>