<svg xmlns="http://www.w3.org/2000/svg" xml:space="preserve" baseProfile="tiny" overflow="visible" version="1.2" viewBox="0 0 600 600"><path fill="none" d="M0 0h600v600H0z"/><path d="M141.861 300c6.52 1.625 5.392 9.283 6.236 14.442 1.906 5.366 32.147 5.137 38.392 4.932 3.747 1.112 28.335-9.074 26.529-4.98-3.081 9.581-2.455 19.829-3.051 29.759-.686 20.815 10.144 39.37 15.033 59.084l-.313.251c-20.366-12.11-33.922-13.841-56.649-7.972-8.474.233-13.335-1.008-12.878-10.671-3.434-17.663-29.472 3.977-35.76 10.268 5.737 16.894 11.541 33.909 17.279 50.825.65 1.504.183 3.805-1.583 4.027-1.331.208-2.014-.528-2.4-1.665-16.041-46.974-31.787-94.106-48.047-140.979v-1.356c.981-2.205 3.603-2.799 4.409-.097 7.4 2.398 26.079 4.222 33.378 1.318 6.421-2.345 12.367-7.049 19.425-7.186zm-51.238 10.517 28.223 82.976.541-.083c-.781-15.214-.604-30.99-7.988-44.789-6.444-13.073-10.522-27.305-20.776-38.104z"/></svg>