<svg xmlns="http://www.w3.org/2000/svg" xml:space="preserve" baseProfile="tiny" overflow="visible" version="1.2" viewBox="0 0 600 600"><path d="M506.165 359.986c11.016 60.08-10.499 111.661-43.231 159.858-7.116 10.466-43.781 4.166-52.097-11.416-7.783-14.583-16.833-10.483-25.899-7.001-22.315 8.567-39.248 20.75-68.996 7.034-18.932-8.733-52.797-7.8-79.413-2.316-22.416 4.616-45.098-3.65-67.963 5.45-8.666 3.45-24.615-5.667-34.781-12.667C94.32 471.763 80.12 417.25 99.569 373.435c20.082-45.264 21.016-45.631 55.43-7.582 9.666 10.683 16.666 23.732 25.349 35.348 2.267 3.017 6.849 7.1 9.416 6.516 5.05-1.15 2.717-6.983 2.817-10.85.267-9.816.083-19.649.083-29.465-2.617-51.198 16.749-91.779 56.147-124.811 16.616-13.933 34.981-27.915 43.214-49.964.967-2.583 5.283-6.016 7.5-5.65 5.966.983 6.166 6.616 6.233 11.616.267 18.949.367 37.898.8 56.847.117 4.666-1.15 10.65 4.733 12.782 7.6 2.767 9.3-4.216 12.016-8.749 10.033-16.816 13.683-35.248 11.4-54.464-3.833-32.298 4.267-62.53 14.499-92.512.6-1.8 1.783-3.383 2.7-5.067.117 2.033.666 4.133.316 6.066-9.916 55.53 18.999 94.778 53.897 132.393 15.683 16.9 25.649 38.198 34.632 59.531 1.633 3.866 2.217 9.033 7.45 8.699 6.616-.416 6.616-6.383 6.666-11.15.333-28.565-5.566-55.197-21.432-79.762-26.748-41.398-41.914-85.463-24.148-134.977 1.816-5.05 5.733-13.216 8.716-13.233 7.6-.05 4.366 8.35 5.6 13.083 4.883 18.749 13.866 36.565 26.882 49.331 51.048 50.081 39.698 105.062 19.232 163.392-5.883 16.799-30.482 24.998-21.099 48.18 1.967 4.85-.433 11.616 6.433 14.149 7.316 2.717 11.866-1.749 16.183-6.649 1.383-1.567 3.2-2.8 4.433-4.466 7.316-9.9 14.516-19.866 21.765-29.815 2.933 12.582 6.4 25.066 8.733 37.764v.02zM160.2 298.873c-1.783-3.533-3.967-6.9-5.283-10.6-20.599-57.88-10.216-140.043 70.513-160.658 14.982-3.833 30.115-11.749 36.215-28.899.6-1.7 3.633-4.266 3.733-4.183 6.599 5.25-2.067 11.749-1.684 12.182 6.333 31.932 14.683 58.564-5.7 83.462-8.916 10.883-18.099 21.182-29.132 29.266-25.682 18.815-48.398 39.864-62.197 69.196-1.717 3.617-4.283 6.816-6.45 10.216l-.015.018zm217.922 84.896c9.666-2.351 3.233-11.667 5.45-17.9-1.65-7.682-.483-16.265-6.266-23.115-8.366 8.616-3.383 20.199-6.566 30.081-1.683 5.267-.55 12.867 7.4 10.934h-.018z"/></svg>